<?xml version="1.0" standalone="no"?>
<!DOCTYPE svg PUBLIC "-//W3C//DTD SVG 1.1//EN" "http://www.w3.org/Graphics/SVG/1.1/DTD/svg11.dtd" >
<svg xmlns="http://www.w3.org/2000/svg" xmlns:xlink="http://www.w3.org/1999/xlink" version="1.1">
<metadata>
Created by FontForge 20161003 at Thu Jul 20 10:54:55 2017
 By www-data
</metadata>
<defs>
<font id="1862" horiz-adv-x="1753" >
  <font-face 
    font-family="1862"
    font-weight="400"
    font-stretch="normal"
    units-per-em="4096"
    panose-1="2 11 114 0 0 0 0 0 0 0"
    ascent="3276"
    descent="-820"
    x-height="1831"
    cap-height="2638"
    bbox="-143 -1409 3072 3162"
    underline-thickness="50"
    underline-position="-175"
    unicode-range="U+0020-201D"
  />
<missing-glyph horiz-adv-x="3072" 
d="M512 0v2560h2048v-2560h-2048zM2494 66v2428h-1916v-2428h1916z" />
    <glyph glyph-name=".notdef" horiz-adv-x="3072" 
d="M512 0v2560h2048v-2560h-2048zM2494 66v2428h-1916v-2428h1916z" />
    <glyph glyph-name=".null" horiz-adv-x="0" 
 />
    <glyph glyph-name="nonmarkingreturn" horiz-adv-x="0" 
 />
    <glyph glyph-name="space" unicode=" " horiz-adv-x="934" 
 />
    <glyph glyph-name="exclam" unicode="!" horiz-adv-x="897" 
d="M508 2642q270 -203 270 -295v-41q-176 -963 -180 -1466q0 -90 -66 -90q-50 0 -118 61q-126 80 -166.5 147.5t-50.5 188.5q22 687 106 1483q11 57 62 57q55 0 143 -45zM299 618q17 -11 80.5 -30.5t116.5 -46.5q118 -59 118 -164q0 -45 -4 -66q0 -4 -2 -15t-2 -17
q0 -10 6 -54t6 -82v-49q0 -110 -98 -110q-54 0 -139 28q-187 66 -234 189q-24 64 -24 241q0 105 20 160q6 41 66 41q47 0 90 -25z" />
    <glyph glyph-name="quotedbl" unicode="&#x22;" horiz-adv-x="1384" 
d="M590 2462q37 -102 37 -209q0 -112 -41 -189q-54 -86 -102 -129t-144 -43q-25 0 -30.5 4.5t-18.5 36.5v13q0 13 18.5 41.5t18.5 35.5v5q0 83 -78 131q-95 54 -120 106t-32 160q0 9 -2 35t-2 39q0 86 12 110q45 70 82 70q50 0 291 -103q60 -31 77 -48t34 -66zM1143 2523
q61 -30 76.5 -46t33.5 -69q37 -96 37 -204q0 -119 -41 -193q-51 -83 -99 -125.5t-142 -42.5q-28 0 -33.5 4t-16.5 33q0 2 -2 6t-2 6q0 16 18.5 43.5t18.5 34.5v4q0 87 -73 131q-96 54 -122.5 108t-33.5 159q0 12 -2 37t-2 36q0 63 12 111q45 70 82 70q56 0 291 -103z" />
    <glyph glyph-name="numbersign" unicode="#" horiz-adv-x="2159" 
d="M1606 2544q106 -146 106 -189q0 -6 -2 -17t-2 -16q-26 -147 -45 -495q164 8 192 8h33q65 -20 89 -49.5t27 -63t7 -80.5q12 -48 12 -90q0 -110 -114 -110h-258q0 -125 -9 -332h70q215 0 246 -20q50 -35 77.5 -138.5t37.5 -124.5q16 -32 16 -73q0 -99 -160 -99
q-156 0 -303 21v-942q0 -123 -37 -123q-20 0 -61 37q-131 84 -177.5 145t-60.5 174q4 147 9 316.5t12 429.5q-271 37 -471 37q7 -566 12 -762q0 -123 -37 -123q-24 0 -65 37q-93 60 -138 102t-67 92t-29 125q0 307 4 504h-12q-27 0 -97.5 -12.5t-103.5 -12.5q-44 0 -61 17
q-160 153 -160 254q0 52 37 73q14 12 80.5 21.5t156.5 17t177 15.5q0 53 4 162t4 161q-39 -3 -80.5 -7.5t-71.5 -4.5q-11 0 -31 2.5t-38.5 5.5t-32.5 4q-58 10 -107 106t-49 173q0 57 25 65q116 58 352 58h53q37 651 74 819q12 61 98 61q80 0 111 -49q57 -72 57 -184
q0 -24 -7.5 -68.5t-8.5 -58.5q-18 -86 -33 -533q204 -8 320 -8q33 0 99 2t93 2q4 69 14.5 274.5t18 302t20.5 152.5q18 58 82 58q71 0 103 -49zM1110 1454q-114 0 -262 -8q0 -16 -2 -56t-2 -59q0 -38 2 -112t2 -109q41 -1 116.5 -4.5t150 -5.5t118.5 -2h90q2 55 13 180.5
t12 167.5q-75 0 -159 4t-79 4z" />
    <glyph glyph-name="dollar" unicode="$" horiz-adv-x="1585" 
d="M1016 623q119 77 119 163q0 99 -136 189q-66 53 -98 53q-41 0 -41 -86q-2 -47 -15.5 -129.5t-17.5 -116.5q0 -8 -2 -26t-2 -23q0 -82 66 -82q50 0 127 58zM791 1995v65q0 78 -46 78q-50 0 -147 -78q-56 -38 -89.5 -112.5t-33.5 -145.5q0 -123 82 -180q56 -49 90 -49
q95 0 103 184zM791 61l-13 -344q0 -52 -13 -60.5t-93 -8.5h-21q-82 0 -82 82q0 2 2 6t2 6l17 328v24q0 71 -98 135q-214 120 -332 226q-103 68 -103 200q0 96 66 181q48 65 102 65q88 0 164 -151q49 -88 71 -111.5t81 -52.5q7 0 19 -4t13 -4q33 0 50 163l41 320q8 40 8 49
q0 53 -86 111q-139 86 -260 206t-162 236q-53 145 -53 279q0 218 146 366t443 174q72 9 95.5 27.5t23.5 66.5q0 50 -4 78q0 4 -2 16t-2 13q0 57 70 57q38 0 72 -25t34 -65q-8 -66 -8 -82q0 -47 32.5 -72.5t151.5 -82.5q267 -153 267 -353q0 -52 -25 -102q-14 -45 -119 -45
q-77 0 -102 45q-108 143 -168 143q-49 0 -70 -123l-28 -360v-70q0 -132 90 -180q157 -75 295.5 -198t191.5 -269q37 -96 37 -201q0 -222 -168.5 -377t-425.5 -167q-101 -9 -124 -23t-23 -72z" />
    <glyph glyph-name="percent" unicode="%" horiz-adv-x="3133" 
d="M930 2478q147 -288 147 -614q0 -160 -45.5 -288t-140 -203t-236.5 -75q-2 0 -5.5 2.5t-6.5 2.5q-63 0 -151 43t-160 124q-53 56 -127.5 175t-106.5 210q-41 120 -41 275q0 191 69 387.5t193 329.5q69 73 119 73q71 0 172 -176q58 -78 82.5 -98t69.5 -20
q178 182 247.5 240.5t141.5 58.5q108 0 319 -218q37 -28 58 -28q25 0 81 30.5t91 30.5q21 0 45 -8q20 -13 62.5 -65t84.5 -156q25 -54 25 -111q0 -62 -37 -148t-37 -114q-3 -178 -123 -1032q-13 -98 -22.5 -215t-19 -299t-22.5 -435t-22 -374q-16 -14 -46 -35.5t-48 -21.5
q-12 0 -12 4q-81 34 -208.5 138.5t-127.5 209.5q0 6 4 23t4 22q70 190 90 459q15 161 69.5 493.5t65.5 431.5q16 131 64.5 433t50.5 444q-219 262 -348 262q-108 0 -262 -168zM2613 242q37 26 70 138t33 267q0 219 -70 414q-35 119 -98 119q-57 0 -111 -156
q-45 -259 -45 -389q0 -183 53 -295q44 -119 103 -119q26 0 65 21zM479 1712q45 -115 99 -115q24 0 61 21q40 27 73 140t33 265q0 214 -69 410q-46 123 -98 123q-57 0 -111 -156q-45 -198 -45 -381q0 -187 57 -307zM2580 1368q61 -83 82.5 -101t65.5 -18q143 0 250 -303
q94 -264 94 -483q0 -239 -113 -386t-342 -147l-4 -4q-194 0 -315 131q-54 57 -131 190.5t-107 227.5q-41 126 -41 262q0 192 73.5 395.5t201.5 337.5q64 78 114 78q69 0 172 -180z" />
    <glyph glyph-name="ampersand" unicode="&#x26;" horiz-adv-x="2200" 
d="M1991 541v-13q0 -29 -19.5 -54.5t-57.5 -57t-46 -39.5q121 -115 303 -115h12q47 0 60 -63.5t22 -198.5q-4 -9 -28 -23t-83 -14q-55 0 -131 17q-61 10 -140.5 24.5t-161.5 46.5t-160 96q-76 -39 -165.5 -85.5t-192 -80.5t-208.5 -38q-28 0 -79 -2t-72 -2q-186 0 -299.5 34
t-233.5 121q-83 58 -161 206.5t-93 252.5q-1 13 -4 41.5t-5.5 56.5t-2.5 45q0 258 127 439q180 263 451 417q-168 446 -168 701q0 134 49 246q56 145 205 254q70 49 180 49h45q100 -11 156 -119q53 -103 90 -103q3 0 15 4.5t22 4.5q40 8 57 8q62 0 116.5 -35t79.5 -92
q50 -148 50 -385q0 -146 -33 -242q-24 -47 -144.5 -186.5t-293.5 -255.5q191 -491 499 -799q39 34 76.5 66t73 67.5t67.5 79.5q0 4 13 4q26 0 75.5 -56.5t93 -125t44.5 -96.5zM848 2343q-25 -85 -25 -164q0 -184 99 -450q80 62 156.5 187t88.5 210q9 54 9 78q0 155 -111 319
q-17 29 -49 29q-46 0 -93 -57.5t-75 -151.5zM459 545q59 -295 262 -307q4 0 11 -2.5t9 -2.5q103 0 261 54t284 135q-128 112 -265 312.5t-247 453.5q-328 -248 -328 -533q0 -21 5.5 -56t7.5 -54z" />
    <glyph glyph-name="quotesingle" unicode="'" horiz-adv-x="692" 
d="M565 2277q-49 -85 -96 -130.5t-141 -45.5q-28 0 -33.5 4.5t-20.5 36.5v8q0 16 18.5 45.5t18.5 36.5v9q0 87 -78 135q-95 57 -123.5 114t-39.5 164v90q0 77 12 103q36 73 78 73q60 0 295 -106q60 -34 76.5 -49.5t33.5 -69.5q41 -110 41 -229q0 -115 -41 -189z" />
    <glyph glyph-name="parenleft" unicode="(" horiz-adv-x="1098" 
d="M627 53q-557 755 -557 1487q0 667 450 1274q100 152 168 152q78 0 303 -213q53 -47 53 -103q0 -29 -20 -49q-253 -327 -370 -633.5t-117 -587.5q0 -217 61 -418.5t165.5 -378.5t240.5 -337q90 -117 90 -180q0 -55 -58 -107q-68 -106 -155 -106q-113 0 -254 200z" />
    <glyph glyph-name="parenright" unicode=")" horiz-adv-x="1102" 
d="M586 41q-109 -147 -172 -147q-77 0 -291 208q-57 46 -57 99q0 40 20 53q492 629 492 1229q0 580 -459 1138q-94 120 -94 177q0 51 57 114q78 111 164 111q120 0 246 -209q166 -225 290.5 -468.5t193 -501.5t68.5 -521q0 -674 -458 -1282z" />
    <glyph glyph-name="asterisk" unicode="*" 
d="M610 1528q34 171 131 409q-190 -15 -388.5 -48.5t-270.5 -33.5h-16q-116 0 -132 127q0 7 -2 23t-2 23q0 61 78 86q132 36 379.5 60.5t398.5 29.5q-13 23 -94.5 145.5t-138.5 210.5q-63 92 -82.5 123.5t-19.5 56.5q0 5 20 78q32 57 66 57q80 0 266 -327q79 -140 102 -140
q22 0 53 82q51 102 70.5 146.5t29 73t15.5 47.5q19 57 37 57q43 0 131 -172q57 -114 57 -143q0 -6 -5 -21.5t-7 -28.5q-82 -172 -115 -237q141 -4 304 -29q54 -7 122 -37t95 -69q12 -19 12 -37q0 -75 -160 -82q-23 -1 -69 -4.5t-91.5 -5.5t-72.5 -2q-28 0 -81 2t-79 2
q288 -506 307 -557q25 -85 25 -95q0 -23 -33 -110q-25 -78 -74 -78q-58 0 -98 111q-78 179 -221 479q-33 65 -58 65q-8 0 -24 -24q-72 -184 -94 -463q0 -102 -41 -102q-44 0 -164 127q-78 84 -78 151q0 7 2.5 21.5t5.5 29.5t4 23z" />
    <glyph glyph-name="plus" unicode="+" horiz-adv-x="2318" 
d="M1323 2281q33 -129 33 -278q0 -85 -14.5 -259.5t-14.5 -297.5h160q239 0 467 -41q65 -11 154.5 -58t132.5 -106q24 -43 24 -78q0 -49 -53 -82t-139 -41q-113 -10 -738 -20v-57q0 -64 -6 -229t-6 -267q0 -224 29 -467v-33q0 -57 -37 -57q-41 0 -129 91t-96 122
q-82 213 -82 418q0 65 14 212t14 226v53q-148 -12 -263.5 -36t-191.5 -46.5t-159 -45.5t-148 -23q-2 0 -8 -2t-8 -2q-161 0 -197 208q-4 16 -7.5 31.5t-6 30t-2.5 29.5q0 82 90 110q160 68 411 105.5t466 54.5q0 6 -2 18t-2 19q0 47 6 146t6 132q4 244 14 373.5t47 257.5
q6 37 62 37q53 0 109.5 -41t70.5 -107z" />
    <glyph glyph-name="comma" unicode="," horiz-adv-x="733" 
d="M590 16q-47 -81 -97.5 -126.5t-144.5 -45.5q-25 0 -30.5 5t-14.5 36q0 2 -2 7t-2 6q0 15 18.5 42.5t18.5 34.5v5q0 79 -74 131q-65 34 -97.5 72t-44 81t-18.5 113q0 7 -2 30t-2 35q0 85 17 115q36 74 86 74q58 0 282 -107q62 -30 78.5 -45.5t36.5 -64.5q33 -92 33 -209
q0 -119 -41 -189z" />
    <glyph glyph-name="hyphen" unicode="-" horiz-adv-x="1585" 
d="M1356 1450q112 -21 137.5 -61.5t34.5 -122.5q0 -113 -19 -153t-71 -40h-17q-118 12 -307 12q-110 0 -364 -16q-81 -6 -153.5 -19t-137.5 -27t-132.5 -27t-101.5 -13h-16q-119 0 -148 217q-12 87 -12 90q0 82 62 111q158 79 622 98h98q243 0 525 -49z" />
    <glyph glyph-name="period" unicode="." horiz-adv-x="733" 
d="M565 16q-6 -9 -24 -22.5t-49 -13.5h-25q-208 51 -303 143q-29 25 -35 101t-6 296q0 94 78 94q93 0 311 -106q65 -28 81.5 -63.5t16.5 -104.5v-21q0 -110 -45 -303z" />
    <glyph glyph-name="slash" unicode="/" horiz-adv-x="1630" 
d="M209 -1135q-21 -9 -63 -22.5t-72 -13.5q-29 0 -29 12q-38 23 -58 155t-20 222v16q54 163 133 377.5t176.5 475.5t161.5 437q67 181 131.5 341.5t154.5 386.5t128 329q73 180 223.5 513.5t227.5 526.5q33 84 86.5 128t105.5 44q83 0 102 -90v-28q0 -84 -29 -200.5
t-48 -180.5q-34 -79 -98.5 -225.5t-134 -311.5t-126.5 -307t-117 -307q-22 -58 -118.5 -300t-147 -372.5t-94.5 -269.5q-132 -361 -244 -674.5t-231 -661.5z" />
    <glyph glyph-name="zero" unicode="0" 
d="M213 696q-107 313 -107 619q0 285 81 561.5t223 503.5q54 102 135 102q28 0 78 -24q53 -37 82 -37q39 0 98 53q61 94 127 94q95 0 221 -147q159 -169 265 -384t156 -448t50 -467q0 -196 -35.5 -377.5t-102.5 -331t-157 -245.5q-75 -93 -152 -138.5t-208 -45.5
q-266 0 -453.5 203.5t-300.5 508.5zM688 684q81 -266 164 -266q78 0 156 209q51 135 82.5 319t31.5 377q0 349 -98 619q-71 196 -156 196q-86 0 -131 -180q-127 -320 -127 -733q0 -314 78 -541z" />
    <glyph glyph-name="one" unicode="1" horiz-adv-x="1143" 
d="M823 2499q127 -115 127 -279q0 -55 -41 -328q-14 -242 -33.5 -504t-25.5 -344t-26.5 -342t-37.5 -481q-10 -131 -28.5 -178t-81.5 -47q-47 0 -168 45q-137 62 -191.5 135t-54.5 201q0 84 29 278q65 359 139 1053q4 41 4 102q0 86 -33 86q-15 0 -49 -16q-33 -25 -53 -25
q-47 0 -152 99q-92 103 -109.5 126.5t-17.5 49.5q0 25 50 82q165 154 438 348q73 61 115 61q61 0 200 -122z" />
    <glyph glyph-name="two" unicode="2" 
d="M1561 74q-95 8 -271 8q-241 0 -516 -37q-216 -45 -291 -45q-71 0 -113.5 30.5t-115.5 116.5q-94 122 -94 168q0 62 155 242q243 278 409.5 622.5t205.5 651.5v82q0 287 -185 287q-108 0 -266 -99q-114 -61 -164 -61q-45 0 -86.5 30t-122.5 109q-139 133 -139 188
q0 57 115 115q208 131 450 131q279 0 521.5 -169.5t335.5 -424.5q53 -162 53 -311q0 -229 -117 -495.5t-350 -606.5q-86 -127 -86 -143q0 -21 37 -21q23 0 82 9q220 36 409 36h25q132 0 219.5 -85t103.5 -148q13 -26 13 -70q0 -118 -140 -118q-29 0 -77 8z" />
    <glyph glyph-name="three" unicode="3" horiz-adv-x="1630" 
d="M500 2118q-107 -50 -131 -50q-70 0 -164 107q-144 119 -144 221q0 87 91 127q210 78 401 78q286 0 487.5 -153.5t278.5 -374.5q20 -62 20 -136q0 -114 -45 -236t-127 -210q-53 -55 -53 -86q0 -37 49 -37q67 0 172 -127.5t135 -208.5q50 -148 50 -282q0 -228 -136 -404.5
t-338 -271t-387 -94.5q-117 0 -173 13t-183 73q-270 140 -270 274q0 36 24 86q57 106 111 106q71 0 184 -102q121 -78 217 -78q117 0 267 144q80 58 130 155t50 209q0 84 -25 156q-12 46 -65.5 100.5t-122.5 54.5q-28 0 -78 -16q-113 -37 -156 -37q-56 0 -105.5 45.5
t-123.5 163.5q-78 131 -78 168q0 51 213 70q131 18 240.5 147.5t177.5 274.5q16 32 16 65q0 49 -47.5 84t-128.5 35q-100 0 -233 -53z" />
    <glyph glyph-name="four" unicode="4" horiz-adv-x="1831" 
d="M1618 1024q-113 -21 -144.5 -43.5t-31.5 -91.5q0 -5 2 -23t2 -26q0 -56 -4 -156t-4 -143q0 -151 20 -369q3 -24 7.5 -58t4.5 -44q0 -70 -77 -70q-60 0 -181 37q-136 58 -182.5 124.5t-46.5 203.5q0 7 2 31t2 34q-12 159 -12 193q0 21 4 65t4 62q8 64 8 77q0 54 -61 54
q-49 0 -86 -9q-278 -24 -316 -24q-108 0 -158 29.5t-120 113.5q-113 148 -144.5 201t-31.5 123q0 63 32 188q131 458 443 1159q40 131 127 131q66 0 188 -106q115 -130 115 -274q0 -84 -53 -148q-127 -215 -208.5 -435.5t-107.5 -477.5q-1 -6 -6.5 -27t-5.5 -27
q0 -24 41 -24q8 0 84 6t145 6q76 7 101 16.5t31 37t8 106.5q26 369 39 499t37.5 194.5t70.5 64.5q47 0 164 -62q114 -63 149 -102.5t35 -118.5q0 -39 -15.5 -163t-21.5 -181q-20 -143 -20 -135q0 -62 65 -62q10 0 181 25h20q68 0 116 -53t48 -127v-13q-7 -80 -53.5 -121
t-204.5 -67z" />
    <glyph glyph-name="five" unicode="5" horiz-adv-x="1626" 
d="M238 1503q-45 67 -45 139t23.5 225t86.5 533q14 103 176 103q100 -21 271 -21q310 0 380 70q57 28 111 28q114 0 176 -172q21 -51 21 -118q0 -132 -139 -172.5t-398 -40.5q-91 -2 -123.5 -9.5t-43 -35.5t-17.5 -111q-25 -163 -25 -180q0 -55 27.5 -72.5t99.5 -17.5
q192 0 372.5 -152.5t283.5 -437.5q45 -127 45 -266q0 -221 -124.5 -406.5t-304.5 -293t-329 -107.5l-4 -4h-13q-86 0 -197 26.5t-224 86t-197 149.5q-82 101 -82 164q0 27 25 98q43 94 147 94t156 -90q67 -106 188 -106q77 0 160 40q139 69 225 229.5t86 311.5q0 68 -20 123
q-59 176 -246 176q-32 0 -156 -16q-41 -29 -90 -29q-145 0 -282 262z" />
    <glyph glyph-name="six" unicode="6" horiz-adv-x="1630" 
d="M733 1167q-45 62 -86 62q-33 0 -33 -53q0 -5 2 -14t2 -15q10 -405 78 -590q33 -91 66.5 -123.5t105.5 -32.5q46 0 106.5 77.5t104 202.5t43.5 261v41q-3 71 -38 111.5t-85 40.5q-21 0 -49 -13q-96 -28 -106 -28q-51 0 -111 73zM1221 2339q-166 -112 -260 -210t-149 -205
t-124 -298q-29 -74 -29 -90q0 -29 37 -29q9 0 119 25q73 12 143 12q418 0 590 -467q54 -155 54 -323q0 -207 -87.5 -385t-234 -281.5t-309.5 -103.5q-271 23 -477.5 203.5t-300.5 439.5q-95 270 -95 553q0 251 72.5 507.5t215.5 493t351 432.5q82 74 160 74q95 0 250 -111
q135 -99 135 -163q0 -44 -61 -74z" />
    <glyph glyph-name="seven" unicode="7" horiz-adv-x="1548" 
d="M635 0q-254 0 -332 193q-1 7 -4 17t-5.5 20.5t-2.5 15.5q0 13 61 188q66 203 201.5 558.5t209.5 560.5t155 483q8 24 8 41q0 37 -37 37q-27 0 -78 -21q-53 -9 -414 -82q-74 -16 -106 -16q-81 0 -141 48.5t-117 164.5q-62 118 -62 159q0 66 111 66q583 0 950 127
q29 16 74 16q96 0 237 -180q111 -134 111 -221q0 -59 -74 -242q-72 -202 -167.5 -517t-184 -645.5t-143.5 -569.5q-11 -107 -28 -145t-59.5 -47t-162.5 -9z" />
    <glyph glyph-name="eight" unicode="8" horiz-adv-x="1790" 
d="M1585 901q53 -140 53 -266q0 -173 -89.5 -302t-245.5 -255q-80 -46 -178.5 -68t-309.5 -22q-116 0 -260 78.5t-259.5 200t-160.5 241.5q-37 114 -37 217q0 356 414 643q66 54 66 74t-33 41q-77 63 -144 165t-98 183q-45 121 -45 229q0 154 76.5 276.5t211.5 191.5t298 69
l8 4q364 0 676 -172q98 -68 98 -115q0 -25 -37 -90q-69 -82 -69 -123q0 -44 65 -86q27 -22 74 -135q29 -67 29 -94q0 -51 -63 -120.5t-269 -256.5q-70 -45 -70 -66q0 -14 37 -45q190 -201 262 -397zM578 467q18 -52 45 -67t102 -15q74 0 190.5 65t204.5 160.5t88 184.5
q0 19 -8 53q-13 50 -115 160q-80 86 -135 86q-60 0 -123 -95q-98 -108 -178 -249t-80 -234q0 -20 9 -49zM1294 2032q29 33 29 69q0 78 -201 78q-215 0 -290 -15.5t-127 -90.5q-29 -49 -29 -91q0 -61 74 -139q48 -56 115.5 -105.5t101.5 -49.5q44 0 140 98t187 246z" />
    <glyph glyph-name="nine" unicode="9" horiz-adv-x="1671" 
d="M1085 1618v20q0 128 -20.5 272t-44.5 220q-57 151 -168 151q-77 0 -135 -81q-172 -231 -172 -500q0 -88 24 -156q20 -53 49 -71.5t132 -18.5q116 0 220 43t115 121zM1470 1987q91 -252 91 -517q0 -302 -108 -590t-271 -513t-330 -359q-55 -65 -139 -65q-37 0 -119 16
q-154 66 -197 87.5t-63 46.5t-43 83q0 6 -4 19t-4 18q0 74 139 123q161 106 276.5 246t259.5 401q21 40 21 61q0 37 -61 37q-35 0 -91 -12q-48 -8 -73 -8q-211 0 -385.5 172t-245.5 364q-57 154 -57 320q0 209 93 380.5t236 270t281 98.5l8 5h4q123 0 274.5 -77t290.5 -232
t217 -375z" />
    <glyph glyph-name="colon" unicode=":" horiz-adv-x="815" 
d="M705 1417q-21 -60 -21 -102q0 -30 21 -221q0 -50 -58 -50q-44 0 -180 64.5t-205 132.5q-74 50 -74 242q0 16 4.5 51t4.5 63q6 111 77 111q86 0 332 -123q60 -38 79.5 -69t19.5 -82v-17zM647 49q0 -49 -61 -49q-45 4 -179.5 66.5t-205.5 130.5q-70 53 -70 237q0 15 2 55
t2 64q0 111 78 111q88 0 332 -119q98 -67 98 -144v-28q-20 -42 -20 -82q0 -45 24 -242z" />
    <glyph glyph-name="semicolon" unicode=";" horiz-adv-x="778" 
d="M483 524q62 -32 78.5 -47t32.5 -63q33 -96 33 -209q0 -119 -41 -189q-47 -81 -98 -126.5t-148 -45.5q-25 0 -30.5 5t-14.5 36q0 2 -2 7t-2 6q0 15 18.5 42.5t18.5 34.5v5q0 79 -74 131q-95 51 -119 102t-37 164q0 7 -2 30t-2 35q0 94 17 115q36 74 82 74q53 0 290 -107z
M221 1225q-69 52 -69 241q0 12 4 53t4 66q0 111 78 111q85 0 331 -123q58 -39 78.5 -71t20.5 -85v-12q-25 -48 -25 -90q0 3 25 -234q0 -49 -58 -49q-44 0 -178.5 62t-210.5 131z" />
    <glyph glyph-name="less" unicode="&#x3c;" horiz-adv-x="2159" 
d="M2007 1749q4 -8 4 -29q0 -64 -278 -110q-309 -50 -560.5 -134t-480.5 -186q-57 -21 -57 -49q0 -73 336 -197q40 -14 294 -107t344 -125t152 -50q134 -39 185.5 -71t75 -81.5t79.5 -212.5v-32q0 -62 -94 -62q-102 0 -225 49q-184 90 -379.5 169t-312.5 121t-306 107
t-264 95q-133 55 -203 99.5t-104.5 89t-64 129t-33.5 95.5q-21 66 -21 103q0 90 90 135q303 174 684 293.5t795 173.5q13 0 39 4t39 4q128 0 266 -221z" />
    <glyph glyph-name="equal" unicode="=" horiz-adv-x="2077" 
d="M1712 1810q103 -38 143 -78.5t46 -105.5v-37q0 -155 -148 -155q-5 0 -23 4t-26 4q-343 41 -696 41h-127q-151 -5 -234.5 -20t-234.5 -49t-211 -34h-17q-114 0 -114 140q0 29 8 77q9 159 115 197q154 56 398.5 81.5t399.5 25.5h62q408 0 659 -91zM1794 983
q69 -18 118.5 -80t69.5 -100q-12 -57 -20.5 -98.5t-16.5 -68.5t-17.5 -36.5t-26.5 -9.5q-5 0 -111 24q-162 33 -422 33q-75 0 -217 -5.5t-184 -6.5q-188 -10 -289.5 -32.5t-192.5 -52.5t-145 -30l-4 4q-73 3 -126.5 65t-53.5 140q0 6 2 21t2 20q0 156 114 197q215 77 709 77
h152q444 0 659 -61z" />
    <glyph glyph-name="greater" unicode="&#x3e;" horiz-adv-x="2159" 
d="M238 422q0 5 -4.5 11.5t-4.5 8.5q0 86 205 148q200 58 617 167t542 152q86 31 86 66q0 60 -172 119q-140 53 -330 127t-299 116.5t-274.5 101t-218.5 68.5q-369 69 -369 262q0 33 9 62q32 147 118 147q37 0 164 -49q343 -140 516.5 -214t378 -169t473.5 -231
q162 -78 246 -138.5t113 -118.5t39 -157v-61q0 -166 -70 -176q-193 -39 -410.5 -98.5t-618.5 -182t-478 -145.5q-9 0 -23 -4.5t-22 -4.5q-63 0 -120.5 49t-92.5 144z" />
    <glyph glyph-name="question" unicode="?" horiz-adv-x="1389" 
d="M471 1393q35 105 130.5 309.5t126 275t50.5 172.5v33q0 55 -34.5 85t-92.5 30q-101 0 -213 -74q-53 -33 -110 -33q-159 0 -295 254q-33 49 -33 82q0 38 82 70q226 90 414 90q172 0 320.5 -65.5t258 -187.5t170.5 -288q21 -72 21 -135q0 -310 -328 -704q-33 -28 -33 -50
t86 -57q148 -68 148 -139q0 -50 -74 -111q-141 -135 -242 -135q-58 0 -176 66q-217 135 -217 307q0 53 41 205zM500 586q13 69 78 69q70 0 270 -98q93 -58 116.5 -85.5t30.5 -74.5q-20 -60 -20 -118q0 -24 16 -132v-61q0 -86 -45 -86q-36 0 -168 57q-222 80 -258 193
q-28 93 -28 176q0 28 8 160z" />
    <glyph glyph-name="at" unicode="@" horiz-adv-x="2241" 
d="M1688 2265q-24 285 -209 336q-50 8 -82 8q-152 0 -365 -188q-153 -139 -206 -201.5t-101 -179.5q-184 -428 -184 -799q0 -227 77 -436.5t173 -337.5q101 -123 262 -123q199 0 463 180q30 21 57 21q41 0 65 -78q17 -48 17 -123q0 -282 -508 -356q-9 0 -28 -2t-29 -2
q-14 0 -46 2t-49 2q-156 16 -322 134t-294.5 297t-177.5 367q-66 246 -66 529q0 325 82 606q131 428 451 680q295 239 585 274q83 9 111 9q227 0 401 -119q122 -86 196.5 -271t74.5 -368q0 -41 -8 -107q-33 -254 -33 -487q0 -377 78 -598q36 -110 36 -143q0 -58 -53 -58
q-266 0 -303 107q-42 135 -61 135q-14 0 -29 -21q-127 -139 -320 -139q-130 0 -242 78.5t-163 220.5q-57 169 -57 320q0 212 105 418t325 364q106 74 147 74q29 0 37 -9q129 -90 156 -90q32 0 32 62q0 2 2 6zM1630 1352q-3 59 -7.5 120.5t-4.5 116.5q0 128 24 271v20
q0 22 -13 42t-36 20q-16 0 -53 -21q-140 -102 -219.5 -287.5t-79.5 -347.5q0 -59 21 -127q12 -47 51.5 -83t79.5 -36q4 0 15 2t13 2q54 33 124.5 130t84.5 178z" />
    <glyph glyph-name="A" unicode="A" 
d="M94 700q-134 121 -180 308q57 65 151.5 90t131 50.5t57.5 141.5q103 410 176.5 640.5t135.5 321.5t139 91q62 0 135 -37l-74 217l-8 15t-8 22q0 41 77 41h21q163 -11 264 -106t188 -361t182.5 -773.5t237.5 -1421.5q-13 -33 -94 -33q-107 0 -257.5 48.5t-176.5 94.5
q-23 393 -70 684q-6 43 -14 56.5t-35 13.5q-3 0 -15 -2t-22 -2l-323 -37q-47 -6 -63 -17.5t-19 -44.5q-45 -262 -62 -643q-6 -57 -94 -57q-72 0 -174.5 44.5t-181.5 111.5q-40 35 -45 77q0 31 -2 84t-2 76q0 154 24 307zM729 1217q0 -41 41 -41h295q-28 236 -115 626
q-7 29 -28 29q-13 0 -17 -12q-68 -109 -115.5 -281.5t-60.5 -320.5z" />
    <glyph glyph-name="B" unicode="B" 
d="M299 1995v8q0 39 -49 45q-83 6 -141 57t-117 185q-33 83 -33 131q0 56 53 86q336 155 647 155q263 0 477 -107t333.5 -285t119.5 -378q0 -285 -225 -516q-21 -21 -21 -24q0 -13 33 -33q119 -95 180.5 -239t61.5 -302q0 -292 -172 -491q-248 -291 -418 -291
q-135 0 -299 151q-21 17 -41 17q-11 0 -16 -17l-45 -127q-7 -20 -33 -20q-13 0 -29 8q-159 53 -295 180q-18 16 -45.5 53.5t-27.5 86.5q0 1 2 8t2 12q18 144 40 441t37.5 622t20.5 584zM868 1581q148 86 234 211.5t86 226.5q0 37 -4 49q-48 144 -226 144q-39 0 -270 -41
q70 -160 70 -426v-94q0 -1 -2 -9t-2 -12q0 -69 53 -69q11 0 61 20zM803 1176q-61 -6 -66 -54l-49 -544q25 -119 119 -119q73 0 159.5 73t145.5 187.5t59 230.5q0 12 -2 31t-2 27q-63 172 -262 172q-16 0 -49 -2t-53 -2z" />
    <glyph glyph-name="C" unicode="C" horiz-adv-x="1671" 
d="M696 487q44 -86 99 -86q53 0 113 65.5t108 171t65 214.5q24 168 144 168q50 0 104.5 -33.5t87.5 -85.5q90 -133 90 -258q0 -131 -102 -324q-69 -132 -178 -222.5t-203 -96.5h-41q-435 0 -684.5 353t-249.5 933q0 109 17 287q42 251 135.5 456t220.5 346.5t273 216
t288 74.5q94 0 193 -32q97 -37 188 -144.5t146 -239t55 -239.5q0 -99 -51.5 -158t-153.5 -59q-53 0 -119 21q-106 20 -106 86l4 8q0 344 -115 344q3 0 -45 -12q-189 -141 -299.5 -458.5t-110.5 -664.5q0 -365 127 -631z" />
    <glyph glyph-name="D" unicode="D" horiz-adv-x="1794" 
d="M692 2040q78 -342 78 -627q0 -97 -8 -194.5t-21 -201.5t-28 -214t-33 -238q30 -12 65 -12q123 0 238.5 142.5t186.5 375t71 477.5q0 194 -41 344q-44 127 -143.5 192.5t-196.5 65.5q-176 0 -176 -69q0 -9 8 -41zM-12 2535q289 115 569 115q237 0 445.5 -94.5t377 -282.5
t287.5 -463q53 -228 53 -458q0 -381 -140 -695t-347.5 -493.5t-392.5 -179.5q-97 0 -172 57q-35 20 -54 20q-15 0 -69 -41q-22 -20 -49 -20q-31 0 -107 45q-115 75 -201 162t-86 153q0 15 13 41q96 524 136 793.5t40 493.5q0 191 -29 344q0 21 -23.5 43t-58.5 22h-4
q-72 0 -111 20t-69.5 75.5t-81.5 187.5q-20 55 -20 74q0 43 94 81z" />
    <glyph glyph-name="E" unicode="E" horiz-adv-x="1548" 
d="M1331 2204h-106q-160 0 -254 -17q-57 0 -77.5 -12.5t-37.5 -56.5q-73 -241 -90 -521q0 -49 53 -49q148 8 180 8q120 0 182 -23.5t97.5 -80t77.5 -178.5v-8q0 -68 -155.5 -89.5t-405.5 -21.5q-40 0 -50 -41q-28 -163 -28 -455q0 -24 2 -81t2 -86q6 -66 94 -66q80 0 447 86
q50 25 102 25q84 0 140.5 -71t56.5 -155q0 -99 -74 -139q-133 -58 -332.5 -115t-380.5 -57q-300 0 -409 176q-73 62 -114.5 276t-41.5 502q0 284 39.5 563t111.5 465v13q0 34 -20 41q-65 55 -135 174t-70 198q0 30 12 50q67 137 775 143q86 0 123 -8.5t106 -52.5
q137 -88 221 -201q45 -74 45 -103q0 -32 -53 -32h-33z" />
    <glyph glyph-name="F" unicode="F" horiz-adv-x="1389" 
d="M709 57q0 -45 -33 -45q-9 0 -110 31t-185 31h-25q-70 6 -119 57.5t-49 118.5q0 2 2.5 7t2.5 9l45 844q-136 196 -136 270q0 85 172 115l17 508q0 26 -29 37q-52 21 -86 55.5t-61.5 88t-49.5 116.5t-45 133q0 1 -2 8t-2 13q0 155 848 208q178 0 298.5 -95.5t144.5 -264.5
v-29q0 -45 -95 -45l-344 -12h-20q-83 0 -109 -9.5t-26 -56.5q0 -17 8 -73q33 -157 33 -336q0 -94 -4 -144v-24q0 -41 29.5 -51.5t92.5 -10.5l320 17q56 -26 103.5 -96.5t47.5 -141.5q0 -86 -81 -139l-525 -25z" />
    <glyph glyph-name="G" unicode="G" horiz-adv-x="1790" 
d="M1081 852q0 41 -24 41q-78 22 -111 40t-61.5 78.5t-65.5 205.5q-8 32 -8 40q0 39 78 58q208 44 606 82q38 0 83.5 -23.5t59.5 -58.5q74 -202 74 -254q0 -47 -36 -66t-140 -37q-45 -6 -45 -28q0 -1 2 -9t2 -16q66 -177 66 -250q0 -66 -33 -131t-123 -205
q-80 -135 -184.5 -224t-196.5 -95h-41q-435 0 -684.5 353t-249.5 933q0 109 17 287q42 251 135.5 456t220.5 346.5t273 216t288 74.5q94 0 193 -32q97 -37 188 -144.5t146 -239t55 -239.5q0 -99 -51.5 -158t-153.5 -59q-53 0 -119 21q-106 20 -106 86l4 8q0 344 -115 344
q3 0 -45 -12q-189 -141 -299.5 -458.5t-110.5 -664.5q0 -365 127 -631q44 -86 99 -86q53 0 113 65.5t108 171t65 214.5z" />
    <glyph glyph-name="H" unicode="H" horiz-adv-x="1790" 
d="M1188 2236q0 5 -2 14t-2 15q0 291 123 291t299 -299q32 -60 32 -143q0 -43 -14 -113t-14 -88q0 -2 2 -6t2 -6q-25 -132 -45.5 -394t-20.5 -540q0 -543 78 -856q21 -101 21 -140q0 -57 -50 -57q-39 0 -159 57q-154 70 -222 126t-95 156.5t-27 303.5q0 82 8 410q8 32 8 90
q0 135 -139 135q-51 0 -193 -25q-94 -3 -127 -40t-33 -140q0 -33 14.5 -242t14.5 -413v-78q0 -49 6 -116t6 -81q0 -57 -32 -57q-211 37 -301.5 80t-128 151t-37.5 342q0 152 4 234q8 58 8 74q0 44 -22.5 77.5t-96.5 114.5q-4 29 -19.5 56.5t-50 79.5t-50 82t-15.5 52
q0 53 74 70q107 16 146 38.5t52 81t24 277t19 324.5q8 56 16.5 208t28.5 220t74 68q40 0 103 -37q145 -128 195 -197.5t50 -134.5q0 -24 -14 -114t-14 -169q-37 -346 -37 -340q0 -66 24 -92t82 -26q35 0 140.5 15t158.5 21q34 8 49.5 27t26 73.5t27.5 199.5t45 380z" />
    <glyph glyph-name="I" unicode="I" horiz-adv-x="897" 
d="M676 168q4 -33 7 -53t5 -33v-12q0 -70 -86 -70q-21 0 -45 8q-74 0 -164 58q10 0 -98 65q-117 72 -123 152q0 90 -2 251t-2 232q0 320 7 567.5t21 497.5t25 422.5t17 306.5q0 78 65 78q75 0 262 -115q76 -60 110 -112.5t34 -133.5v-24q-34 -267 -52 -500t-18 -565
q0 -427 37 -1020z" />
    <glyph glyph-name="J" unicode="J" horiz-adv-x="1470" 
d="M246 1024h20q71 0 94 -36t37 -132q0 -22 10.5 -127.5t10.5 -130.5q11 -221 90 -221q38 0 90 65q128 123 187 461t59 809q0 369 -33 795q2 12 4 35t4 34q11 34 70 41q49 0 106 -37q9 -5 30 -16.5l42 -23t31 -17.5q23 -19 50 -39.5t32 -25.5q94 -102 106 -185
q29 -454 29 -725q0 -668 -106.5 -1024.5t-262.5 -429.5q-83 -62 -180 -94h-209q-90 0 -256 97.5t-203 172.5q-93 181 -127 369q-20 150 -20 209q0 76 28.5 110.5t84 45.5t182.5 20z" />
    <glyph glyph-name="K" unicode="K" horiz-adv-x="1872" 
d="M1110 1188q129 -173 356 -524q178 -286 496 -619q37 -37 37 -53q0 -19 -49 -37q-127 -86 -238 -86q-100 0 -188 61q-127 82 -364 457.5t-382 685.5q-10 12 -29 30.5t-32 18.5q-21 0 -21 -41l-57 -1036v-4q0 -49 -82 -49q-56 0 -147 28q-114 19 -163 38t-72 68.5
t-23 152.5q0 37 8 143q81 650 102 2019q5 127 66 127q12 0 78 -16q105 -40 229 -111q57 -35 68 -53.5t14 -73.5l-17 -663v-25q0 -28 14.5 -46.5t30.5 -18.5q24 0 46 20q93 87 173 192.5t140.5 215t115 229.5t140.5 322q2 9 11.5 22.5t33.5 13.5q47 0 102 -45
q111 -99 150 -149.5t39 -112.5q0 -6 -2.5 -25t-5 -34.5t-5.5 -34.5q-80 -263 -252 -560.5t-296 -324.5q-54 -12 -54 -41q0 -8 29 -61z" />
    <glyph glyph-name="L" unicode="L" horiz-adv-x="1343" 
d="M958 33q-43 -8 -129 -20.5t-161 -12.5q-12 0 -32 2t-26 2q-25 3 -106.5 54t-130.5 85q-44 38 -74 82.5t-49 88t-29 77t-16 55.5q-33 136 -33 242q12 315 32 585t51.5 569.5t80.5 668.5q7 12 23 30.5t34 18.5q53 0 86 -20q56 -35 99 -54q66 -23 98 -69q2 -9 36.5 -43.5
t37.5 -42.5q2 0 24 -78q2 -17 3 -77.5t1 -94.5q-72 -526 -101.5 -814.5t-29.5 -570.5q0 -25 2 -71t2 -68q2 -2 8 -44.5t9 -70.5q0 -57 49 -57q34 0 94 21q81 41 131 49q99 21 197 65q56 21 86 21q119 0 168 -152q12 -36 12 -82q0 -192 -447 -274z" />
    <glyph glyph-name="M" unicode="M" horiz-adv-x="2523" 
d="M590 340v-78q0 -262 -123 -262h-12q-85 0 -217 127q-140 114 -140 328q0 13 2 42t2 44q24 101 52 357t53.5 435.5t90 436t173.5 520.5q0 3 2 12t2 16q0 31 -45 140q-65 158 -65 176q0 32 69 32h62q226 -8 335 -149.5t177 -378.5q59 -181 90.5 -318.5t89.5 -410.5
q13 -176 53 -176t78 209q119 555 450 1048q51 70 107 70q72 0 213 -111q161 -100 184 -311q0 -51 -2 -152t-2 -147q0 -281 10 -523.5t33.5 -471.5t63.5 -447t94 -405q4 -8 10 -26t6 -36q0 -13 -12 -27t-33 -14q-49 0 -209 82q-120 47 -158.5 65.5t-55.5 46.5t-36 101
q-57 279 -82.5 583.5t-31.5 743.5q0 144 -41 144q-46 0 -86 -135q-223 -722 -238 -1299q0 -98 -57 -98q-40 0 -135 45q-118 56 -162 87.5t-65 75t-60 165.5l-258 1028q-45 164 -70 164q-27 0 -41 -136q-7 -97 -27.5 -330t-31 -403t-10.5 -323q0 -28 2 -79t2 -77z" />
    <glyph glyph-name="N" unicode="N" horiz-adv-x="1872" 
d="M1262 2490q11 111 53 111q37 0 106 -41q186 -142 244.5 -206.5t58.5 -137.5q0 -38 -12 -82q-82 -596 -82 -1176q0 -518 58 -892q8 -66 8 -86q0 -62 -33 -62q-29 0 -94 37q-158 72 -215 116.5t-84 112.5q-98 251 -275 636.5t-295 600.5q-36 74 -61 74q-16 0 -16 -49
q0 -3 1.5 -6.5t2.5 -5.5q9 -158 14 -487t10 -487t25 -276q0 -188 -53 -188q-31 0 -123 53q-185 129 -250.5 214t-65.5 216q0 4 2 17t2 16v41q0 149 4 264.5t17 393.5t18.5 428.5t5.5 281.5v139q5 29 5 78q0 63 -82 266q-86 190 -86 222q0 45 90 45h41q171 -19 231 -34.5
t97.5 -58.5t97.5 -165q142 -266 338.5 -660t218.5 -450q29 -91 53 -91q16 0 16 54q-16 426 -16 610q0 301 25 614z" />
    <glyph glyph-name="O" unicode="O" 
d="M1077 1937v-4q-7 44 -89 135t-140 91q-40 0 -57 -45q-109 -180 -169.5 -441t-60.5 -518q0 -385 119 -623q49 -139 135 -139q54 0 114.5 67t102.5 175q127 377 127 745q0 291 -82 557zM791 2589q-118 110 -173 110q-67 0 -188 -176q-119 -147 -201.5 -339t-122.5 -397
t-40 -407q0 -140 28 -319q31 -323 179 -571t395 -400q179 -106 290 -106q93 0 205 57q170 122 281.5 293t163 372t51.5 420q0 328 -110 667.5t-296 610.5q-76 95 -131 95q-22 0 -90 -33q-50 -25 -61 -25q-39 0 -180 148z" />
    <glyph glyph-name="P" unicode="P" horiz-adv-x="1712" 
d="M238 303q0 126 -2.5 260t-2.5 199q0 368 20.5 635.5t70.5 552.5v57q0 51 -26.5 99.5t-117.5 162.5q-57 85 -57 115q0 48 65 78q297 127 557 127q226 0 417 -85t318 -219t175 -274q33 -95 33 -209q0 -310 -336 -696q-221 -246 -332 -246q-71 0 -152 86q-84 98 -114 98
q-29 0 -29 -73q0 -364 12 -918q0 -73 -61 -73q-39 0 -164 53q-174 24 -224 73.5t-50 155.5v41zM893 2105q-82 -6 -99.5 -18t-23.5 -76v-74q0 -66 -20 -147q-45 -236 -45 -307q0 -135 73 -135t258 159q221 268 221 426q0 88 -67.5 134.5t-185.5 46.5q-28 0 -111 -9z" />
    <glyph glyph-name="Q" unicode="Q" horiz-adv-x="1790" 
d="M1528 -131q-159 229 -221 229q-17 0 -25 -4q-145 -94 -299 -94q-203 0 -414 160q-133 80 -245.5 254.5t-177 406t-64.5 477.5q0 399 180 759.5t553 592.5q55 21 78 21q90 0 192 -86q172 -134 172 -185q0 -27 -81 -73q-37 -28 -37 -50q0 -25 65 -61q124 -62 169 -96.5
t69 -104.5q209 -431 209 -827q0 -268 -99 -570q-41 -84 -41 -118q0 -39 22.5 -65.5t104.5 -106.5q142 -145 190 -207.5t48 -112.5q0 -37 -82 -168q-51 -65 -123 -65q-77 0 -143 94zM729 504q28 -78 94 -78q72 0 123 70q41 74 41 102q0 43 -106 193q-50 126 -50 151
q0 40 47 62.5t166 44.5q89 34 106 46t26 48q20 102 20 196q0 255 -164 697q-34 78 -82 78q-5 0 -41 -17q-107 -72 -184 -219t-116.5 -334.5t-39.5 -380.5q0 -194 42 -373t118 -286z" />
    <glyph glyph-name="R" unicode="R" horiz-adv-x="1876" 
d="M1982 41q5 -7 13 -23t8 -38q0 -85 -107 -115q-171 -62 -233 -62q-64 0 -114.5 41.5t-143.5 159.5q-439 570 -578 938q-56 168 -106 168q-41 0 -41 -115l8 -762v-106q0 -127 -65 -127q-31 0 -193 45q-163 70 -210.5 142t-47.5 210q0 11 2 35t2 35q10 701 98 1413
q17 55 17 102q0 8 -2 21t-2 16q-21 27 -78.5 105t-106.5 165t-49 148q0 52 37 74q218 115 520 115q209 0 412.5 -63t363.5 -202t236 -350q20 -51 20 -135q0 -271 -450 -561q-13 -10 -45 -30t-40.5 -26.5t-8.5 -17.5q0 -14 53 -106q137 -237 346.5 -510t484.5 -584zM709 2105
q4 -28 4 -147q0 -127 -8 -143q-2 -21 -5 -51.5t-5.5 -62.5t-2.5 -46q0 -135 62 -135q46 0 135 69q328 241 328 418q0 73 -71.5 120.5t-187.5 47.5h-16q-5 0 -14 -2t-10 -2q-30 0 -80 2t-64 2q-69 0 -69 -53q0 -1 2 -6t2 -11z" />
    <glyph glyph-name="S" unicode="S" horiz-adv-x="1589" 
d="M184 557q37 61 78 61q69 0 201 -155q51 -70 131 -70q84 0 182 65.5t165 157t67 162.5q0 33 -4 41q-43 110 -242 225q-334 195 -565 463q-123 148 -123 348q0 204 119 386q223 321 593 385q82 8 132 8q137 0 255 -44t195 -124q98 -104 98 -254q0 -193 -176 -410
q-11 0 -38 -2t-40 -2q-294 0 -294 139q0 33 40 99q50 112 50 151q0 58 -54 58q-63 0 -209 -78q-166 -90 -217 -266q-16 -66 -16 -91q0 -61 45.5 -117t155.5 -132q397 -269 540 -394q86 -72 111.5 -125.5t73.5 -197.5q24 -79 24 -168q0 -167 -98.5 -324t-278.5 -270
q-154 -98 -393 -98q-156 0 -258 45q-158 82 -228.5 155t-70.5 172q0 71 49 201z" />
    <glyph glyph-name="T" unicode="T" horiz-adv-x="1466" 
d="M1126 2638h21q107 0 207 -99t137 -204q8 -42 8 -58q0 -61 -115 -61q-120 -6 -203.5 -11t-112 -10.5t-36.5 -16.5t-8 -40q-82 -622 -82 -1233q0 -178 5 -316.5t10.5 -245.5t9.5 -191q-7 -79 -21 -119.5t-53 -40.5q-25 0 -90 28q-127 61 -195 103.5t-106.5 105t-38.5 160.5
q0 29 8 103q21 786 57 1355q21 126 21 185q0 102 -82 102q-66 0 -152 -29q-80 -20 -94 -20q-86 0 -150.5 57.5t-90.5 134.5q-25 79 -25 107q0 96 90 127q427 127 1008 127h73z" />
    <glyph glyph-name="U" unicode="U" horiz-adv-x="1790" 
d="M643 713q31 -258 160 -258q68 0 148 82t147 229q123 282 123 950q0 400 -41 795q0 7 -2 17t-2 12q0 77 73 77q74 0 160 -69q81 -50 131.5 -120.5t83 -182t55.5 -291.5q4 -86 4 -266q0 -1129 -421 -1590q-144 -118 -320 -118q-196 0 -385 144.5t-311 410.5t-123 600
q-25 323 -25 426q0 359 90 864q7 180 185 180q89 0 184 -45q54 -17 78 -68.5t24 -107.5v-53q-57 -556 -57 -967q0 -374 41 -651z" />
    <glyph glyph-name="V" unicode="V" horiz-adv-x="1667" 
d="M635 98q-80 53 -117 105t-49 99t-39 194q-59 244 -114.5 512t-104 545t-82.5 500t-59 384q-25 87 -25 115q0 90 127 90q116 0 222 -66.5t188 -314.5q100 -563 151 -1294q6 -168 33 -168q15 0 49 49q61 127 138.5 416t136.5 626.5t69 599.5q0 148 53 148q39 0 103 -41
q157 -112 234 -201.5t77 -204.5q0 -8 -2 -22t-2 -23q-166 -1191 -664 -2048q-51 -98 -102 -98q-48 0 -221 98z" />
    <glyph glyph-name="W" unicode="W" horiz-adv-x="2605" 
d="M1921 -29q-100 41 -151.5 81.5t-102.5 149t-108 325t-146 636.5q-26 115 -78 115t-69 -172q-23 -86 -80.5 -325.5t-94 -384t-67.5 -236.5q-32 -87 -56.5 -123.5t-62.5 -36.5q-46 0 -229 106q-86 45 -116 68t-47.5 59t-49.5 132q-70 314 -135 624.5t-126 613t-102.5 514.5
t-87.5 451q0 6 -2 18t-2 15q0 86 103 86q72 0 229 -57q90 -40 129 -84t52.5 -109.5t27.5 -224.5q37 -377 168 -1192q6 -111 41 -111q37 0 49 99q129 445 203.5 771t74.5 617q0 103 -4 148q0 2 -2 6t-2 6q0 46 35 76t88 30q114 0 234 -98q68 -53 83.5 -87.5t30.5 -154.5
q217 -1080 258 -1253q16 -127 62 -127q53 0 53 184v41q32 241 50 401t36.5 379.5t40.5 583.5q6 119 90 119q79 0 270 -110q86 -55 115 -91.5t29 -113.5q0 -58 -29 -275q-57 -368 -105 -658t-78.5 -458.5t-61.5 -348t-58 -349.5q-12 -174 -45.5 -243t-101.5 -69
q-39 0 -152 37z" />
    <glyph glyph-name="X" unicode="X" horiz-adv-x="1671" 
d="M541 1434q8 24 8 41q0 20 -4 28q-97 206 -463 815q-33 68 -33 103q0 75 119 172q92 69 151 69q61 0 152 -106q168 -277 279 -524q56 -115 86 -115q27 0 57 53q183 308 442 586q35 33 58 33q45 0 110 -107q90 -153 90 -266q0 -66 -28 -94q-251 -289 -447 -627
q-24 -30 -24 -61q0 -19 12 -37q197 -368 333.5 -652t207.5 -528q8 -40 8 -61q0 -56 -37.5 -89t-192.5 -137q-18 -12 -49 -12q-37 0 -75 23t-56 47q-124 299 -344 856q-57 143 -90 143q-22 0 -41 -45q-236 -465 -328 -856q-19 -78 -53 -78q-22 0 -74 33q-303 212 -303 377
q0 53 37 151q176 405 492 865z" />
    <glyph glyph-name="Y" unicode="Y" horiz-adv-x="1671" 
d="M1233 2482q21 123 115 123q64 0 122 -45q61 -40 121 -157t60 -236v-17q-78 -398 -248.5 -837.5t-328 -761t-259.5 -506.5q-59 -97 -97 -138.5t-79 -41.5t-131 65q-234 170 -234 271q0 34 41 78q247 291 414 626q12 25 12 53q0 61 -82 78q-115 30 -211.5 195t-190 462.5
t-216.5 788.5q-5 26 -13 52.5t-8 37.5q0 45 70 45h21q227 -80 310 -117.5t110 -77t42 -128.5q34 -355 209 -819q30 -82 111 -82q49 0 65 32q92 240 147.5 463t127.5 594z" />
    <glyph glyph-name="Z" unicode="Z" horiz-adv-x="1671" 
d="M827 492q135 33 323.5 49t307.5 16h12q104 0 156 -45q78 -72 82 -131v-16q0 -90 -42.5 -174.5t-154.5 -84.5h-184q-249 0 -395 -18t-412 -80q-74 -8 -86 -8q-43 0 -123 70q-88 61 -131 131q-139 155 -139 282q0 38 20 78l893 1561q0 1 2 6t2 10q0 18 -19 35.5t-46 17.5
h-12q-203 -23 -541 -118q-73 0 -93 11.5t-63 74.5q-110 166 -110 245q0 73 86 103q424 119 848 119h94q142 -10 188 -37q74 -45 152 -165t78 -204q0 -33 -9 -45q-76 -152 -230.5 -441t-227.5 -429t-170 -340.5t-178 -399.5q-13 -52 -13 -53q0 -37 45 -37q30 0 90 17z" />
    <glyph glyph-name="bracketleft" unicode="[" horiz-adv-x="1507" 
d="M274 2535q-55 23 -75.5 58t-38.5 135v12q0 76 139 123q6 40 30 69t52 29q52 0 82 -65q94 19 187.5 29.5t194 18t154.5 13.5q181 0 302 -95.5t145 -264.5v-29q0 -45 -90 -45l-369 12q-40 0 -97.5 2.5t-98.5 2.5q-154 0 -259 -17q0 -64 -4 -228t-4 -259v-725q0 -18 -2 -62
t-2 -65q0 -92 4 -293t4 -297q0 -122 -8 -320q-8 -162 -8 -241q0 -146 15.5 -357t17.5 -294q116 18 259 30.5t195 18.5q184 0 300 -84.5t139 -251.5v-25q0 -45 -95 -45l-319 12q-82 0 -434 -28q0 -75 -47 -130t-88 -55h-4q-100 19 -132 111q-66 9 -106 78q-37 60 -61 213
q0 3 -2.5 8.5t-2.5 7.5q0 54 86 82q2 144 3.5 420.5t2.5 426t3 349.5q2 240 2.5 415t1.5 405t4 348q16 644 24 847z" />
    <glyph glyph-name="backslash" unicode="\" horiz-adv-x="1913" 
d="M2007 -1065q-33 -22 -94 -56t-98 -34q-6 0 -13 2t-8 2q-66 7 -124.5 102t-84.5 156q-38 82 -143.5 303.5t-186 386t-147 302t-162.5 339.5q-77 171 -156.5 342t-201 434.5t-129.5 280.5q-66 149 -171 380.5t-170.5 379.5t-125.5 297q-25 60 -25 106q0 107 103 107
q62 0 143 -53q74 -57 119 -147.5t61 -139.5q38 -91 98.5 -228t129 -287t140 -305.5t169.5 -371.5q71 -162 118 -270t102 -232t113.5 -252.5t92.5 -204.5q86 -177 223 -436t226.5 -443.5t201.5 -459.5z" />
    <glyph glyph-name="bracketright" unicode="]" horiz-adv-x="1507" 
d="M1200 2437q0 -171 -6 -428t-6 -375q0 -102 8 -356q0 -28 2 -88t2 -88q0 -190 -20.5 -488t-20.5 -430q0 -44 -2 -124t-2 -117q0 -313 21 -676q183 -79 213 -291v-25q0 -49 -95 -49l-106 4q0 -102 -41 -102h-8q-64 16 -96.5 36t-46 40.5t-25.5 38.5q-47 0 -106 -13.5
t-116.5 -31t-128.5 -38t-124 -24.5q-37 -8 -103 -8q-97 0 -149.5 38.5t-74 86t-67.5 178.5q0 1 -2 8t-2 13q0 88 244.5 128.5t501.5 51.5q2 331 4.5 546t10 425.5t22.5 379.5q16 229 16 451q0 43 -2 140t-2 151q0 23 2 78t2 86v98q0 75 -2 238t-2 249q0 193 8 295
q-75 0 -226.5 -52t-223.5 -58q-74 -8 -103 -8q-95 0 -149.5 39.5t-77 90.5t-64.5 173q0 2 -4 8t-4 8q0 87 256 116t613 44h24q180 0 270 -66q106 -74 131 -241q0 -25 -32 -25q-8 0 -31 2t-35 2q-45 0 -45 -41z" />
    <glyph glyph-name="asciicircum" unicode="^" horiz-adv-x="1507" 
d="M467 1688q-3 -53 -50.5 -84t-105.5 -31q-44 0 -86 24q-168 110 -168 189q0 5 4.5 21.5t4.5 27.5q43 507 421 1040q33 47 57.5 62.5t82.5 15.5q20 0 118 -8q84 -12 114 -27t53 -62.5t75 -193.5q126 -332 393 -901q54 -89 54 -139q0 -49 -91 -49q-10 0 -51 3.5t-60.5 5.5
t-43.5 3q-129 19 -178.5 33t-74 49.5t-42.5 118.5q-135 398 -168 569q-6 48 -27 75.5t-43 27.5q-33 0 -45 -62q-104 -254 -143 -708z" />
    <glyph glyph-name="underscore" unicode="_" horiz-adv-x="2400" 
d="M2249 -590q110 0 207.5 -50t123.5 -138q21 -96 21 -99q0 -51 -51 -71t-187 -23q-450 -12 -1351 -12h-918q-104 0 -158.5 49t-74.5 168q0 8 -2 26t-2 23q0 127 172 127q458 8 721 8q252 0 378.5 -1t338 -2.5t408.5 -3t374 -1.5z" />
    <glyph glyph-name="grave" unicode="`" horiz-adv-x="692" 
d="M410 2900q31 -3 37 -10t12 -47v-13q0 -18 -24.5 -50.5t-24.5 -39.5l-4 -12q0 -86 77 -148q95 -67 117.5 -132.5t22.5 -194.5q0 -150 -25 -217q-46 -86 -94 -86q-53 0 -295 147q-67 42 -83 60.5t-32 78.5q-24 124 -24 185q0 179 65 295q65 94 115 139t143 45h17z" />
    <glyph glyph-name="a" unicode="a" horiz-adv-x="1548" 
d="M1061 70q-36 106 -66 106q-24 0 -61 -45q-123 -135 -291 -135q-161 0 -308.5 121.5t-215.5 320.5q-86 246 -86 443q0 514 487 852q121 90 193 90q19 0 45 -8q147 -111 180 -111q35 0 49 90q0 4 -2 16t-2 13q0 82 78 82q80 0 176 -74q100 -61 134 -96t34 -88q0 -18 -9 -68
t-12 -68q-57 -203 -57 -462q0 -486 135 -865q45 -122 45 -176q0 -69 -65 -69q-332 0 -381 131zM930 1303v16q0 32 -26.5 67t-63.5 35q-31 0 -62 -20q-151 -103 -221 -282t-70 -365q0 -155 45 -271q25 -77 78 -77q20 0 78 24q190 90 230 258q0 58 -6.5 153.5t-6.5 149.5
q0 89 25 312z" />
    <glyph glyph-name="b" unicode="b" horiz-adv-x="1548" 
d="M176 2458q-29 140 -29 168q0 53 41 53q43 0 230 -86q90 -55 121.5 -95t41.5 -128t17 -330q0 -32 -2 -85t-2 -71q0 -196 53 -196q35 0 103 61q97 61 172 61q109 0 262 -139q155 -161 246 -397q53 -158 53 -316q0 -377 -373 -868q-104 -110 -176 -110q-67 0 -254 155
q-74 58 -90 58q-31 0 -37 -74q-12 -119 -74 -119q-46 0 -164 74q-139 79 -170 129t-34 157q90 934 90 1426q0 322 -25 672zM885 1405h-4q-57 0 -138 -44t-116 -104v-139q0 -231 -49 -614q17 -53 49 -53q30 0 78 20q98 26 183 138t135 261.5t50 280.5q0 90 -16 139
q-26 83 -50.5 99t-121.5 16z" />
    <glyph glyph-name="c" unicode="c" horiz-adv-x="1303" 
d="M700 1417q-88 -112 -146 -300t-58 -359q0 -172 60 -276.5t185 -104.5t283 98q30 37 78 37q39 0 77.5 -27t49.5 -67q33 -101 33 -139q0 -94 -127 -160q-145 -131 -381 -131q-124 0 -245 49.5t-219 155.5t-155 266q-78 216 -78 438q0 248 88.5 463.5t232 343t298.5 127.5
q126 0 250.5 -67.5t201 -172.5t76.5 -211q0 -69 -33 -127q-34 -49 -67.5 -67.5t-95.5 -18.5q-77 0 -110.5 39t-61.5 154q-40 98 -82 98q-30 0 -54 -41z" />
    <glyph glyph-name="d" unicode="d" horiz-adv-x="1585" 
d="M913 1724q43 -49 58 -49q36 0 41 172q0 321 61 705q0 110 62 110q44 0 127 -57q120 -98 166.5 -158t46.5 -120q0 -10 -2.5 -25t-2.5 -25q-77 -743 -77 -1257q0 -726 139 -1069q4 -8 4 -25q0 -22 -21 -39.5t-57 -17.5h-12q-183 55 -242.5 77.5t-78.5 44t-27 66.5
q-44 136 -78 136q-19 0 -62 -41q-74 -71 -134 -111.5t-132 -40.5h-37q-139 0 -253.5 81.5t-184 183t-86.5 153.5q-70 185 -70 397q0 294 137 552t412 398q102 45 148 45q65 0 155 -86zM987 827q-4 86 -4 279v254q0 74 -53 74q-27 0 -53 -17q-194 -96 -287.5 -295t-93.5 -405
q0 -124 32 -209q24 -86 66 -86q18 0 90 41q126 82 191.5 162.5t111.5 201.5z" />
    <glyph glyph-name="e" unicode="e" horiz-adv-x="1425" 
d="M1278 406q12 -33 12 -99q0 -108 -87 -177t-204 -99.5t-204 -30.5q-230 0 -400 143t-264 402q-65 189 -65 381q0 236 86 450t245.5 346.5t368.5 132.5q89 0 197 -59t194 -148.5t117 -177.5q41 -127 41 -245q0 -189 -115 -313.5t-255 -180t-200 -55.5q-34 0 -81.5 32
t-85.5 78q-75 82 -95 82q-16 0 -16 -37q0 -44 25 -147q53 -287 237 -287q74 0 238 58q144 53 184 53q94 0 127 -102zM934 1397q-3 61 -46 100t-97 39q-65 0 -132 -74q-155 -261 -155 -401q0 -90 65 -90q81 0 242 131q85 72 98 147q25 104 25 148z" />
    <glyph glyph-name="f" unicode="f" horiz-adv-x="983" 
d="M303 2318q111 406 397 406q282 0 373 -357q12 -54 12 -126q0 -67 -12 -103q-22 -37 -115 -37q-55 0 -99 23t-44 63q0 217 -65 217q-9 0 -25 -8q-32 -22 -49.5 -56.5t-27 -78.5t-15.5 -97.5t-10 -103.5q-21 -172 -21 -229q0 -4 2 -11t2 -10q0 -45 41 -45h29q134 0 172 -12
q131 -28 201 -188q20 -48 20 -78q0 -49 -94 -49q-173 0 -299 -21h-4q-82 0 -86 -65q-29 -283 -29 -508q0 -25 2 -87t2 -93q7 -174 24 -344.5t21 -253.5q0 -64 -28 -86q-9 -9 -41 -9q-76 0 -99 21q-66 24 -221 160q-78 59 -78 254q0 5 1.5 8t2.5 4q0 36 -4 131t-4 147
q0 98 12 185q25 306 25 356v25q0 106 -12 106q-18 25 -89 81t-87 75q-25 35 -25 65q0 70 131 99q55 16 91 55t36 88q0 71 28.5 221.5t57.5 265.5z" />
    <glyph glyph-name="g" unicode="g" horiz-adv-x="1470" 
d="M672 762q40 0 82.5 50.5t70 139t27.5 199.5q0 174 -53 328q-26 69 -90 69q-52 0 -70 -49q-119 -238 -119 -450q0 -127 44.5 -207t107.5 -80zM549 -606q82 0 272 68.5t269 160.5q12 18 12 33q0 38 -78 78q-123 81 -336 127q-221 -211 -299 -389q-12 -27 -12 -29
q0 -53 102 -53q8 0 32 2t38 2zM242 774q-131 210 -131 443q0 135 43 267.5t120.5 243t171.5 181.5q58 24 66 24q32 0 90 -41q136 -96 213 -139q10 -7 34.5 -18t55.5 -11q32 0 62 17q49 16 147 53q49 12 86 12q108 0 119 -155q41 -113 41 -144q0 -35 -31 -54.5t-121 -51.5
q-41 -16 -41 -66q0 -23 21 -65q65 -170 65 -312q0 -221 -134 -370.5t-345 -149.5q-6 0 -18 2t-19 2q-123 -21 -123 -98q0 -67 122 -141t374 -125q191 -65 262 -149t135 -269q21 -53 21 -102q0 -141 -127 -258t-327 -183.5t-410 -66.5q-233 0 -412.5 89.5t-243.5 270.5
q-49 137 -49 180q0 64 54.5 134t211.5 227q45 31 45 57q0 16 -37 74q-86 114 -86 192q0 128 193 304q16 32 16 45q0 42 -114 151z" />
    <glyph glyph-name="h" unicode="h" horiz-adv-x="1548" 
d="M471 2601q109 -86 161 -145t52 -121v-17q-40 -229 -66 -536q0 -16 -2 -43t-2 -35q0 -62 17 -62q10 0 37 25q111 111 290 111q257 0 369 -320q90 -252 90 -815q0 -372 -24 -594q-20 -155 -82 -155t-254 126q-77 60 -104 95t-27 98q0 60 53 315q16 93 16 287v168
q0 194 -42.5 300t-112.5 106q-120 0 -258 -287q-37 -595 -37 -725q0 -78 8 -184q0 -16 -2 -43t-2 -35q0 -115 -41 -115q-27 0 -193 82q-128 60 -156.5 84.5t-31.5 71.5q-16 254 -16 360q0 144 11.5 324.5t35 451.5t46 549.5t46.5 656.5q11 78 82 78q74 0 139 -57z" />
    <glyph glyph-name="i" unicode="i" horiz-adv-x="733" 
d="M561 2478q127 -91 127 -180q0 -20 -8 -70q-6 -147 -21.5 -202.5t-56.5 -55.5q-31 0 -168 62q-90 21 -131.5 102t-48.5 170.5t-8 103.5q0 193 94 193q31 0 69 -20t91.5 -59.5t60.5 -43.5zM569 12v-8q0 -49 -41 -49q-51 0 -139 65q-60 52 -180 91q-82 32 -94 114
q0 14 -2 57t-2 70q0 212 18.5 488t42.5 426q11 68 15.5 182t10 166.5t27.5 109.5q1 18 15 44t55 26t98 -29q193 -90 193 -249q0 -30 -6.5 -47t-10.5 -23q-45 -479 -45 -758q0 -293 45 -676z" />
    <glyph glyph-name="j" unicode="j" horiz-adv-x="856" 
d="M418 2638q225 -105 225 -230q0 -33 -16.5 -86.5t-16.5 -76.5v-95q0 -106 -73 -106q-45 0 -152 70q-105 72 -146.5 178t-41.5 194q0 14 1.5 23.5t2.5 13.5v4q16 148 102 148q39 0 115 -37zM688 1266v-344q0 -539 -20 -829t-78 -593q-37 -258 -172 -340q-12 -12 -123 -12
t-148 12q-180 44 -180 140q0 27 14 57t39.5 69.5t49.5 77.5q99 158 140.5 404t55.5 600q13 320 13 512q0 91 -2.5 186.5t-2.5 136.5q-24 254 -24 304q0 135 65 135q67 0 242 -119q65 -54 87 -88t28.5 -89.5t15.5 -219.5z" />
    <glyph glyph-name="k" unicode="k" horiz-adv-x="1548" 
d="M573 1241q0 -61 25 -61q10 0 22.5 7.5t18.5 12.5q139 115 232 240t243 391q25 37 70 37h20q122 -26 160 -316q-42 -228 -274 -446q-94 -94 -185 -131q129 -201 293.5 -420.5t296.5 -353.5q115 -109 115 -160q0 -33 -58 -33q-25 -2 -74.5 -15.5t-88.5 -49.5
q-25 -25 -86 -25q-57 0 -81 12t-63 54q-130 142 -276.5 366t-255.5 441q-45 94 -70 94q-8 0 -16.5 -23t-8.5 -47q0 -7 2 -16t3 -13v-159q0 -131 -25 -525q-11 -102 -82 -102q-50 0 -160 61q-96 63 -135 124t-45 89q0 16 -2 49t-2 50q0 162 30 384t31 263q12 203 33 429.5
t21 373.5v110q0 159 -8.5 338.5t-8.5 247.5q0 2 -2 4t-2 4q0 74 82 74h107q45 0 94.5 -33.5t77.5 -81.5q69 -94 69 -192q0 -20 -5 -61t-7 -66q-5 -84 -11.5 -186.5t-12 -232t-5.5 -273.5q0 -36 2 -114t2 -120z" />
    <glyph glyph-name="l" unicode="l" horiz-adv-x="696" 
d="M262 139q-127 32 -127 168v21q2 92 11 642.5t24.5 851t54.5 636.5q9 184 119 184q66 0 172 -70l70 -57q45 -35 45 -135q0 -44 -6.5 -76t-10.5 -47q-22 -143 -39 -329.5t-25.5 -396.5t-8.5 -433q0 -465 41 -955v-45q0 -90 -50 -90q-16 0 -40 12q-133 78 -230 119z" />
    <glyph glyph-name="m" unicode="m" horiz-adv-x="2241" 
d="M262 1933q148 -79 191.5 -116.5t46.5 -100.5q0 -22 10.5 -41.5t26.5 -19.5q25 0 45 33q115 131 254 131q180 0 340 -234q27 -41 49 -41q16 0 49 25q143 160 307 160q136 0 259 -106t175 -255q107 -298 107 -799q0 -228 -29 -487q-23 -148 -82 -148q-21 0 -151 66
q-128 46 -168.5 82.5t-40.5 118.5q0 28 24 200q29 140 29 463q0 44 -2 132t-2 126q0 76 -48 122t-112 46q-61 0 -115.5 -47.5t-81.5 -144.5v-238q0 -401 -28 -729q-6 -176 -90 -176q-44 0 -164 65q-176 66 -176 213q0 10 4 39t4 43q45 245 45 607q0 196 -25 274
q-53 147 -143 147q-93 0 -209 -180q-33 -175 -33 -438q0 -49 17 -614q-18 -111 -62 -111q-23 0 -110 41q-176 114 -217 162t-41 145q0 12 2 51t2 64q28 252 28 520q0 189 -36 815q0 13 -2.5 26.5t-2.5 18.5q0 119 58 119q28 0 98 -29z" />
    <glyph glyph-name="n" unicode="n" horiz-adv-x="1466" 
d="M557 1188q-25 -442 -25 -721q0 -130 9 -234q8 -98 8 -118q0 -115 -74 -115q-40 0 -172 57q-128 78 -164.5 120.5t-36.5 129.5q0 11 2 34t2 36q8 154 24 393t23 399t7 314v270q0 4 -6.5 25.5t-6.5 36.5q0 81 78 81q56 0 107 -20q108 -44 132 -68.5t44 -111.5q7 -54 49 -54
q38 0 78 46q78 102 201 102q116 0 232 -94.5t191.5 -271.5t75.5 -408q0 -48 -8 -148q-20 -347 -20 -577q0 -52 4 -110l4 -58q12 -37 12 -82q0 -98 -102 -98q-35 0 -135 28q-88 38 -130 72t-60.5 97.5t-18.5 191.5q0 123 4 196q33 540 33 689q0 98 -5 110q-3 29 -41 55.5
t-86 26.5q-63 0 -124.5 -52.5t-104.5 -168.5z" />
    <glyph glyph-name="o" unicode="o" horiz-adv-x="1466" 
d="M1360 1188q41 -110 41 -279q0 -212 -76 -428.5t-221 -356.5t-338 -140q-79 0 -184.5 58.5t-204.5 158.5q-70 67 -149.5 195t-112.5 239q-54 154 -54 328q0 152 40 305t124 292.5t213 245.5q111 86 172 86q104 0 234 -204q75 -101 102 -122.5t86 -21.5q204 0 328 -356z
M610 1278q-102 -300 -102 -533q0 -158 53 -270q49 -135 135 -135q41 0 82 25q67 36 130 201t63 372q0 214 -62 385q-16 49 -51 96t-80 47q-79 0 -168 -188z" />
    <glyph glyph-name="p" unicode="p" horiz-adv-x="1548" 
d="M610 1794q11 -57 49 -57q13 0 48 12t55 12q116 0 232.5 -40t241.5 -172.5t214 -381.5q49 -140 49 -290q0 -180 -68.5 -349.5t-163 -298t-190.5 -217.5q-104 -86 -159 -86q-51 0 -127 70q-117 115 -152 115q-37 0 -37 -115v-29q-9 -152 -24 -377.5t-17 -265.5
q-5 -196 -78 -196q-35 0 -94 45q-65 56 -156 114q-90 46 -120.5 77.5t-30.5 103.5q0 20 16 126q127 639 176 1430q9 59 9 70q0 26 -45 77q-193 237 -193 324q0 69 98 107q51 21 68.5 39t17.5 63q0 40 -28 205q-2 14 -7.5 30t-5.5 23q0 49 50 49q43 0 98 -16q139 -36 179 -52
t55 -41t40 -108zM647 1282q0 -38 2 -110t2 -107q0 -99 -6 -265t-6 -222v-29q6 -156 45 -156q22 0 119 62q319 244 319 565q0 95 -28 188q-51 148 -201 148q-116 0 -246 -74z" />
    <glyph glyph-name="q" unicode="q" horiz-adv-x="1507" 
d="M954 655q0 227 54 516q24 81 24 132q0 106 -78 106q-90 0 -221 -131q-80 -78 -134.5 -213t-80.5 -276.5t-26 -239.5q0 -54 8 -86q34 -98 98 -98q120 0 356 290zM1266 1556q95 -39 131.5 -70.5t36.5 -96.5q0 -36 -29 -177q-41 -185 -71.5 -488t-30.5 -613q0 -539 102 -832
q12 -24 12 -53t-24 -29q-18 0 -78 21q-190 88 -265 135t-110 118t-35 201q0 38 25 336q0 123 -53 123q-27 0 -46 -25q-110 -102 -237 -102q-260 0 -459 414q-74 155 -74 360q0 199 68.5 403t212.5 365t354 232q170 65 213 65q41 0 68.5 -24t66.5 -78q47 -83 80 -112.5
t142 -72.5z" />
    <glyph glyph-name="r" unicode="r" horiz-adv-x="983" 
d="M225 1626q-20 88 -20 139q0 127 86 127q61 0 147 -41q56 -21 76 -37t59 -69q50 -62 78 -62q35 0 115 62q104 53 143 53q45 0 67 -47.5t44 -161.5q24 -138 24 -143q0 -42 -49 -49q-154 -13 -264.5 -54.5t-120.5 -105.5q-23 -164 -34 -326t-13.5 -349.5t-5.5 -311.5
q-7 -138 -20.5 -194t-57.5 -56q-18 0 -65 20q-71 43 -160 86q-91 62 -117 91.5t-26 93.5q0 9 2.5 33.5t5.5 48t4 41.5q37 261 69.5 620t32.5 527v65z" />
    <glyph glyph-name="s" unicode="s" horiz-adv-x="1266" 
d="M1114 762q37 -100 37 -176q0 -229 -193 -410q-89 -83 -194.5 -137.5t-181.5 -54.5h-21q-133 17 -227 51.5t-199 116.5q-102 89 -102 151q0 24 33 111q47 151 131 151q75 0 151 -135q51 -94 135 -94q124 0 267 217q24 30 24 65q0 92 -266 222q-165 78 -241 154t-115 194
q-21 60 -21 119q0 192 188 360q148 135 472 135q285 0 372 -192q37 -73 37 -131q0 -76 -70 -144q-82 -82 -135 -82q-68 0 -143 144q-60 127 -135 127q-53 0 -135 -82q-82 -95 -82 -148q0 -81 188 -176q189 -91 282.5 -164t143.5 -192z" />
    <glyph glyph-name="t" unicode="t" horiz-adv-x="938" 
d="M262 1905q0 23 -2 66t-2 61q0 160 18 223t68 63q39 0 160 -57q87 -44 119 -74.5t32 -72.5q0 -13 -5 -48.5t-7 -58.5q-29 -134 -29 -164q0 -61 58 -61q7 0 30 4t35 4q42 8 54 8q57 0 102 -40.5t127 -155.5q24 -42 24 -58q0 -49 -131 -61q-160 -10 -226 -29.5t-94 -83.5
t-28 -211q0 -75 17 -360q6 -373 65 -541q78 -144 78 -213q0 -45 -53 -45q-49 0 -115 25q-178 64 -250 120t-92.5 140.5t-30.5 296.5v143q0 241 29 553q0 9 2 22t2 15q0 51 -94 155q-94 111 -94 193q0 94 147 94q63 0 74.5 19.5t11.5 128.5z" />
    <glyph glyph-name="u" unicode="u" horiz-adv-x="1548" 
d="M1327 -82q-166 46 -202 66t-64 86q-38 86 -70 86q-24 0 -69 -45q-105 -111 -271 -111q-152 0 -291 106.5t-204 290.5q-45 117 -45 353q0 356 118 958q31 123 111 123q62 0 143 -41q107 -41 146 -70t39 -69q0 -12 -17 -99q-42 -181 -78 -455t-36 -438q0 -58 12 -118
q55 -164 127 -164q89 0 266 188q0 15 -2 54t-2 61q0 374 119 1008q24 102 61 102q31 0 156 -61q96 -49 126 -82t30 -103q0 -13 -9 -123q-82 -487 -82 -798q0 -354 107 -635q12 -25 12 -58q0 -32 -28 -32t-103 20z" />
    <glyph glyph-name="v" unicode="v" horiz-adv-x="1425" 
d="M1225 1761q155 -170 155 -254q0 -41 -4 -65q-115 -830 -516 -1372q-56 -70 -94 -70q-29 0 -168 49q-80 36 -107.5 61.5t-49.5 92t-64 252.5q-59 236 -133.5 503t-202.5 680q-45 121 -45 172q0 45 41 45q56 0 209 -57q129 -55 174.5 -82.5t67.5 -76.5t36 -156
q21 -89 64 -359.5t63 -365.5q35 -156 62 -156q24 0 53 74q128 316 217 1053q11 90 102 90q89 0 140 -58z" />
    <glyph glyph-name="w" unicode="w" horiz-adv-x="2200" 
d="M1466 852q21 -143 58 -143q49 0 86 209q80 262 147 720q28 140 135 140q89 0 181 -103q63 -79 84.5 -119.5t21.5 -97.5q0 -21 -8 -135q-58 -172 -121.5 -375.5t-120.5 -400.5t-110 -391q-51 -201 -152 -201q-38 0 -82 16q-96 43 -144 82.5t-73.5 90.5t-64.5 163
q-73 302 -104 407t-56 105q-26 0 -123 -254q-54 -108 -152 -381q-48 -103 -82 -145.5t-73 -42.5q-13 0 -103 24q-86 41 -123.5 66.5t-65 72.5t-51 125.5t-75.5 272.5q-124 561 -225 868q-78 268 -78 361q0 82 65 82q52 0 181 -53q127 -33 155.5 -51t44.5 -64
q29 -144 94 -553q32 -154 48 -229t34 -164q21 -107 33 -107q20 0 45 82q124 320 213 639q25 102 25 152q0 83 -53 258q-9 22 -9 32q0 29 37 29q51 0 180 -53q140 -63 174.5 -97t63.5 -141q100 -387 143 -696z" />
    <glyph glyph-name="x" unicode="x" horiz-adv-x="1384" 
d="M70 393q128 245 364 578q21 21 21 49q0 43 -90 168q-165 228 -267 344q-98 111 -98 168q0 33 17 55.5t65 75.5q78 78 143 78q62 0 123 -66q94 -99 221 -303q38 -70 62 -114.5t39 -65.5t30 -21q33 0 99 103q160 229 213 319q30 62 69 62q54 0 172 -189q50 -99 50 -143
q0 -29 -37 -74q-28 -38 -295 -368q-29 -36 -29 -66q0 -26 33 -82q56 -94 156 -255.5t162.5 -267t74.5 -136.5q21 -72 21 -90q0 -37 -74 -140q-39 -82 -123 -82q-93 0 -139 119q-35 81 -147.5 274t-139.5 246q-41 82 -66 82q-12 0 -24 -24q-153 -204 -225 -516
q-18 -111 -86 -111q-77 0 -234 139q-86 82 -86 152q0 39 25 102z" />
    <glyph glyph-name="y" unicode="y" horiz-adv-x="1425" 
d="M700 528q23 -65 66 -65q11 0 24.5 13.5t16.5 35.5q129 399 225 1225q13 65 90 65q66 0 131 -49q127 -87 127 -274v-17q-23 -465 -142 -906.5t-290 -785t-338 -528.5q-33 -57 -118 -57q-38 0 -70 16q-58 32 -120 102.5t-97 164.5q-12 36 -12 40q0 35 110 111
q99 70 194 191.5t150 283.5q3 16 7.5 32.5t4.5 20.5q0 42 -73 66q-104 52 -148.5 82t-76.5 86t-70 176q-134 447 -230 1094q-1 16 -8.5 67.5t-7.5 71.5q0 82 49 82q31 0 115 -41q43 -23 105.5 -57t101.5 -70.5t65 -96t35 -153.5q23 -215 77 -496t107 -430z" />
    <glyph glyph-name="z" unicode="z" horiz-adv-x="1343" 
d="M250 1470q-1 0 -8 -2t-13 -2q-51 0 -82.5 26t-64.5 93q-62 124 -62 148q0 62 111 73q393 71 602 82q45 4 111 4q81 0 131.5 -35t134.5 -145q90 -101 90 -164q0 -22 -41 -110q-298 -429 -495 -840q-66 -132 -66 -156t25 -24q16 0 74 17t73 20q154 28 324 28h28
q206 0 275 -200q8 -26 8 -45q0 -107 -148 -107q-2 0 -10 2t-10 2h-86q-305 0 -438 -37q-255 -56 -295 -114q-20 -29 -53 -29q-37 0 -107 70q-188 194 -188 282q0 49 41 103q219 445 634 1077q5 12 5 33q0 41 -50 41q-32 0 -53 -5q-209 -70 -397 -86z" />
    <glyph glyph-name="braceleft" unicode="{" horiz-adv-x="1794" 
d="M545 2322q8 151 101 240t185 117q87 26 248.5 48.5t251.5 29.5q181 0 302.5 -96t144.5 -265v-29q0 -40 -90 -40l-369 12h-82q-173 0 -254 -49q-45 -30 -84 -110t-39 -132q0 -3 -2 -16t-2 -17q0 -71 12.5 -225.5t12.5 -237.5q0 -110 -13 -155q-19 -75 -51 -118.5
t-90 -102.5t-80 -95q-12 -24 -12 -49q0 -29 21.5 -52.5t75.5 -66.5t93 -88t60 -104q33 -142 33 -270q0 -107 -25 -242q-18 -81 -30 -166.5t-19 -176t-10.5 -186.5t-6.5 -151q0 -3 -1.5 -5t-2.5 -3q0 -59 70 -115q0 -6 55.5 -35.5t95.5 -29.5h25q52 12 118 30t116 23
q390 0 438 -332v-12q0 -74 -74 -74h-16l-324 29q-70 0 -198 -14.5t-199 -14.5h-37q-101 3 -149.5 21t-104.5 61q-136 112 -172 192q-37 92 -37 201v37q4 123 25.5 239.5t63.5 296.5t60.5 284t18.5 208v12q0 86 -48 178t-112 109h-12q-21 0 -63 -24.5t-60 -24.5
q-3 0 -6.5 1.5t-5.5 2.5q-63 15 -101 43.5t-56 58t-23 37.5q-58 97 -58 152q0 79 140 151q181 93 289 219.5t108 256.5v12q-4 116 -26.5 288t-22.5 265q0 10 2 35t2 34z" />
    <glyph glyph-name="bar" unicode="|" horiz-adv-x="856" 
d="M680 -1106q4 -51 7 -82t5 -53l-4 -8q0 -115 -90 -115q-17 0 -41 8q-74 0 -164 90q-18 21 -52.5 60t-37.5 43q-121 116 -127 237q0 45 -2 137t-2 134q0 633 10.5 1120.5t23 809t32.5 737.5t28 626q0 123 62 123q85 0 266 -181q139 -156 139 -376v-41q-37 -401 -57.5 -832
t-20.5 -1052q0 -546 25 -1385z" />
    <glyph glyph-name="braceright" unicode="}" 
d="M1335 -705q-10 -146 -127.5 -230.5t-240.5 -125.5q-178 -52 -500 -78h-156q-119 0 -184 34t-111 147q-16 40 -16 86q0 75 38.5 133.5t108.5 58.5q5 0 13 -2t12 -2l307 -37h78q179 0 258 49q45 31 84 109.5t39 132.5q4 127 4 397v238q0 8 -2 27t-2 26q0 153 49.5 280
t130.5 167q42 17 70.5 55.5t28.5 70.5q0 18 -13 34t-33 16q-176 38 -208 176q-33 135 -33 286q0 21 2.5 59t5.5 75.5t4 62.5q16 222 29 549v25q0 91 -37 122q-52 41 -156 41h-49q-76 -17 -130.5 -32.5t-102.5 -20.5q-137 0 -211 20t-129 90t-99 222q0 2 -1.5 4.5t-2.5 3.5
q0 35 64.5 66.5t124.5 31.5h266q67 0 142 -4t130 -8t125 -8q154 -4 258 -70q111 -79 168 -205q41 -81 41 -159q0 -10 -2 -36t-2 -42q-89 -534 -102 -696v-58q0 -221 106 -307q33 -33 111 -33q11 0 30 2t23 2h16q71 -10 94.5 -66.5t36.5 -137.5q5 -33 5 -91q0 -82 -31 -110
t-113 -49q-77 -20 -141.5 -107.5t-100.5 -203.5t-36 -205q0 -2 1.5 -6.5t2.5 -6.5q4 -107 34.5 -349.5t30.5 -354.5v-58z" />
    <glyph glyph-name="asciitilde" unicode="~" horiz-adv-x="1913" 
d="M1835 2290q-43 -230 -193.5 -395.5t-375.5 -165.5q-8 0 -29 2t-33 2q-62 7 -161 88t-162 202q-141 275 -234 275q-28 0 -49 -17q-65 -39 -113 -178t-67 -198q-32 -62 -115 -62q-33 0 -127 25q-119 31 -119 114q0 14 5.5 36t7.5 34q74 261 205.5 435.5t302.5 174.5
q45 0 135 -24q127 -50 191 -116t124 -236q88 -181 160 -181q8 0 25.5 4.5t27.5 4.5q98 6 170 108.5t84 247.5q6 66 50.5 106.5t105.5 40.5q40 0 98 -28q102 -71 102 -172q0 -29 -16 -127z" />
    <glyph glyph-name="DEL" horiz-adv-x="1548" 
d="M1446 -12q12 -25 12 -58q0 -32 -28 -32t-103 20q-166 46 -202 66t-64 86q-38 86 -70 86q-24 0 -69 -45q-105 -111 -271 -111q-152 0 -291 106.5t-204 290.5q-45 117 -45 353q0 356 118 958q31 123 111 123q62 0 143 -41q107 -41 146 -70t39 -69q0 -12 -17 -99
q-42 -181 -78 -455t-36 -438q0 -58 12 -118q55 -164 127 -164q89 0 266 188q0 15 -2 54t-2 61q0 374 119 1008q24 102 61 102q31 0 156 -61q96 -49 126 -82t30 -103q0 -13 -9 -123q-82 -487 -82 -798q0 -354 107 -635zM573 2068q-197 63 -299 173q-28 22 -28 102
q0 59 28 295q0 86 78 86q94 0 324 -135q90 -50 90 -135v-46q-12 -126 -86 -315q-7 -8 -26.5 -20.5t-47.5 -12.5q-7 0 -33 8zM1536 2408q74 -57 74 -118q0 -20 -8 -62q-22 -155 -95 -307q-6 -7 -21.5 -18t-39.5 -11q-15 0 -37 9q-179 58 -274 180q-25 31 -25 82q0 16 41 319
q13 78 74 78q89 0 311 -152z" />
    <glyph glyph-name="u0080" horiz-adv-x="1630" 
d="M684 193q-32 -35 -100.5 -199.5t-100.5 -214.5q-30 -43 -80 -81t-88 -38h-36q-91 0 -181 82q-16 8 -16 49q0 79 44 256.5t99 325.5q35 110 140 110q82 0 286 -77q90 -31 90 -99q0 -51 -57 -114zM1233 -287q-14 -25 -38.5 -66.5t-47 -65t-49.5 -23.5q-3 1 -9 2.5t-8 1.5
h-16q-98 0 -184 82q-13 13 -13 53q0 187 140 577q33 107 143 107q87 0 283 -74q40 -13 69 -46.5t29 -76.5q0 -55 -57 -118q-69 -78 -242 -353z" />
    <glyph glyph-name="nonbreakingspace" unicode="&#xa0;" horiz-adv-x="692" 
 />
    <glyph glyph-name="exclamdown" unicode="&#xa1;" horiz-adv-x="1630" 
d="M1163 2535q11 103 90 103q75 0 181 -78q59 -41 117.5 -158.5t58.5 -234.5v-17q-92 -461 -332 -1052q-189 -463 -504 -1053q-59 -97 -97 -138.5t-79 -41.5t-131 65q-262 189 -262 287q0 8 4 21.5t9 24t11 24.5q218 254 439 626q8 13 8 41q0 64 -53 82q-120 32 -210.5 172
t-177.5 413.5t-210 762.5q-13 62 -13 70q0 127 250 212q6 0 20.5 2.5t24.5 2.5q62 0 103 -45t69 -168q94 -583 262 -983q32 -82 90 -82q52 0 74 45q77 199 133.5 444.5t124.5 652.5zM1012 2998q26 21 61 21q50 0 101 -35t51 -64v-12q0 -56 -67 -128.5t-195 -137.5
q-105 -49 -148 -49q-56 0 -209 86q-72 44 -116 116.5t-44 124.5q0 12 13 54q70 98 151 98q56 0 115 -53q86 -86 152 -86q63 0 135 65z" />
    <glyph glyph-name="cent" unicode="&#xa2;" horiz-adv-x="1425" 
d="M635 2286q34 -24 68 -47.5t60 -35.5t52 -12q55 0 135 50q28 16 78 16q55 0 104 -26.5t52 -55.5v-12q0 -111 -357 -254q-39 -21 -82 -21q-56 0 -192 74q-142 80 -194 118.5t-52 69.5q0 19 21 45q24 44 94 77.5t135 33.5q50 0 78 -20zM795 508q81 213 121 448.5t104 776.5
q6 36 33 63t65 27q60 0 107 -37q67 -53 105 -142.5t38 -173.5v-12q-23 -465 -142 -906.5t-290 -785t-338 -528.5q-37 -53 -119 -53q-45 0 -69 12q-154 92 -217 271q-13 31 -13 36q0 34 111 111q99 70 194 191.5t150 283.5q3 17 7.5 35t4.5 22q0 37 -78 66
q-131 67 -200.5 160.5t-122.5 273.5q-107 370 -176 873q-13 71 -13 114q0 63 30.5 95t113.5 73q138 66 168 66q83 0 94 -172q45 -456 107.5 -796t117.5 -376q37 -49 53 -49q19 0 54 33z" />
    <glyph glyph-name="sterling" unicode="&#xa3;" horiz-adv-x="1667" 
d="M717 377q-31 -35 -99 -198.5t-102 -215.5q-27 -44 -77 -83.5t-91 -39.5q-2 0 -10 2t-10 2h-13q-94 0 -184 82q-12 6 -12 49q0 84 43 263.5t96 318.5q40 107 143 107q85 0 287 -74q90 -42 90 -98q0 -54 -61 -115zM1266 -102q-17 -29 -40.5 -69.5t-45 -63.5t-45.5 -23
q-3 0 -11 2t-10 2h-16q-99 0 -180 82q-13 6 -13 49q0 80 42 257.5t93 320.5q41 110 144 110q71 0 286 -73q95 -40 95 -127q0 -57 -58 -115q-92 -115 -241 -352z" />
    <glyph glyph-name="currency" unicode="&#xa4;" horiz-adv-x="2118" 
d="M1700 1761q41 -92 41 -217q0 -264 -193 -475q55 -41 152.5 -131t101.5 -98q103 -121 148 -209q37 -76 37 -164q0 -95 -41 -172q-89 -135 -172 -135q-103 0 -201 192q-22 48 -57 122.5t-59 122t-65 116.5t-94 139q-126 -53 -249 -53q-105 0 -258 78q-5 -45 -28 -111
t-53 -135t-67 -156q-25 -65 -87 -112.5t-134 -47.5q-85 0 -197 86q-106 88 -106 168q0 58 45 103q56 56 151 136.5t99 84.5q119 111 143 160q-141 147 -180 262q-58 116 -58 254q0 200 115 397q-51 62 -155.5 170t-147.5 141q-65 53 -65 99q0 62 98 102q229 74 319 74
q97 0 140 -78q18 -35 68 -122.5t59 -123.5q127 74 176 74q71 0 237 -143q76 -70 115 -70q30 0 61 33q45 47 93 182t75 186q40 86 156 86q87 0 299 -57q102 -31 102 -98q0 -51 -61 -94q-38 -36 -262 -283q-12 -14 -39 -51t-48 -58t-44 -26q50 -55 90 -148zM913 1831
q-122 -262 -122 -438q0 -111 57 -205q50 -107 135 -107q20 0 90 17q71 28 144 167t73 308q0 152 -65 295q-15 39 -51.5 76.5t-83.5 37.5q-85 0 -177 -151z" />
    <glyph glyph-name="yen" unicode="&#xa5;" horiz-adv-x="1671" 
d="M791 2638h32q72 0 155.5 -10.5t106.5 -10.5q65 0 101 41.5t59 155.5q17 98 144 98q105 0 286 -65q37 -12 65.5 -46.5t28.5 -76.5q0 -56 -57 -119q-6 -7 -64.5 -76.5t-102 -124.5t-70.5 -98q-48 -65 -124 -128.5t-114 -63.5q-83 6 -90 114l-258 -8q-53 0 -79 -26t-32 -109
q-12 -111 -12 -500v-188q0 -39 2 -123t2 -123q0 -343 -41 -1085q-5 -95 -78 -95q-30 0 -69 15t-100.5 45t-104.5 51q-34 19 -101 105t-67 132q0 4 1.5 6t2.5 3q85 651 94 1675q0 2 -1.5 4.5t-2.5 3.5q0 139 -53 139q-4 0 -9.5 -1.5t-7.5 -2.5l-8 -4q-58 0 -91.5 64
t-88.5 235q-8 16 -8 29q0 151 754 168z" />
    <glyph glyph-name="brokenbar" unicode="&#xa6;" horiz-adv-x="774" 
d="M647 -778v-4q0 -111 -86 -111q-29 0 -41 4h-4q-66 0 -147 86q4 0 -90 94q-117 111 -123 226q-13 692 -13 1241q0 347 4.5 641.5t15 687.5t15 560t6.5 282q0 114 62 114q75 0 250 -164q76 -86 107.5 -168t31.5 -212v-17q-53 -629 -53 -1368q0 -684 49 -1761q3 -38 8 -73.5
t8 -57.5z" />
    <glyph glyph-name="section" unicode="&#xa7;" 
d="M1438 2580q254 -176 254 -327v-4q0 -99 -73.5 -148t-172.5 -49q-81 0 -143 33q-67 48 -91 108t-29 136t-15 106.5t-54 30.5h-4q-81 -8 -197.5 -79t-191.5 -146q-66 -73 -66 -152q0 -82 62 -164t110 -106q69 -36 244.5 -106t312.5 -152q150 -71 227 -205t77 -299v-21
q-51 -325 -308 -565q-53 -30 -53 -49q0 -7 7 -13t29 -18t54 -31q86 -46 141.5 -164.5t55.5 -236.5q0 -13 -2 -40t-2 -38q-68 -306 -275.5 -425.5t-519.5 -119.5h-16q-183 0 -349 67.5t-253 199.5q-21 26 -21 57q0 63 51 151.5t118.5 151t113.5 62.5h8q45 -3 72 -46
t58.5 -128t58.5 -123.5t73 -38.5h12q175 14 294.5 123.5t119.5 232.5q0 153 -184 205q-154 29 -234.5 43.5t-148 38t-146.5 69.5q-174 82 -279.5 230.5t-105.5 314.5q0 24 5.5 57t7.5 54q90 414 426 585q-135 104 -201 192.5t-66 201.5q0 30 9 73q64 416 462 549
q110 41 279 41q284 0 459 -119zM803 1450q-103 -59 -211.5 -211t-108.5 -281q0 -39 21 -90q48 -110 119 -152.5t197 -69t188 -52.5q204 178 204 389q0 45 -8 111q-36 117 -121 187.5t-280 168.5z" />
    <glyph glyph-name="dieresis" unicode="&#xa8;" horiz-adv-x="1507" 
d="M1290 2204h-102q-164 0 -258 -17q-57 0 -77.5 -12.5t-37.5 -56.5q-73 -241 -90 -521q0 -49 53 -49q148 8 180 8q120 0 182 -23.5t97.5 -80t77.5 -178.5v-8q0 -68 -154.5 -89.5t-406.5 -21.5q-40 0 -49 -41q-29 -156 -29 -455q0 -24 2 -81t2 -86q6 -66 98 -66q76 0 443 86
q50 25 102 25q86 0 141.5 -70.5t55.5 -155.5q0 -99 -74 -139q-133 -58 -332.5 -115t-380.5 -57q-299 0 -409 176q-72 63 -114 278t-42 500q0 284 39.5 563t111.5 465v13q0 34 -20 41q-65 55 -135 174t-70 198q0 30 12 50q67 137 775 143q86 0 123 -8.5t106 -52.5
q137 -88 221 -201q45 -74 45 -103q0 -32 -53 -32h-33zM700 2933q-13 -133 -29.5 -181.5t-60.5 -48.5q-28 0 -172 58q-168 37 -168 291q0 20 1.5 35.5t2.5 21.5q0 53 258 53q62 0 115 -55.5t53 -145.5v-28zM1343 2900q-19 -138 -39 -188t-67 -50q-18 0 -164 45
q-176 24 -176 267q0 23 2 45t2 20q16 107 197 107q84 0 131 -21q127 -74 127 -151q0 -9 -13 -74z" />
    <glyph glyph-name="copyright" unicode="&#xa9;" horiz-adv-x="2318" 
d="M1917 299q-132 -165 -342 -275t-449 -135h-41q-135 0 -300 73t-312 223.5t-223 367.5q-144 399 -144 700q0 102 17 201q46 324 125 538t207 367q230 278 528 348q86 21 176 21q225 0 324 -127q33 -45 86 -45q13 0 49 4t53 4q152 0 324 -299q95 -157 158 -418.5t63 -543.5
q0 -616 -299 -1004zM1561 2163q-88 132 -153.5 179t-158.5 50q-93 0 -213.5 -50.5t-187.5 -125.5q-100 -116 -151.5 -193.5t-86.5 -203.5q-102 -348 -102 -602q0 -148 33 -304q78 -404 323 -569q133 -86 266 -86q231 0 398 217q100 124 183 424t83 584v82q-14 286 -233 598z
M1454 983q24 37 78 37q33 0 59.5 -17.5t26.5 -44.5v-16q-11 -49 -23 -100t-39.5 -99.5t-80.5 -83.5q-110 -102 -250 -102q-129 0 -249 100.5t-198 305.5q-73 201 -73 405q0 202 63 380.5t165.5 284t213.5 105.5q100 0 196.5 -55.5t157 -143t60.5 -178.5q0 -63 -21 -106
q-26 -42 -48.5 -58.5t-70.5 -19.5q-57 0 -85 33.5t-54 130.5q-25 82 -65 82q-19 0 -41 -29q-56 -93 -91.5 -242.5t-35.5 -289.5q0 -160 50.5 -264.5t145.5 -104.5q80 0 209 90z" />
    <glyph glyph-name="ordfeminine" unicode="&#xaa;" horiz-adv-x="1671" 
d="M598 1458q178 127 295 127q75 0 127 -41q74 -62 74 -176q0 -143 -119 -143q-36 0 -159 -70t-173 -70q-49 0 -74 66v-53q0 -369 127 -611q44 -86 99 -86q53 0 113 65.5t108 171t65 214.5q24 168 144 168q50 0 104.5 -33.5t87.5 -85.5q90 -133 90 -258q0 -131 -102 -324
q-69 -132 -178 -222.5t-203 -96.5h-41q-435 0 -684.5 353t-249.5 933q0 109 17 287q42 251 135.5 456t220.5 346.5t273 216t288 74.5q94 0 193 -32q97 -37 188 -144.5t146 -239t55 -239.5q0 -99 -51.5 -158t-153.5 -59q-53 0 -119 21q-106 20 -106 86l4 8q0 344 -115 344
q3 0 -45 -12q-143 -111 -241 -318.5t-140 -464.5z" />
    <glyph glyph-name="guillemotleft" unicode="&#xab;" horiz-adv-x="2036" 
d="M1077 1536q71 50 158.5 81.5t208 61.5t178.5 50q33 16 90 16q136 0 234 -164v-20q0 -25 -36.5 -43.5t-116.5 -39t-81 -20.5q-41 -13 -164.5 -26t-130.5 -15q-90 -18 -90 -61q0 -42 103 -91.5t278 -76.5q193 -31 193 -135q0 -34 -21 -90q-33 -103 -90 -103
q-17 0 -38.5 12.5t-22.5 12.5q-127 54 -349 159q-184 84 -279 148t-102 156q0 4 -2 13t-2 11q0 113 82 164zM1257 1864q9 -16 9 -29q0 -61 -189 -98q-391 -103 -594 -271q-53 -38 -53 -86q0 -73 160 -176q70 -42 262.5 -127.5t269.5 -109.5q36 -13 84 -28.5t67 -28
t28.5 -37.5t9.5 -70q0 -58 -4 -98q-11 -123 -103 -123q-25 0 -57 16q-684 354 -811 451q-94 77 -140.5 134t-97.5 148q-12 36 -12 78q0 136 49 205q88 112 346 264t498 203q6 0 21 2t20 2q129 0 237 -221z" />
    <glyph glyph-name="logicalnot" unicode="&#xac;" horiz-adv-x="1790" 
d="M1720 1327q25 -66 25 -151q0 -108 -39.5 -254t-136.5 -447q-35 -110 -148 -110q-80 0 -282 77q-70 20 -70 99q0 39 29 143q21 61 71.5 124.5t122.5 142.5t72 93q0 13 -8 13q-139 37 -344 37q-377 0 -733 -99q-18 -8 -33 -8q-63 0 -120.5 58.5t-68.5 142.5q0 9 -4 35
t-4 39q0 108 66 127q136 43 350 62t346 19q104 0 271 6.5t261 6.5q115 0 164 -4q162 -20 213 -152z" />
    <glyph glyph-name="registered" unicode="&#xae;" horiz-adv-x="2318" 
d="M1917 299q-132 -165 -342 -275t-449 -135h-41q-135 0 -300 73t-312 223.5t-223 367.5q-144 399 -144 700q0 102 17 201q46 324 125 538t207 367q230 278 528 348q86 21 176 21q225 0 324 -127q33 -45 86 -45q12 0 45 4t53 4q156 0 328 -299q95 -157 158 -418.5t63 -543.5
q0 -616 -299 -1004zM1004 1151l8 -373v-24q0 -144 -74 -144q3 0 -94 21q-91 20 -119.5 54t-28.5 101q0 8 2 35t2 39q0 354 66 803q50 391 164 422q71 16 176 16q124 0 205 -28q128 -41 209 -131.5t90 -204.5v-41q0 -254 -267 -340q-28 0 -28 -25q0 -11 25.5 -47.5
t39.5 -62.5q29 -57 83 -127t116.5 -138.5t128.5 -140.5q90 309 90 623q0 20 -2 63t-2 64q-24 351 -184 581q-159 239 -361 246q-93 0 -213.5 -50.5t-187.5 -125.5q-100 -116 -151.5 -193.5t-86.5 -203.5q-102 -348 -102 -602q0 -148 33 -304q78 -404 323 -569
q115 -74 234 -74t237.5 66.5t204.5 183.5q-130 139 -438 664q-42 65 -70 65t-28 -98zM1024 1585q0 -4 -2 -14t-2 -15q0 -102 53 -102q37 0 107 45q192 130 192 266q0 105 -102 136l-11 2t-18 2q-28 0 -89 -20t-87 -25q-1 -8 -23 -100.5t-22 -149.5q0 -3 2 -12t2 -13z" />
    <glyph glyph-name="macron" unicode="&#xaf;" horiz-adv-x="938" 
d="M721 143q0 -17 6 -39.5t10 -33.5q0 -70 -110 -70h-29q-74 0 -164 53q-19 11 -52 31t-42 27q-121 66 -127 135q-12 442 -12 758q0 265 7 477.5t19 445t15 301.5q0 66 61 66q85 0 262 -103q85 -48 118.5 -97.5t33.5 -131.5q-53 -353 -53 -766q0 -377 57 -1053zM1008 2580
q-13 -128 -30 -178.5t-60 -50.5q-24 0 -168 57q-164 42 -164 287v62q11 176 102 176q30 0 66.5 -19.5t83 -54t67.5 -45.5q115 -78 115 -164q0 -32 -12 -70zM401 2691q-13 -133 -29 -181t-61 -48q-30 0 -172 57q-164 37 -164 291v57q0 176 95 176q54 0 168 -61
q62 -35 112.5 -105t50.5 -161v-25z" />
    <glyph glyph-name="degree" unicode="&#xb0;" horiz-adv-x="1102" 
d="M582 1569q41 20 79.5 128.5t38.5 248.5q0 155 -53 303q-37 98 -90 98q-55 0 -115 -131q-49 -208 -49 -356q0 -121 37 -209q39 -103 90 -103q7 0 62 21zM598 2507q48 -68 68.5 -83.5t62.5 -15.5q137 0 229 -254q70 -180 70 -360q0 -211 -113 -345t-342 -134h-4
q-172 0 -295 102q-47 45 -114.5 157.5t-89.5 190.5q-29 92 -29 181q0 166 77 343.5t210 299.5q81 61 114 61q67 0 156 -143z" />
    <glyph glyph-name="plusminus" unicode="&#xb1;" horiz-adv-x="2241" 
d="M1282 2376q8 -156 8 -213q0 -41 -2 -181t-2 -258q30 0 73.5 2.5t74.5 2.5q123 0 239.5 -14t153.5 -15q61 -11 147.5 -58.5t126.5 -105.5q21 -40 21 -70q0 -53 -64 -95t-149 -48q-182 -16 -615 -25v-57q0 -62 -4 -195t-4 -215q0 -194 29 -454q78 0 183 2t149 2
q102 0 159 -4q157 -8 195 -43.5t51 -108.5q0 -109 -47.5 -165t-108.5 -56l-4 4h-180q-72 0 -184 -3.5t-218.5 -9t-252.5 -11.5q-86 -3 -343.5 -34.5t-357.5 -31.5h-37q-89 6 -125.5 43.5t-50.5 132.5q-16 58 -16 86q0 83 82 111q221 86 979 86q-84 73 -139 155
q-10 15 -56.5 71t-73 108.5t-26.5 115.5q0 73 16.5 225.5t16.5 241.5q-191 0 -549 -69h-53q-222 0 -246 135q0 4 -2 11t-2 9q0 53 42 107.5t109 77.5q280 114 738 139q0 6 -2.5 13t-2.5 12q0 47 10.5 157t10.5 154q6 328 61 446q14 33 70 33q53 0 105.5 -39t66.5 -104z" />
    <glyph glyph-name="twosuperior" unicode="&#xb2;" horiz-adv-x="897" 
d="M721 143q0 -17 6 -39.5t10 -33.5q0 -70 -110 -70h-29q-74 0 -164 53q-19 11 -52 31t-42 27q-121 66 -127 135q-12 442 -12 758q0 265 7 477.5t19 445t15 301.5q0 66 61 66q85 0 262 -103q123 -69 123 -221v-45q-33 -473 -33 -622q0 -415 66 -1160zM791 2597
q-22 -122 -48.5 -173.5t-78.5 -51.5q-36 0 -185 57q-121 27 -163 142t-42 218v21q0 164 103 164q51 0 209 -82q4 -2 56.5 -26t81.5 -45t50 -60.5t21 -98.5q0 -6 -2 -29t-2 -36z" />
    <glyph glyph-name="threesuperior" unicode="&#xb3;" horiz-adv-x="692" 
d="M561 2478q127 -91 127 -180q0 -20 -8 -70q-6 -147 -21.5 -202.5t-56.5 -55.5q-31 0 -168 62q-90 21 -131.5 102t-48.5 170.5t-8 103.5q0 193 94 193q31 0 69 -20t91.5 -59.5t60.5 -43.5zM569 12v-8q0 -49 -41 -49q-51 0 -139 65q-60 52 -180 91q-82 32 -94 114
q0 14 -2 57t-2 70q0 212 18.5 488t42.5 426q11 68 15.5 182t10 166.5t27.5 109.5q1 18 15 44t55 26t98 -29q193 -90 193 -249q0 -30 -6.5 -47t-10.5 -23q-45 -479 -45 -758q0 -293 45 -676z" />
    <glyph glyph-name="acute" unicode="&#xb4;" horiz-adv-x="778" 
d="M426 2216q-27 -44 -57.5 -95.5t-63 -90.5t-55.5 -39q-77 0 -172 102q-17 17 -17 61q0 85 38.5 231.5t97.5 264.5q35 105 109 175.5t177 70.5q78 0 156 -37q39 -15 64.5 -52.5t25.5 -82.5q0 -67 -53 -131q-77 -93 -250 -377z" />
    <glyph glyph-name="mu" unicode="&#xb5;" horiz-adv-x="1303" 
d="M893 1872q83 143 270 274q53 17 86 17q127 0 127 -201q0 -53 -4 -86q0 -125 -72.5 -232.5t-173.5 -107.5q-48 0 -106 33q-175 0 -250.5 -13t-100.5 -46t-30 -109q0 -42 -14.5 -196t-14.5 -283q0 -14 2 -51t2 -56q-4 -49 -4 -160q0 -259 49 -426q62 -148 62 -209
q0 -49 -45 -49q-41 0 -111 25q-186 59 -265.5 111t-103.5 135.5t-24 257.5v82q0 310 66 749q0 10 2 27t2 22q0 106 -99 131q-110 38 -110 131q0 68 53.5 130.5t134.5 74.5q281 25 619 25h53z" />
    <glyph glyph-name="paragraph" unicode="&#xb6;" horiz-adv-x="1995" 
d="M614 995q-256 102 -416.5 369.5t-160.5 556.5q0 183 74.5 335t230.5 242.5t383 90.5q102 0 203 -46.5t164 -125.5t63 -172v-4q-37 -406 -57.5 -837t-20.5 -1052q0 -596 25 -1384q4 -51 7 -82t5 -53v-9q0 -110 -94 -110q-29 0 -41 4q-74 0 -164 90q-8 0 -90 102
q-121 116 -127 238v385q0 668 16 1462zM1798 -1294v-9q0 -106 -86 -106q-29 0 -41 4h-4q-70 0 -147 82q-18 20 -49 54.5t-37 43.5q-114 98 -127 226q-2 279 -7.5 644.5t-5.5 592.5q0 347 6 695.5t12.5 568.5t14.5 460.5t12 445.5q0 115 58 115q75 0 250 -164
q139 -150 139 -377v-20q-53 -621 -53 -1364q0 -543 49 -1761q3 -38 8 -74t8 -57z" />
    <glyph glyph-name="periodcentered" unicode="&#xb7;" horiz-adv-x="692" 
d="M602 1581q-13 -125 -94 -303q-8 -8 -33.5 -20.5t-68.5 -12.5q-200 13 -295 78q-29 14 -29 74q0 65 41 286q6 99 127 99q91 0 278 -53q82 -28 82 -91q0 -15 -8 -57z" />
    <glyph glyph-name="cedilla" unicode="&#xb8;" horiz-adv-x="1466" 
d="M1311 385q16 -44 16 -102q0 -106 -87.5 -175t-204.5 -98.5t-204 -29.5q-154 0 -281 64.5t-223 185.5t-159 294q-66 192 -66 381q0 174 49 341.5t142 301t223 210.5t287 77q137 0 297 -125.5t207 -259.5q49 -138 49 -250q0 -190 -115.5 -312.5t-255.5 -177.5t-203 -55
q-77 0 -172 111q-65 78 -94 78q-16 0 -16 -33q0 -47 24 -152q53 -282 242 -282q68 0 233 57q163 49 189 49q90 0 123 -98zM848 1081q82 64 98 144q25 110 25 151q-3 60 -46 97.5t-98 37.5q-74 0 -131 -69q-155 -278 -155 -406q0 -86 69 -86q75 0 238 131zM438 2060
q-119 14 -162 115.5t-43 208.5q0 10 2 19.5t2.5 13t-2 9t-2.5 7.5q0 193 123 193q32 0 176 -50q73 -32 133 -104t60 -166v-29q-10 -154 -29.5 -208t-77.5 -54q-26 0 -180 45zM1364 2228q-13 -156 -30.5 -207t-71.5 -51q-27 0 -181 45q-120 14 -162 112.5t-42 203.5
q0 12 1.5 24t2.5 17q5 204 118 204q38 0 78.5 -18.5t82 -43.5t73.5 -44q143 -81 143 -164q0 -13 -5 -39t-7 -39z" />
    <glyph glyph-name="onesuperior" unicode="&#xb9;" horiz-adv-x="2933" 
d="M1303 2490q11 111 53 111q37 0 106 -41q186 -142 244.5 -206.5t58.5 -137.5q0 -38 -12 -82q-82 -596 -82 -1176q0 -518 58 -892q12 -49 12 -86q0 -62 -41 -62q-25 0 -90 37q-157 71 -215.5 117t-83.5 112q-60 153 -163.5 389t-211.5 460t-199 388q-32 78 -57 78
q-16 0 -16 -53q0 -3 1.5 -6.5t2.5 -5.5q9 -158 14 -487t10 -487t25 -276q-3 -105 -13 -146.5t-40 -41.5q-31 0 -123 53q-185 129 -250.5 214t-65.5 216q0 4 2 17t2 16q0 6 -2 21t-2 20q0 244 24.5 694t24.5 674v217q0 75 -77 266q-86 190 -86 222q0 40 90 40q6 0 18 2.5
t23 2.5q171 -19 231 -34.5t97.5 -58.5t97.5 -165q142 -266 338.5 -660t218.5 -450q29 -91 53 -91q16 0 16 54q-16 426 -16 610q0 301 25 614zM1925 451q-41 111 -41 229q0 169 69 348t189 299q72 66 111 66q66 0 164 -156q57 -75 78 -91t61 -16q141 0 242 -266
q86 -210 86 -422q0 -207 -107.5 -334.5t-322.5 -127.5l-5 -5q-181 0 -299 107q-53 52 -125.5 168t-99.5 201zM2445 242q39 19 71 119t32 237q0 194 -66 365q-37 110 -94 110q-54 0 -111 -143q-36 -223 -36 -336q0 -172 53 -266q37 -107 98 -107q27 0 53 21z" />
    <glyph glyph-name="ordmasculine" unicode="&#xba;" horiz-adv-x="1384" 
d="M889 1360q-40 98 -82 98q-29 0 -57 -41q-132 -165 -189 -483q144 82 242 82q63 0 115 -33q69 -63 69 -147q0 -49 -31 -82t-88 -33v4h-12q-53 0 -95 -17.5t-104 -54.5t-96 -51q42 -229 230 -229q117 0 286 102q31 37 78 37q39 0 77.5 -26t49.5 -68q33 -101 33 -139
q0 -94 -127 -160q-144 -131 -381 -131q-194 0 -364.5 117t-258.5 354q-6 0 -20 -2t-21 -2q-106 0 -106 102q0 113 82 180q-8 108 -8 156q0 249 88.5 465.5t231 344.5t298.5 128q126 0 250.5 -67.5t201 -172.5t76.5 -211q0 -68 -32 -127q-34 -49 -68 -67.5t-96 -18.5
q-78 0 -110 38.5t-62 154.5z" />
    <glyph glyph-name="guillemotright" unicode="&#xbb;" horiz-adv-x="2159" 
d="M942 1061q-71 -49 -153 -77.5t-208 -61.5t-184 -54q-48 -16 -94 -16q-129 0 -229 168q-4 4 -4 16q0 26 36 44.5t92 34t105 28.5q34 10 95 17.5t121.5 12.5t82.5 7q86 18 86 61q0 40 -104 92t-273 80q-196 31 -196 131q0 34 20 94q39 99 90 99q16 0 41 -12.5l25 -12.5
q61 -26 114 -50t113.5 -51.5t120.5 -54.5q179 -79 277.5 -144t103.5 -159v-28q0 -110 -78 -164zM762 737q-12 12 -12 25q0 55 192 102q393 104 594 271q49 34 49 77q0 86 -155 181q-57 39 -245.5 122t-287.5 119q-77 26 -118 40t-57.5 36.5t-16.5 79.5q0 28 8 102
q10 123 98 123q37 0 61 -12q701 -365 811 -455q95 -74 142.5 -132.5t95.5 -149.5q12 -39 12 -78q0 -139 -53 -205q-56 -71 -192.5 -167t-308.5 -178t-339 -118q-6 0 -22 -4t-23 -4q-123 0 -233 225z" />
    <glyph glyph-name="onequarter" unicode="&#xbc;" horiz-adv-x="2036" 
d="M1823 1102q-34 0 -100 2t-97 2q-70 0 -180 -3.5t-231 -10t-232 -11.5q-127 -5 -236 -9t-226 -16.5t-271 -43.5q-6 0 -20 -2t-17 -2q-117 0 -143 180q-2 15 -7.5 44.5t-5.5 49.5q0 90 78 107q293 69 565 69q65 0 149 -2t105 -2q147 0 368 12.5t320 12.5h95
q151 -8 189.5 -44.5t51.5 -111.5q0 -109 -46 -167t-105 -58zM754 1720q-25 13 -25 74q0 49 37 287q13 98 127 98q94 0 283 -53q77 -27 77 -90q0 -37 -4 -58q-13 -125 -94 -303q-8 -8 -34 -20.5t-72 -12.5q-206 18 -295 78zM1061 352q-202 14 -295 78q-25 19 -25 78
q0 31 37 283q13 102 127 102q82 0 283 -57q78 -27 78 -91q0 -32 -4 -57q-14 -121 -95 -299q-8 -9 -33.5 -23t-72.5 -14z" />
    <glyph glyph-name="onehalf" unicode="&#xbd;" horiz-adv-x="1626" 
d="M508 1085q-47 32 -124.5 83.5t-122 84t-85.5 70.5q-53 47 -53 111q0 57 37 118q37 95 98 95q9 0 45 -9q135 -60 488 -327q125 100 462 315q52 33 90 33q75 0 140 -86q65 -100 65 -139q0 -40 -41 -74q-30 -28 -170.5 -129t-226.5 -174q223 -179 283 -230q102 -91 102 -151
q0 -37 -29 -66q-96 -123 -147 -123q-22 0 -53 25q-59 46 -199.5 158.5t-235.5 181.5q-74 -56 -218.5 -182t-231.5 -195q-24 -24 -57 -24q-37 0 -75 35.5t-114 123.5q-7 14 -16 29t-15 30.5t-6 30.5q0 69 103 160q43 41 154 116t153 109z" />
    <glyph glyph-name="threequarters" unicode="&#xbe;" horiz-adv-x="2241" 
d="M569 4q-8 -9 -32.5 -23t-69.5 -14q-201 13 -295 78q-25 19 -25 78q0 73 37 283q7 102 127 102q78 0 279 -57q82 -28 82 -91q0 -7 -8 -57q-14 -121 -95 -299zM1614 -8q-25 12 -25 74q0 29 37 286q13 99 127 99q84 0 283 -58q78 -20 78 -90q0 -33 -5 -53
q-12 -115 -23.5 -166.5t-62.5 -71.5q-26 -9 -37.5 -23t-20 -34.5t-20.5 -30.5t-36 -10q-207 14 -295 78zM1294 430q82 -26 82 -90q0 -17 -8 -57q-11 -112 -90 -303q-9 -8 -36 -20.5t-71 -12.5q-199 13 -294 78q-25 12 -25 73q0 49 37 287q6 98 127 98q96 0 278 -53z" />
    <glyph glyph-name="questiondown" unicode="&#xbf;" horiz-adv-x="778" 
d="M365 70q-50 49 -181 90q-79 33 -86 119q0 5 -2 22t-2 27q0 201 28.5 516.5t57.5 474.5q12 67 18 173.5t15 165t37 116.5q1 17 13.5 43t51.5 26q50 0 99 -33q188 -89 188 -249q0 -28 -4.5 -49t-7.5 -29q-70 -513 -70 -897q0 -220 29 -529q-4 0 -4 -8q0 -49 -41 -49
q-55 0 -139 70zM123 2101q-107 27 -143.5 132.5t-36.5 211.5v58q0 176 90 176q46 0 172 -70q65 -41 118.5 -119.5t53.5 -175.5v-24q-10 -147 -24.5 -198.5t-57.5 -51.5t-172 61zM942 2175q-10 -145 -23.5 -195.5t-54.5 -50.5q-35 0 -172 62q-180 46 -180 340q0 10 1.5 20.5
t2.5 15.5q5 193 94 193q33 0 70 -21.5t74.5 -50.5t72.5 -55q127 -91 127 -180q0 -34 -12 -78z" />
    <glyph glyph-name="Agrave" unicode="&#xc0;" 
d="M94 700q-134 121 -180 308q57 65 151.5 90t131 50.5t57.5 141.5q103 410 176.5 640.5t135.5 321.5t139 91q62 0 135 -37l-74 217l-8 15t-8 22q0 41 77 41h21q163 -11 264 -106t188 -361t182.5 -773.5t237.5 -1421.5q-13 -33 -94 -33q-107 0 -257.5 48.5t-176.5 94.5
q-23 393 -70 684q-6 43 -14 56.5t-35 13.5q-3 0 -15 -2t-22 -2l-323 -37q-47 -6 -63 -17.5t-19 -44.5q-45 -262 -62 -643q-6 -57 -94 -57q-72 0 -174.5 44.5t-181.5 111.5q-40 35 -45 77q0 31 -2 84t-2 76q0 154 24 307zM729 1217q0 -41 41 -41h295q-28 236 -115 626
q-7 29 -28 29q-13 0 -17 -12q-68 -109 -115.5 -281.5t-60.5 -320.5z" />
    <glyph glyph-name="Agrave" unicode="&#x410;" 
d="M94 700q-134 121 -180 308q57 65 151.5 90t131 50.5t57.5 141.5q103 410 176.5 640.5t135.5 321.5t139 91q62 0 135 -37l-74 217l-8 15t-8 22q0 41 77 41h21q163 -11 264 -106t188 -361t182.5 -773.5t237.5 -1421.5q-13 -33 -94 -33q-107 0 -257.5 48.5t-176.5 94.5
q-23 393 -70 684q-6 43 -14 56.5t-35 13.5q-3 0 -15 -2t-22 -2l-323 -37q-47 -6 -63 -17.5t-19 -44.5q-45 -262 -62 -643q-6 -57 -94 -57q-72 0 -174.5 44.5t-181.5 111.5q-40 35 -45 77q0 31 -2 84t-2 76q0 154 24 307zM729 1217q0 -41 41 -41h295q-28 236 -115 626
q-7 29 -28 29q-13 0 -17 -12q-68 -109 -115.5 -281.5t-60.5 -320.5z" />
    <glyph glyph-name="Aacute" unicode="&#xc1;" horiz-adv-x="1630" 
d="M258 1995v16q0 65 -41 70q-95 7 -152.5 43.5t-113.5 165.5q-21 56 -21 94q0 46 16 82t25 41q163 89 478 132.5t600 47.5q84 0 172 -62t127 -196q16 -82 16 -119q0 -90 -41 -90q-34 0 -110 2t-119 2q-224 0 -385 -33q-9 -37 -9 -118q0 -51 7.5 -175t9.5 -247
q0 -103 94 -103q-1 0 86 21q42 8 74 8q116 0 250.5 -72t203.5 -174q156 -242 156 -532q0 -299 -176 -512q-242 -291 -418 -291q-129 0 -299 151q-21 17 -41 17q-11 0 -16 -17l-45 -127q0 -20 -33 -20q-13 0 -29 8q-149 52 -295 180q-18 16 -45.5 53.5t-27.5 86.5q0 1 2 8
t2 12q18 144 40 441t37.5 622t20.5 584zM1126 1008q-58 172 -262 172q-16 0 -49 -2t-53 -2q-62 -6 -62 -54l-53 -544q25 -119 119 -119q114 0 239 157.5t125 333.5q0 12 -2 31t-2 27z" />
    <glyph glyph-name="Aacute" unicode="&#x411;" horiz-adv-x="1630" 
d="M258 1995v16q0 65 -41 70q-95 7 -152.5 43.5t-113.5 165.5q-21 56 -21 94q0 46 16 82t25 41q163 89 478 132.5t600 47.5q84 0 172 -62t127 -196q16 -82 16 -119q0 -90 -41 -90q-34 0 -110 2t-119 2q-224 0 -385 -33q-9 -37 -9 -118q0 -51 7.5 -175t9.5 -247
q0 -103 94 -103q-1 0 86 21q42 8 74 8q116 0 250.5 -72t203.5 -174q156 -242 156 -532q0 -299 -176 -512q-242 -291 -418 -291q-129 0 -299 151q-21 17 -41 17q-11 0 -16 -17l-45 -127q0 -20 -33 -20q-13 0 -29 8q-149 52 -295 180q-18 16 -45.5 53.5t-27.5 86.5q0 1 2 8
t2 12q18 144 40 441t37.5 622t20.5 584zM1126 1008q-58 172 -262 172q-16 0 -49 -2t-53 -2q-62 -6 -62 -54l-53 -544q25 -119 119 -119q114 0 239 157.5t125 333.5q0 12 -2 31t-2 27z" />
    <glyph glyph-name="Acircumflex" unicode="&#xc2;" 
d="M299 1995v8q0 39 -49 45q-83 6 -141 57t-117 185q-33 83 -33 131q0 56 53 86q336 155 647 155q263 0 477 -107t333.5 -285t119.5 -378q0 -285 -225 -516q-21 -21 -21 -24q0 -13 33 -33q119 -95 180.5 -239t61.5 -302q0 -292 -172 -491q-248 -291 -418 -291
q-135 0 -299 151q-21 17 -41 17q-11 0 -16 -17l-45 -127q-7 -20 -33 -20q-13 0 -29 8q-159 53 -295 180q-18 16 -45.5 53.5t-27.5 86.5q0 1 2 8t2 12q18 144 40 441t37.5 622t20.5 584zM868 1581q148 86 234 211.5t86 226.5q0 37 -4 49q-48 144 -226 144q-39 0 -270 -41
q70 -160 70 -426v-94q0 -1 -2 -9t-2 -12q0 -69 53 -69q11 0 61 20zM803 1176q-61 -6 -66 -54l-49 -544q25 -119 119 -119q73 0 159.5 73t145.5 187.5t59 230.5q0 12 -2 31t-2 27q-63 172 -262 172q-16 0 -49 -2t-53 -2z" />
    <glyph glyph-name="Acircumflex" unicode="&#x412;" 
d="M299 1995v8q0 39 -49 45q-83 6 -141 57t-117 185q-33 83 -33 131q0 56 53 86q336 155 647 155q263 0 477 -107t333.5 -285t119.5 -378q0 -285 -225 -516q-21 -21 -21 -24q0 -13 33 -33q119 -95 180.5 -239t61.5 -302q0 -292 -172 -491q-248 -291 -418 -291
q-135 0 -299 151q-21 17 -41 17q-11 0 -16 -17l-45 -127q-7 -20 -33 -20q-13 0 -29 8q-159 53 -295 180q-18 16 -45.5 53.5t-27.5 86.5q0 1 2 8t2 12q18 144 40 441t37.5 622t20.5 584zM868 1581q148 86 234 211.5t86 226.5q0 37 -4 49q-48 144 -226 144q-39 0 -270 -41
q70 -160 70 -426v-94q0 -1 -2 -9t-2 -12q0 -69 53 -69q11 0 61 20zM803 1176q-61 -6 -66 -54l-49 -544q25 -119 119 -119q73 0 159.5 73t145.5 187.5t59 230.5q0 12 -2 31t-2 27q-63 172 -262 172q-16 0 -49 -2t-53 -2z" />
    <glyph glyph-name="Atilde" unicode="&#xc3;" horiz-adv-x="1184" 
d="M823 2671h4q173 0 289 -100t137 -269v-21q0 -30 -18.5 -39.5t-83.5 -9.5l-344 -12q-52 0 -78 -26t-33 -109q-12 -111 -12 -500q0 -54 2 -120t2 -68v-246q0 -462 -41 -1085q0 -95 -78 -95q-46 0 -270 111q-34 19 -103 105t-69 132q0 4 1.5 6t2.5 3q85 651 94 1675v8
q0 76 -24.5 105.5t-44.5 29.5h-4l-9 -4q-58 0 -91.5 64t-88.5 235q0 2 -2 11t-2 10q0 67 146 111.5t348.5 67.5t369.5 30z" />
    <glyph glyph-name="Atilde" unicode="&#x413;" horiz-adv-x="1184" 
d="M823 2671h4q173 0 289 -100t137 -269v-21q0 -30 -18.5 -39.5t-83.5 -9.5l-344 -12q-52 0 -78 -26t-33 -109q-12 -111 -12 -500q0 -54 2 -120t2 -68v-246q0 -462 -41 -1085q0 -95 -78 -95q-46 0 -270 111q-34 19 -103 105t-69 132q0 4 1.5 6t2.5 3q85 651 94 1675v8
q0 76 -24.5 105.5t-44.5 29.5h-4l-9 -4q-58 0 -91.5 64t-88.5 235q0 2 -2 11t-2 10q0 67 146 111.5t348.5 67.5t369.5 30z" />
    <glyph glyph-name="Adieresis" unicode="&#xc4;" horiz-adv-x="1794" 
d="M664 446q314 21 528 21q-28 165 -47 314.5t-30.5 280t-18 241.5t-15.5 258q-6 180 -61 180q-22 0 -49 -41q-312 -646 -312 -1184q0 -9 2.5 -31t2.5 -39zM-98 328q36 110 270 127q167 1193 664 2048q55 98 102 98q46 0 225 -98q110 -74 139 -144.5t62 -253.5
q91 -496 145 -793.5t95.5 -492t91.5 -340.5q45 -16 69.5 -88t24.5 -153q0 -103 -33 -136q-6 -67 -45.5 -99.5t-142.5 -47.5q-9 0 -27 -2t-26 -2q-125 0 -193 110h-90q-358 0 -762 -77q-108 -17 -184 -17q-178 0 -226 66q-30 30 -94.5 129t-64.5 149v17z" />
    <glyph glyph-name="Adieresis" unicode="&#x414;" horiz-adv-x="1794" 
d="M664 446q314 21 528 21q-28 165 -47 314.5t-30.5 280t-18 241.5t-15.5 258q-6 180 -61 180q-22 0 -49 -41q-312 -646 -312 -1184q0 -9 2.5 -31t2.5 -39zM-98 328q36 110 270 127q167 1193 664 2048q55 98 102 98q46 0 225 -98q110 -74 139 -144.5t62 -253.5
q91 -496 145 -793.5t95.5 -492t91.5 -340.5q45 -16 69.5 -88t24.5 -153q0 -103 -33 -136q-6 -67 -45.5 -99.5t-142.5 -47.5q-9 0 -27 -2t-26 -2q-125 0 -193 110h-90q-358 0 -762 -77q-108 -17 -184 -17q-178 0 -226 66q-30 30 -94.5 129t-64.5 149v17z" />
    <glyph glyph-name="Aring" unicode="&#xc5;" horiz-adv-x="1507" 
d="M1249 2204h-106q-160 0 -258 -17q-57 0 -77 -12.5t-34 -56.5q-78 -242 -90 -521q0 -49 53 -49q140 8 181 8q119 0 179 -23.5t95.5 -80t77.5 -178.5v-8q0 -68 -153.5 -89.5t-403.5 -21.5q-40 0 -54 -41q-24 -140 -24 -455v-167q6 -66 98 -66q83 0 443 86q56 25 102 25
q87 0 144 -71t57 -155q0 -99 -74 -139q-404 -172 -717 -172q-293 0 -409 176q-72 63 -114 278t-42 500q0 284 39.5 563t111.5 465v13q0 34 -20 41q-65 55 -135 174t-70 198q0 11 12 50q73 137 779 143q84 0 122.5 -9t106.5 -52q125 -80 221 -201q41 -67 41 -103
q0 -32 -53 -32h-29z" />
    <glyph glyph-name="Aring" unicode="&#x415;" horiz-adv-x="1507" 
d="M1249 2204h-106q-160 0 -258 -17q-57 0 -77 -12.5t-34 -56.5q-78 -242 -90 -521q0 -49 53 -49q140 8 181 8q119 0 179 -23.5t95.5 -80t77.5 -178.5v-8q0 -68 -153.5 -89.5t-403.5 -21.5q-40 0 -54 -41q-24 -140 -24 -455v-167q6 -66 98 -66q83 0 443 86q56 25 102 25
q87 0 144 -71t57 -155q0 -99 -74 -139q-404 -172 -717 -172q-293 0 -409 176q-72 63 -114 278t-42 500q0 284 39.5 563t111.5 465v13q0 34 -20 41q-65 55 -135 174t-70 198q0 11 12 50q73 137 779 143q84 0 122.5 -9t106.5 -52q125 -80 221 -201q41 -67 41 -103
q0 -32 -53 -32h-29z" />
    <glyph glyph-name="AE" unicode="&#xc6;" horiz-adv-x="2892" 
d="M1217 983q4 25 4 61q0 54 -33 54q-6 0 -23.5 -7.5t-29.5 -9.5q-154 -81 -286.5 -251t-224.5 -375.5t-141 -405.5q-11 -7 -39.5 -18t-66.5 -11q-98 0 -168 86q-209 248 -209 332q0 9 12 45q326 592 770 926q15 13 44.5 25.5t29.5 23.5q0 38 -123 123q-30 35 -93 113.5
t-136 185.5q-71 107 -160 305t-106 301q0 3 -2 7l-3 6q0 33 23 55t47 22q29 0 116 18.5t130 18.5q25 0 49 -8q52 -23 84.5 -90.5t89.5 -235t106.5 -279t141.5 -235.5q32 -48 93 -120t104 -72q36 0 49 53q14 63 19.5 192t7.5 328.5t5 290.5q7 127 66 127q12 0 78 -16
q109 -42 233 -115q56 -35 67 -54.5t11 -72.5l-24 -668q0 -4 -2.5 -14t-2.5 -14q0 -62 41 -62q20 0 45 25q129 114 226.5 250t174.5 289.5t189 410.5q2 9 11 23t34 14q43 0 103 -49q104 -96 142 -149.5t38 -112.5q0 -62 -12 -99q-53 -166 -154 -364.5t-212.5 -345
t-195.5 -162.5q-57 -19 -57 -45q0 -16 29 -57q180 -254 348 -533q76 -122 146 -209.5t147.5 -170.5t169.5 -181q49 -37 49 -90q0 -46 -41 -70q-135 -82 -229 -82q-102 0 -193 62q-125 86 -359 469.5t-374 693.5q-9 12 -26.5 30.5t-30.5 18.5q-21 0 -21 -41l-74 -1036v-4
q0 -12 -16 -30.5t-61 -18.5q-64 0 -152 32q-108 21 -157.5 41t-73 65.5t-23.5 139.5q0 18 4 72t4 88q24 152 54 561z" />
    <glyph glyph-name="AE" unicode="&#x416;" horiz-adv-x="2892" 
d="M1217 983q4 25 4 61q0 54 -33 54q-6 0 -23.5 -7.5t-29.5 -9.5q-154 -81 -286.5 -251t-224.5 -375.5t-141 -405.5q-11 -7 -39.5 -18t-66.5 -11q-98 0 -168 86q-209 248 -209 332q0 9 12 45q326 592 770 926q15 13 44.5 25.5t29.5 23.5q0 38 -123 123q-30 35 -93 113.5
t-136 185.5q-71 107 -160 305t-106 301q0 3 -2 7l-3 6q0 33 23 55t47 22q29 0 116 18.5t130 18.5q25 0 49 -8q52 -23 84.5 -90.5t89.5 -235t106.5 -279t141.5 -235.5q32 -48 93 -120t104 -72q36 0 49 53q14 63 19.5 192t7.5 328.5t5 290.5q7 127 66 127q12 0 78 -16
q109 -42 233 -115q56 -35 67 -54.5t11 -72.5l-24 -668q0 -4 -2.5 -14t-2.5 -14q0 -62 41 -62q20 0 45 25q129 114 226.5 250t174.5 289.5t189 410.5q2 9 11 23t34 14q43 0 103 -49q104 -96 142 -149.5t38 -112.5q0 -62 -12 -99q-53 -166 -154 -364.5t-212.5 -345
t-195.5 -162.5q-57 -19 -57 -45q0 -16 29 -57q180 -254 348 -533q76 -122 146 -209.5t147.5 -170.5t169.5 -181q49 -37 49 -90q0 -46 -41 -70q-135 -82 -229 -82q-102 0 -193 62q-125 86 -359 469.5t-374 693.5q-9 12 -26.5 30.5t-30.5 18.5q-21 0 -21 -41l-74 -1036v-4
q0 -12 -16 -30.5t-61 -18.5q-64 0 -152 32q-108 21 -157.5 41t-73 65.5t-23.5 139.5q0 18 4 72t4 88q24 152 54 561z" />
    <glyph glyph-name="Ccedilla" unicode="&#xc7;" horiz-adv-x="1626" 
d="M590 2101q-61 -143 -135 -143q-9 0 -49 20q-33 24 -78.5 57t-87.5 75t-56 85q-8 34 -8 46q0 19 8 53q75 136 185 217q100 70 182.5 100t210.5 39h24q218 0 443 -139q127 -74 192.5 -183t65.5 -243q0 -295 -316 -623q-8 -8 -8 -28q0 -51 70 -62q162 -32 245 -170.5
t83 -333.5q0 -168 -59.5 -338.5t-174.5 -304.5q-229 -262 -561 -262q-156 0 -344 70q-337 151 -442 426q-33 83 -33 127q0 69 90 176q77 91 176 115h16q58 0 123 -46q51 -41 78 -245q17 -92 62.5 -169.5t89.5 -92.5q38 -17 65 -17q105 0 230 119q81 75 124 222t43 290
q0 70 -4 94q-54 152 -233 152q-17 0 -61 -4t-70 -4q-9 0 -21.5 -2.5t-15.5 -2.5q-41 0 -63.5 18.5t-38.5 56.5t-37 89q-29 63 -29 82q0 32 19 43.5t107 46.5t148 74q91 59 158 162.5t100 209.5t33 173q0 180 -172 180h-24q-66 -6 -137.5 -61.5t-112.5 -143.5z" />
    <glyph glyph-name="Ccedilla" unicode="&#x417;" horiz-adv-x="1626" 
d="M590 2101q-61 -143 -135 -143q-9 0 -49 20q-33 24 -78.5 57t-87.5 75t-56 85q-8 34 -8 46q0 19 8 53q75 136 185 217q100 70 182.5 100t210.5 39h24q218 0 443 -139q127 -74 192.5 -183t65.5 -243q0 -295 -316 -623q-8 -8 -8 -28q0 -51 70 -62q162 -32 245 -170.5
t83 -333.5q0 -168 -59.5 -338.5t-174.5 -304.5q-229 -262 -561 -262q-156 0 -344 70q-337 151 -442 426q-33 83 -33 127q0 69 90 176q77 91 176 115h16q58 0 123 -46q51 -41 78 -245q17 -92 62.5 -169.5t89.5 -92.5q38 -17 65 -17q105 0 230 119q81 75 124 222t43 290
q0 70 -4 94q-54 152 -233 152q-17 0 -61 -4t-70 -4q-9 0 -21.5 -2.5t-15.5 -2.5q-41 0 -63.5 18.5t-38.5 56.5t-37 89q-29 63 -29 82q0 32 19 43.5t107 46.5t148 74q91 59 158 162.5t100 209.5t33 173q0 180 -172 180h-24q-66 -6 -137.5 -61.5t-112.5 -143.5z" />
    <glyph glyph-name="Egrave" unicode="&#xc8;" horiz-adv-x="1913" 
d="M184 803q1 163 7 319t15.5 316t23.5 378t20 318q7 195 15.5 302t28.5 164.5t58 57.5q44 0 115 -65q140 -125 191 -210t51 -192q0 -62 -21 -213q-26 -148 -41.5 -368t-15.5 -504q133 247 232 426t255.5 457.5t224.5 398.5q111 188 205 188q70 0 144 -86q61 -72 61 -159
q0 -81 -65 -205q-13 -195 -13 -348v-480q0 -342 27 -607.5t88 -571.5q16 -124 16 -139q0 -62 -45 -62q-33 0 -164 62q-154 70 -222.5 127t-95 161.5t-26.5 317.5q0 65 5.5 178.5t7.5 206.5q0 18 -2 47t-2 43q0 168 24 504q-97 -145 -212.5 -380t-192.5 -374
q-222 -516 -222 -614q3 -39 10 -97.5t7 -70.5q0 -29 -29 -29h-4q-222 38 -311 86t-120.5 172.5t-31.5 425.5q0 18 2 59t2 60z" />
    <glyph glyph-name="Egrave" unicode="&#x418;" horiz-adv-x="1913" 
d="M184 803q1 163 7 319t15.5 316t23.5 378t20 318q7 195 15.5 302t28.5 164.5t58 57.5q44 0 115 -65q140 -125 191 -210t51 -192q0 -62 -21 -213q-26 -148 -41.5 -368t-15.5 -504q133 247 232 426t255.5 457.5t224.5 398.5q111 188 205 188q70 0 144 -86q61 -72 61 -159
q0 -81 -65 -205q-13 -195 -13 -348v-480q0 -342 27 -607.5t88 -571.5q16 -124 16 -139q0 -62 -45 -62q-33 0 -164 62q-154 70 -222.5 127t-95 161.5t-26.5 317.5q0 65 5.5 178.5t7.5 206.5q0 18 -2 47t-2 43q0 168 24 504q-97 -145 -212.5 -380t-192.5 -374
q-222 -516 -222 -614q3 -39 10 -97.5t7 -70.5q0 -29 -29 -29h-4q-222 38 -311 86t-120.5 172.5t-31.5 425.5q0 18 2 59t2 60z" />
    <glyph glyph-name="Eacute" unicode="&#xc9;" horiz-adv-x="1913" 
d="M1253 2998q27 21 62 21q49 0 102 -35t53 -64v-12q0 -55 -68.5 -127.5t-197.5 -138.5q-103 -49 -147 -49q-56 0 -209 86q-71 43 -115.5 115t-44.5 126q0 15 12 54q70 98 152 98q56 0 115 -53q86 -86 151 -86q63 0 135 65zM250 2134q7 195 15.5 302t28.5 164.5t58 57.5
q44 0 115 -65q140 -125 191 -210t51 -192q0 -62 -21 -213q-26 -148 -41.5 -368t-15.5 -504q133 247 232 426t255.5 457.5t224.5 398.5q113 192 209 192q70 0 140 -90q57 -74 57 -163q0 -85 -61 -201q-13 -195 -13 -348v-480q0 -342 27 -607.5t88 -571.5q16 -124 16 -139
q0 -62 -45 -62q-33 0 -164 62q-154 70 -222.5 127t-95 161.5t-26.5 317.5q0 65 5.5 178.5t7.5 206.5q0 18 -2 47t-2 43q0 168 24 504q-97 -145 -212.5 -380t-192.5 -374q-222 -516 -222 -614q3 -39 10 -97.5t7 -70.5q0 -29 -29 -29h-4q-222 38 -311 86t-120.5 172.5
t-31.5 425.5q0 18 2 59t2 60q1 163 7 319t15.5 316t23.5 378t20 318z" />
    <glyph glyph-name="Eacute" unicode="&#x419;" horiz-adv-x="1913" 
d="M1253 2998q27 21 62 21q49 0 102 -35t53 -64v-12q0 -55 -68.5 -127.5t-197.5 -138.5q-103 -49 -147 -49q-56 0 -209 86q-71 43 -115.5 115t-44.5 126q0 15 12 54q70 98 152 98q56 0 115 -53q86 -86 151 -86q63 0 135 65zM250 2134q7 195 15.5 302t28.5 164.5t58 57.5
q44 0 115 -65q140 -125 191 -210t51 -192q0 -62 -21 -213q-26 -148 -41.5 -368t-15.5 -504q133 247 232 426t255.5 457.5t224.5 398.5q113 192 209 192q70 0 140 -90q57 -74 57 -163q0 -85 -61 -201q-13 -195 -13 -348v-480q0 -342 27 -607.5t88 -571.5q16 -124 16 -139
q0 -62 -45 -62q-33 0 -164 62q-154 70 -222.5 127t-95 161.5t-26.5 317.5q0 65 5.5 178.5t7.5 206.5q0 18 -2 47t-2 43q0 168 24 504q-97 -145 -212.5 -380t-192.5 -374q-222 -516 -222 -614q3 -39 10 -97.5t7 -70.5q0 -29 -29 -29h-4q-222 38 -311 86t-120.5 172.5
t-31.5 425.5q0 18 2 59t2 60q1 163 7 319t15.5 316t23.5 378t20 318z" />
    <glyph glyph-name="Ecircumflex" unicode="&#xca;" horiz-adv-x="1831" 
d="M1085 1188q39 -48 119.5 -185.5t175.5 -297.5q99 -165 211 -296.5t334 -375.5q33 -39 33 -58q0 -20 -49 -36q-18 -11 -59.5 -34.5t-90 -40t-96.5 -16.5q-99 0 -180 70q-101 95 -201 220t-202 285.5t-187 329t-143 328.5q-9 12 -26.5 30.5t-31.5 18.5q-20 0 -20 -45
l-74 -1032v-8q0 -45 -78 -45q-60 0 -151 33q-104 20 -155.5 41t-75 66t-23.5 139q0 18 4 72t4 87q42 288 81 850.5t54 1165.5q11 126 70 126q20 0 73 -20q115 -43 234 -115q57 -35 67.5 -53.5t10.5 -73.5l-25 -663q0 -1 -2 -11t-2 -14q0 -65 41 -65q25 0 45 20
q189 169 306.5 371.5t283.5 578.5q2 10 11 25.5t34 15.5q38 0 102 -53q103 -92 142 -145t39 -113q0 -61 -13 -98q-72 -238 -228.5 -488t-328.5 -389q-45 -34 -45 -61q0 -17 12 -41z" />
    <glyph glyph-name="Ecircumflex" unicode="&#x41a;" horiz-adv-x="1831" 
d="M1085 1188q39 -48 119.5 -185.5t175.5 -297.5q99 -165 211 -296.5t334 -375.5q33 -39 33 -58q0 -20 -49 -36q-18 -11 -59.5 -34.5t-90 -40t-96.5 -16.5q-99 0 -180 70q-101 95 -201 220t-202 285.5t-187 329t-143 328.5q-9 12 -26.5 30.5t-31.5 18.5q-20 0 -20 -45
l-74 -1032v-8q0 -45 -78 -45q-60 0 -151 33q-104 20 -155.5 41t-75 66t-23.5 139q0 18 4 72t4 87q42 288 81 850.5t54 1165.5q11 126 70 126q20 0 73 -20q115 -43 234 -115q57 -35 67.5 -53.5t10.5 -73.5l-25 -663q0 -1 -2 -11t-2 -14q0 -65 41 -65q25 0 45 20
q189 169 306.5 371.5t283.5 578.5q2 10 11 25.5t34 15.5q38 0 102 -53q103 -92 142 -145t39 -113q0 -61 -13 -98q-72 -238 -228.5 -488t-328.5 -389q-45 -34 -45 -61q0 -17 12 -41z" />
    <glyph glyph-name="Edieresis" unicode="&#xcb;" horiz-adv-x="1671" 
d="M1036 2503q59 -39 94 -79t53.5 -83.5t33 -114.5t24.5 -121q85 -361 149 -695t105 -587.5t102 -662.5q21 -66 21 -119q0 -86 -123 -86q-116 0 -221 67.5t-184 317.5q-89 495 -132 1221q-6 180 -61 180q-22 0 -49 -41q-61 -127 -143 -396t-139.5 -578t-57.5 -554
q0 -10 2 -32t2 -29v-58q0 -90 -53 -90q-39 0 -103 41q-165 117 -240 202t-75 200q0 5 2 22t2 27q172 1195 668 2048q55 98 102 98q49 0 221 -98z" />
    <glyph glyph-name="Edieresis" unicode="&#x41b;" horiz-adv-x="1671" 
d="M1036 2503q59 -39 94 -79t53.5 -83.5t33 -114.5t24.5 -121q85 -361 149 -695t105 -587.5t102 -662.5q21 -66 21 -119q0 -86 -123 -86q-116 0 -221 67.5t-184 317.5q-89 495 -132 1221q-6 180 -61 180q-22 0 -49 -41q-61 -127 -143 -396t-139.5 -578t-57.5 -554
q0 -10 2 -32t2 -29v-58q0 -90 -53 -90q-39 0 -103 41q-165 117 -240 202t-75 200q0 5 2 22t2 27q172 1195 668 2048q55 98 102 98q49 0 221 -98z" />
    <glyph glyph-name="Igrave" unicode="&#xcc;" horiz-adv-x="2482" 
d="M549 340v-78q0 -262 -119 -262h-16q-88 0 -213 127q-144 113 -144 328q0 13 2 42t2 44q27 107 58.5 383.5t53.5 432.5t84.5 408t172.5 525q0 3 2 12t2 16q0 31 -45 140q-61 148 -61 176q0 32 65 32h62q227 -8 336 -149.5t176 -378.5q33 -95 62 -203t50 -203.5
t38.5 -180.5t29.5 -142q13 -176 53 -176t78 209q128 569 451 1048q50 70 106 70q72 0 213 -111q161 -100 184 -311q0 -51 -2 -152t-2 -147q0 -281 10 -523.5t33.5 -471.5t63.5 -447t94 -405q4 -8 10 -26t6 -36q0 -41 -45 -41q-49 0 -209 82q-164 64 -193.5 88t-55.5 125
q-105 503 -111 1327q0 144 -45 144q-38 0 -86 -135q-223 -722 -238 -1299q0 -98 -57 -98q-40 0 -135 45q-118 56 -162 87.5t-65 75t-60 165.5l-258 1028q-39 164 -70 164q-27 0 -41 -136q-7 -97 -27.5 -330t-31 -403t-10.5 -323q0 -28 2 -79t2 -77z" />
    <glyph glyph-name="Igrave" unicode="&#x41c;" horiz-adv-x="2482" 
d="M549 340v-78q0 -262 -119 -262h-16q-88 0 -213 127q-144 113 -144 328q0 13 2 42t2 44q27 107 58.5 383.5t53.5 432.5t84.5 408t172.5 525q0 3 2 12t2 16q0 31 -45 140q-61 148 -61 176q0 32 65 32h62q227 -8 336 -149.5t176 -378.5q33 -95 62 -203t50 -203.5
t38.5 -180.5t29.5 -142q13 -176 53 -176t78 209q128 569 451 1048q50 70 106 70q72 0 213 -111q161 -100 184 -311q0 -51 -2 -152t-2 -147q0 -281 10 -523.5t33.5 -471.5t63.5 -447t94 -405q4 -8 10 -26t6 -36q0 -41 -45 -41q-49 0 -209 82q-164 64 -193.5 88t-55.5 125
q-105 503 -111 1327q0 144 -45 144q-38 0 -86 -135q-223 -722 -238 -1299q0 -98 -57 -98q-40 0 -135 45q-118 56 -162 87.5t-65 75t-60 165.5l-258 1028q-39 164 -70 164q-27 0 -41 -136q-7 -97 -27.5 -330t-31 -403t-10.5 -323q0 -28 2 -79t2 -77z" />
    <glyph glyph-name="Iacute" unicode="&#xcd;" horiz-adv-x="1872" 
d="M1225 2236v29q0 291 123 291t299 -299q32 -60 32 -143q0 -43 -14 -113t-14 -88q0 -2 2 -6t2 -6q-25 -132 -45.5 -394t-20.5 -540q0 -565 78 -856q21 -101 21 -140q0 -57 -50 -57q-40 0 -159 57q-154 70 -222 126t-95 156.5t-27 303.5q0 82 8 410q8 32 8 90
q0 135 -143 135q-47 0 -189 -25q-94 -3 -127 -40t-33 -140q0 -33 14.5 -242t14.5 -413v-78q0 -49 6 -116t6 -81q0 -57 -32 -57q-211 37 -301.5 80t-128 151t-37.5 342q0 152 4 234q8 58 8 74q0 44 -22.5 77.5t-96.5 114.5q-4 29 -19.5 56.5t-50 79.5t-50 82t-15.5 52
q0 53 74 70q107 16 146 38.5t52 81t24 277t19 324.5q8 56 16.5 208t28.5 220t74 68q40 0 103 -37q145 -128 195 -197.5t50 -134.5q0 -24 -14 -114t-14 -169q-37 -346 -37 -340q0 -66 24 -92t82 -26q35 0 140.5 15t158.5 21q34 8 49 26.5t26 77t30 230t39 346.5z" />
    <glyph glyph-name="Iacute" unicode="&#x41d;" horiz-adv-x="1872" 
d="M1225 2236v29q0 291 123 291t299 -299q32 -60 32 -143q0 -43 -14 -113t-14 -88q0 -2 2 -6t2 -6q-25 -132 -45.5 -394t-20.5 -540q0 -565 78 -856q21 -101 21 -140q0 -57 -50 -57q-40 0 -159 57q-154 70 -222 126t-95 156.5t-27 303.5q0 82 8 410q8 32 8 90
q0 135 -143 135q-47 0 -189 -25q-94 -3 -127 -40t-33 -140q0 -33 14.5 -242t14.5 -413v-78q0 -49 6 -116t6 -81q0 -57 -32 -57q-211 37 -301.5 80t-128 151t-37.5 342q0 152 4 234q8 58 8 74q0 44 -22.5 77.5t-96.5 114.5q-4 29 -19.5 56.5t-50 79.5t-50 82t-15.5 52
q0 53 74 70q107 16 146 38.5t52 81t24 277t19 324.5q8 56 16.5 208t28.5 220t74 68q40 0 103 -37q145 -128 195 -197.5t50 -134.5q0 -24 -14 -114t-14 -169q-37 -346 -37 -340q0 -66 24 -92t82 -26q35 0 140.5 15t158.5 21q34 8 49 26.5t26 77t30 230t39 346.5z" />
    <glyph glyph-name="Icircumflex" unicode="&#xce;" 
d="M1077 1937q-5 25 -44.5 79.5t-91 98.5t-89.5 44q-44 0 -61 -45q-109 -180 -169.5 -441t-60.5 -518q0 -385 119 -623q49 -139 135 -139q54 0 114.5 67t102.5 175q127 377 127 745q0 291 -82 557zM430 2523q121 176 188 176q55 0 173 -110q141 -148 180 -148q11 0 61 25
q68 33 90 33q55 0 131 -95q186 -271 296 -610.5t110 -667.5q0 -219 -51.5 -420t-163 -372t-281.5 -293q-112 -57 -205 -57q-111 0 -290 106q-247 152 -395 400t-179 571q-28 178 -28 319q0 202 40 407t122.5 397t201.5 339z" />
    <glyph glyph-name="Icircumflex" unicode="&#x41e;" 
d="M1077 1937q-5 25 -44.5 79.5t-91 98.5t-89.5 44q-44 0 -61 -45q-109 -180 -169.5 -441t-60.5 -518q0 -385 119 -623q49 -139 135 -139q54 0 114.5 67t102.5 175q127 377 127 745q0 291 -82 557zM430 2523q121 176 188 176q55 0 173 -110q141 -148 180 -148q11 0 61 25
q68 33 90 33q55 0 131 -95q186 -271 296 -610.5t110 -667.5q0 -219 -51.5 -420t-163 -372t-281.5 -293q-112 -57 -205 -57q-111 0 -290 106q-247 152 -395 400t-179 571q-28 178 -28 319q0 202 40 407t122.5 397t201.5 339z" />
    <glyph glyph-name="Idieresis" unicode="&#xcf;" horiz-adv-x="1913" 
d="M295 2077h-8q-32 0 -80 -10.5t-72 -10.5q-44 0 -90 29q-45 31 -45 131q0 90 33 225q25 128 188 148q586 45 1090 61h12q123 0 231.5 -40t133.5 -111q49 -152 49 -181q0 -45 -21 -65q-20 -31 -20 -287q-1 -50 -11 -380t-10 -578q0 -464 37 -893v-99q0 -98 -53 -98
q-31 0 -139 53q-172 93 -227.5 141t-74 152t-18.5 367v364q0 21 19 226.5t36 450.5t27 536q-92 -1 -182.5 -11t-183 -24t-179.5 -27q-12 -53 -12 -307v-573q0 -677 -49 -1028q-41 -230 -135 -230q-64 0 -168 86q-162 122 -222.5 185.5t-60.5 113.5q0 33 58 164.5t85 278.5
q66 368 66 962q0 42 -2 136t-2 143z" />
    <glyph glyph-name="Idieresis" unicode="&#x41f;" horiz-adv-x="1913" 
d="M295 2077h-8q-32 0 -80 -10.5t-72 -10.5q-44 0 -90 29q-45 31 -45 131q0 90 33 225q25 128 188 148q586 45 1090 61h12q123 0 231.5 -40t133.5 -111q49 -152 49 -181q0 -45 -21 -65q-20 -31 -20 -287q-1 -50 -11 -380t-10 -578q0 -464 37 -893v-99q0 -98 -53 -98
q-31 0 -139 53q-172 93 -227.5 141t-74 152t-18.5 367v364q0 21 19 226.5t36 450.5t27 536q-92 -1 -182.5 -11t-183 -24t-179.5 -27q-12 -53 -12 -307v-573q0 -677 -49 -1028q-41 -230 -135 -230q-64 0 -168 86q-162 122 -222.5 185.5t-60.5 113.5q0 33 58 164.5t85 278.5
q66 368 66 962q0 42 -2 136t-2 143z" />
    <glyph glyph-name="Eth" unicode="&#xd0;" horiz-adv-x="1671" 
d="M201 324q-8 336 -8 454q0 239 9 442.5t29.5 386t51.5 363.5v53q0 53 -25 99.5t-119 167.5q-57 92 -57 114q0 43 65 78q287 123 558 123q230 0 419.5 -84t315.5 -217.5t174 -275.5q37 -108 37 -205q0 -302 -340 -701q-224 -241 -332 -241q-72 0 -152 86q-79 98 -114 98
q-25 0 -25 -74q0 -549 12 -921q-6 -70 -65 -70q-39 0 -164 53q-173 21 -223.5 71t-50.5 159q0 6 2 20t2 21zM729 2028v-70q0 -65 -16 -148q-45 -209 -45 -315q0 -131 69 -131q76 0 258 164q217 256 217 422q0 180 -249 180q-16 0 -53 -2t-58 -2q-82 -9 -99.5 -22t-23.5 -76z
" />
    <glyph glyph-name="Eth" unicode="&#x420;" horiz-adv-x="1671" 
d="M201 324q-8 336 -8 454q0 239 9 442.5t29.5 386t51.5 363.5v53q0 53 -25 99.5t-119 167.5q-57 92 -57 114q0 43 65 78q287 123 558 123q230 0 419.5 -84t315.5 -217.5t174 -275.5q37 -108 37 -205q0 -302 -340 -701q-224 -241 -332 -241q-72 0 -152 86q-79 98 -114 98
q-25 0 -25 -74q0 -549 12 -921q-6 -70 -65 -70q-39 0 -164 53q-173 21 -223.5 71t-50.5 159q0 6 2 20t2 21zM729 2028v-70q0 -65 -16 -148q-45 -209 -45 -315q0 -131 69 -131q76 0 258 164q217 256 217 422q0 180 -249 180q-16 0 -53 -2t-58 -2q-82 -9 -99.5 -22t-23.5 -76z
" />
    <glyph glyph-name="Ntilde" unicode="&#xd1;" horiz-adv-x="1671" 
d="M979 2241q-189 -141 -299.5 -458.5t-110.5 -664.5q0 -365 127 -631q44 -86 99 -86q53 0 113 65.5t108 171t65 214.5q24 168 144 168q50 0 104.5 -33.5t87.5 -85.5q90 -133 90 -258q0 -131 -102 -324q-69 -132 -178 -222.5t-203 -96.5h-41q-435 0 -684.5 353t-249.5 933
q0 109 17 287q42 251 135.5 456t220.5 346.5t273 216t288 74.5q94 0 193 -32q97 -37 188 -144.5t146 -239t55 -239.5q0 -99 -51.5 -158t-153.5 -59q-53 0 -119 21q-106 20 -106 86l4 8q0 344 -115 344q3 0 -45 -12z" />
    <glyph glyph-name="Ntilde" unicode="&#x421;" horiz-adv-x="1671" 
d="M979 2241q-189 -141 -299.5 -458.5t-110.5 -664.5q0 -365 127 -631q44 -86 99 -86q53 0 113 65.5t108 171t65 214.5q24 168 144 168q50 0 104.5 -33.5t87.5 -85.5q90 -133 90 -258q0 -131 -102 -324q-69 -132 -178 -222.5t-203 -96.5h-41q-435 0 -684.5 353t-249.5 933
q0 109 17 287q42 251 135.5 456t220.5 346.5t273 216t288 74.5q94 0 193 -32q97 -37 188 -144.5t146 -239t55 -239.5q0 -99 -51.5 -158t-153.5 -59q-53 0 -119 21q-106 20 -106 86l4 8q0 344 -115 344q3 0 -45 -12z" />
    <glyph glyph-name="Ograve" unicode="&#xd2;" horiz-adv-x="1466" 
d="M1126 2638h21q107 0 207 -99t137 -204q8 -42 8 -58q0 -61 -115 -61q-120 -6 -203.5 -11t-112 -10.5t-36.5 -16.5t-8 -40q-82 -622 -82 -1233q0 -178 5 -316.5t10.5 -245.5t9.5 -191q-7 -79 -21 -119.5t-53 -40.5q-25 0 -90 28q-127 61 -195 103.5t-106.5 105t-38.5 160.5
q0 29 8 103q21 786 57 1355q21 126 21 185q0 102 -82 102q-66 0 -152 -29q-80 -20 -94 -20q-86 0 -150.5 57.5t-90.5 134.5q-25 79 -25 107q0 96 90 127q427 127 1008 127h73z" />
    <glyph glyph-name="Ograve" unicode="&#x422;" horiz-adv-x="1466" 
d="M1126 2638h21q107 0 207 -99t137 -204q8 -42 8 -58q0 -61 -115 -61q-120 -6 -203.5 -11t-112 -10.5t-36.5 -16.5t-8 -40q-82 -622 -82 -1233q0 -178 5 -316.5t10.5 -245.5t9.5 -191q-7 -79 -21 -119.5t-53 -40.5q-25 0 -90 28q-127 61 -195 103.5t-106.5 105t-38.5 160.5
q0 29 8 103q21 786 57 1355q21 126 21 185q0 102 -82 102q-66 0 -152 -29q-80 -20 -94 -20q-86 0 -150.5 57.5t-90.5 134.5q-25 79 -25 107q0 96 90 127q427 127 1008 127h73z" />
    <glyph glyph-name="Oacute" unicode="&#xd3;" horiz-adv-x="1630" 
d="M1163 2535q11 103 90 103q75 0 181 -78q59 -41 117.5 -158.5t58.5 -234.5v-17q-92 -461 -332 -1052q-189 -463 -504 -1053q-59 -97 -97 -138.5t-79 -41.5t-131 65q-234 170 -234 271q0 34 41 78q262 308 414 614q12 48 12 57q0 69 -77 86q-120 32 -210.5 172
t-177.5 413.5t-210 762.5q-13 62 -13 70q0 127 250 212q6 0 20.5 2.5t24.5 2.5q62 0 103 -45t69 -168q94 -583 262 -983q32 -82 90 -82q52 0 74 45q77 199 133.5 444.5t124.5 652.5z" />
    <glyph glyph-name="Oacute" unicode="&#x423;" horiz-adv-x="1630" 
d="M1163 2535q11 103 90 103q75 0 181 -78q59 -41 117.5 -158.5t58.5 -234.5v-17q-92 -461 -332 -1052q-189 -463 -504 -1053q-59 -97 -97 -138.5t-79 -41.5t-131 65q-234 170 -234 271q0 34 41 78q262 308 414 614q12 48 12 57q0 69 -77 86q-120 32 -210.5 172
t-177.5 413.5t-210 762.5q-13 62 -13 70q0 127 250 212q6 0 20.5 2.5t24.5 2.5q62 0 103 -45t69 -168q94 -583 262 -983q32 -82 90 -82q52 0 74 45q77 199 133.5 444.5t124.5 652.5z" />
    <glyph glyph-name="Ocircumflex" unicode="&#xd4;" horiz-adv-x="2441" 
d="M999 1561q5 53 5 182t4 170v29q0 12 -13 12h-41q-101 -11 -213 -111q-105 -96 -150 -195t-83 -321q0 -15 -4 -47t-4 -47q0 -116 50 -189t126 -73q1 0 10 2t14 2q110 15 199.5 77.5t95.5 131.5v168q0 131 4 209zM995 287v397q-127 -33 -229 -33q-206 0 -371 90.5
t-255.5 239.5t-90.5 313q0 5 2 19t2 18q34 553 340 811q269 228 631 250q-4 25 -4 94v164q0 78 65 78q69 0 242 -111q76 -45 105.5 -103t29.5 -151v-20q329 0 574 -182t323 -420q37 -110 37 -221q0 -332 -336 -729q-112 -132 -190 -195.5t-141 -63.5q-71 0 -148 91
q-73 106 -106 106q-29 0 -29 -82q3 -49 20.5 -278.5t20.5 -348.5q-6 -73 -62 -73q-42 0 -159 53q-169 24 -222 76.5t-53 156.5q0 9 2 27t2 27zM1446 1835q-5 -107 -6.5 -232t-1.5 -137q0 -26 -2 -75t-2 -68q0 -311 77 -311q59 0 258 192q193 243 193 455q0 151 -100 243.5
t-244 92.5q-49 0 -70 -4q-68 -5 -85 -39.5t-17 -116.5z" />
    <glyph glyph-name="Ocircumflex" unicode="&#x424;" horiz-adv-x="2441" 
d="M999 1561q5 53 5 182t4 170v29q0 12 -13 12h-41q-101 -11 -213 -111q-105 -96 -150 -195t-83 -321q0 -15 -4 -47t-4 -47q0 -116 50 -189t126 -73q1 0 10 2t14 2q110 15 199.5 77.5t95.5 131.5v168q0 131 4 209zM995 287v397q-127 -33 -229 -33q-206 0 -371 90.5
t-255.5 239.5t-90.5 313q0 5 2 19t2 18q34 553 340 811q269 228 631 250q-4 25 -4 94v164q0 78 65 78q69 0 242 -111q76 -45 105.5 -103t29.5 -151v-20q329 0 574 -182t323 -420q37 -110 37 -221q0 -332 -336 -729q-112 -132 -190 -195.5t-141 -63.5q-71 0 -148 91
q-73 106 -106 106q-29 0 -29 -82q3 -49 20.5 -278.5t20.5 -348.5q-6 -73 -62 -73q-42 0 -159 53q-169 24 -222 76.5t-53 156.5q0 9 2 27t2 27zM1446 1835q-5 -107 -6.5 -232t-1.5 -137q0 -26 -2 -75t-2 -68q0 -311 77 -311q59 0 258 192q193 243 193 455q0 151 -100 243.5
t-244 92.5q-49 0 -70 -4q-68 -5 -85 -39.5t-17 -116.5z" />
    <glyph glyph-name="Otilde" unicode="&#xd5;" horiz-adv-x="1712" 
d="M582 1434q8 24 8 41q0 20 -4 28q-97 206 -463 815q-33 64 -33 103q0 75 119 172q92 69 151 69q61 0 152 -106q168 -277 279 -524q48 -115 86 -115q27 0 57 53q183 308 442 586q35 33 58 33q39 0 110 -107q90 -153 90 -266q0 -66 -28 -94q-251 -289 -447 -627
q-24 -30 -24 -61q0 -19 12 -37q135 -254 221.5 -424t176 -374.5t143.5 -381.5q8 -40 8 -61q0 -56 -37.5 -89t-192.5 -137q-18 -12 -49 -12q-37 0 -75 23t-56 47q-124 299 -344 856q-57 143 -90 143q-22 0 -41 -45q-236 -465 -328 -856q-19 -78 -53 -78q-22 0 -74 33
q-303 208 -303 377q0 53 37 151q176 405 492 865z" />
    <glyph glyph-name="Otilde" unicode="&#x425;" horiz-adv-x="1712" 
d="M582 1434q8 24 8 41q0 20 -4 28q-97 206 -463 815q-33 64 -33 103q0 75 119 172q92 69 151 69q61 0 152 -106q168 -277 279 -524q48 -115 86 -115q27 0 57 53q183 308 442 586q35 33 58 33q39 0 110 -107q90 -153 90 -266q0 -66 -28 -94q-251 -289 -447 -627
q-24 -30 -24 -61q0 -19 12 -37q135 -254 221.5 -424t176 -374.5t143.5 -381.5q8 -40 8 -61q0 -56 -37.5 -89t-192.5 -137q-18 -12 -49 -12q-37 0 -75 23t-56 47q-124 299 -344 856q-57 143 -90 143q-22 0 -41 -45q-236 -465 -328 -856q-19 -78 -53 -78q-22 0 -74 33
q-303 208 -303 377q0 53 37 151q176 405 492 865z" />
    <glyph glyph-name="Odieresis" unicode="&#xd6;" horiz-adv-x="1958" 
d="M1438 8q-260 -6 -560.5 -33.5t-394.5 -52.5q-56 -8 -77 -8q-164 0 -246 209q-33 77 -33 131q0 107 90 139q12 129 12 385q0 134 -4 457t-4 477q0 184 8 414q17 281 45 390.5t91 109.5q36 0 106 -41q157 -93 207.5 -156.5t50.5 -171.5q0 -25 -16 -287q-54 -680 -54 -1184
q0 -85 5.5 -203.5t7.5 -176.5q70 8 259 13t265 11q9 80 12 317t4.5 644.5t3 556t9.5 276.5q22 336 127 336q63 0 155 -98q100 -96 138 -169t38 -179q0 -66 -4 -103q-53 -596 -53 -1261q0 -209 4 -308h21q100 0 184 -69q57 -77 57 -176v-95q2 -170 21.5 -353.5t19.5 -223.5
v-21q0 -233 -139 -233q-85 0 -209 78q-168 95 -168 295q0 8 2 24t2 25q17 209 17 274v41z" />
    <glyph glyph-name="Odieresis" unicode="&#x426;" horiz-adv-x="1958" 
d="M1438 8q-260 -6 -560.5 -33.5t-394.5 -52.5q-56 -8 -77 -8q-164 0 -246 209q-33 77 -33 131q0 107 90 139q12 129 12 385q0 134 -4 457t-4 477q0 184 8 414q17 281 45 390.5t91 109.5q36 0 106 -41q157 -93 207.5 -156.5t50.5 -171.5q0 -25 -16 -287q-54 -680 -54 -1184
q0 -85 5.5 -203.5t7.5 -176.5q70 8 259 13t265 11q9 80 12 317t4.5 644.5t3 556t9.5 276.5q22 336 127 336q63 0 155 -98q100 -96 138 -169t38 -179q0 -66 -4 -103q-53 -596 -53 -1261q0 -209 4 -308h21q100 0 184 -69q57 -77 57 -176v-95q2 -170 21.5 -353.5t19.5 -223.5
v-21q0 -233 -139 -233q-85 0 -209 78q-168 95 -168 295q0 8 2 24t2 25q17 209 17 274v41z" />
    <glyph glyph-name="multiply" unicode="&#xd7;" 
d="M528 1929q-36 -198 -36 -291q0 -217 139 -217q101 0 319 135q34 8 49.5 27t26 73.5t27.5 199.5t45 380q0 5 -2 14t-2 15q0 136 33.5 215.5t89.5 79.5q121 0 299 -303q61 -111 61 -201q0 -50 -12 -106q-46 -232 -74.5 -522.5t-28.5 -579.5q0 -441 74 -737q20 -97 20 -136
q0 -61 -45 -61q-56 0 -163 57q-159 78 -229.5 140.5t-91 134t-32.5 217.5q0 64 -4 158t-4 145q0 20 4 88t4 113q13 65 13 106q0 78 -50 78q-24 0 -99 -25.5t-109 -35.5q-184 -54 -312 -54q-182 0 -274 86q-56 56 -79 120t-31.5 131t-20.5 163q0 9 -2 48t-2 67q0 184 28 471
q5 48 14 203t30 223.5t75 68.5q45 0 98 -37q165 -143 218 -223t53 -166q0 -34 -8.5 -114.5t-8.5 -147.5z" />
    <glyph glyph-name="multiply" unicode="&#x427;" 
d="M528 1929q-36 -198 -36 -291q0 -217 139 -217q101 0 319 135q34 8 49.5 27t26 73.5t27.5 199.5t45 380q0 5 -2 14t-2 15q0 136 33.5 215.5t89.5 79.5q121 0 299 -303q61 -111 61 -201q0 -50 -12 -106q-46 -232 -74.5 -522.5t-28.5 -579.5q0 -441 74 -737q20 -97 20 -136
q0 -61 -45 -61q-56 0 -163 57q-159 78 -229.5 140.5t-91 134t-32.5 217.5q0 64 -4 158t-4 145q0 20 4 88t4 113q13 65 13 106q0 78 -50 78q-24 0 -99 -25.5t-109 -35.5q-184 -54 -312 -54q-182 0 -274 86q-56 56 -79 120t-31.5 131t-20.5 163q0 9 -2 48t-2 67q0 184 28 471
q5 48 14 203t30 223.5t75 68.5q45 0 98 -37q165 -143 218 -223t53 -166q0 -34 -8.5 -114.5t-8.5 -147.5z" />
    <glyph glyph-name="Oslash" unicode="&#xd8;" horiz-adv-x="2728" 
d="M2081 520q8 83 11 315.5t4.5 632.5t3 547.5t9.5 274.5q18 270 119 270q70 0 168 -98q108 -103 138 -148.5t30 -134.5q0 -57 -4 -98q-57 -855 -57 -1299q0 -109 8 -299q74 -46 74 -110q0 -6 -2.5 -18.5t-2.5 -18.5q-17 -142 -63 -245t-113 -103h-16q-71 48 -171.5 71
t-311.5 23q-140 0 -217 -4q-768 -31 -1184 -144q-74 -16 -103 -16q-67 0 -113.5 46t-119.5 171q-45 50 -45 115q0 97 94 147q-2 221 -15.5 606.5t-13.5 598.5q0 278 29 671q17 197 44.5 275t86.5 78q64 0 217 -103q123 -80 123 -196q0 -25 -8 -107q-45 -325 -45 -1360v-405
q51 6 138.5 19.5t175.5 23t169 10.5q0 92 -4 278t-4 275q0 545 29 1089q15 262 42 362.5t85 100.5q33 0 114 -45q168 -98 207 -131t39 -102q0 -27 -10 -118t-14 -169q-58 -740 -58 -1217q0 -49 2 -149t2 -150q21 0 66.5 2.5t85.5 2.5q232 0 381 -17z" />
    <glyph glyph-name="Oslash" unicode="&#x428;" horiz-adv-x="2728" 
d="M2081 520q8 83 11 315.5t4.5 632.5t3 547.5t9.5 274.5q18 270 119 270q70 0 168 -98q108 -103 138 -148.5t30 -134.5q0 -57 -4 -98q-57 -855 -57 -1299q0 -109 8 -299q74 -46 74 -110q0 -6 -2.5 -18.5t-2.5 -18.5q-17 -142 -63 -245t-113 -103h-16q-71 48 -171.5 71
t-311.5 23q-140 0 -217 -4q-768 -31 -1184 -144q-74 -16 -103 -16q-67 0 -113.5 46t-119.5 171q-45 50 -45 115q0 97 94 147q-2 221 -15.5 606.5t-13.5 598.5q0 278 29 671q17 197 44.5 275t86.5 78q64 0 217 -103q123 -80 123 -196q0 -25 -8 -107q-45 -325 -45 -1360v-405
q51 6 138.5 19.5t175.5 23t169 10.5q0 92 -4 278t-4 275q0 545 29 1089q15 262 42 362.5t85 100.5q33 0 114 -45q168 -98 207 -131t39 -102q0 -27 -10 -118t-14 -169q-58 -740 -58 -1217q0 -49 2 -149t2 -150q21 0 66.5 2.5t85.5 2.5q232 0 381 -17z" />
    <glyph glyph-name="Ugrave" unicode="&#xd9;" horiz-adv-x="2851" 
d="M2150 2290q18 270 119 270q70 0 168 -98q108 -106 138 -150.5t30 -132.5q0 -57 -4 -98q-57 -855 -57 -1299q0 -52 2 -152t2 -147q146 -32 209 -102q86 -87 86 -221v-82q-17 -112 -17 -271q0 -69 2 -171t2 -123v-25q0 -201 -110 -201q-76 0 -221 90q-197 109 -197 304
q0 4 2 16t2 16q7 30 25.5 142t35.5 161q-85 66 -385 66q-155 0 -253 -4q-251 -10 -479.5 -32t-410.5 -52t-294 -60q-74 -16 -103 -16q-67 0 -113.5 46t-119.5 171q-49 55 -49 115q0 95 98 147q-3 155 -10 381.5t-13 430t-6 393.5q0 356 29 671q17 197 44.5 275t86.5 78
q64 0 217 -103q123 -80 123 -196q0 -25 -8 -107q-45 -325 -45 -1360v-405q51 6 138.5 19.5t175.5 23t169 10.5q0 92 -4 278t-4 275q0 545 29 1089q16 265 41.5 364t85.5 99q33 0 114 -45q168 -98 207 -131t39 -102q0 -27 -10 -117.5t-15 -169.5q-57 -758 -57 -1217
q0 -200 4 -299q21 0 64 2.5t84 2.5q202 0 385 -17q8 83 11 315.5t4.5 632.5t3 547.5t9.5 274.5z" />
    <glyph glyph-name="Ugrave" unicode="&#x429;" horiz-adv-x="2851" 
d="M2150 2290q18 270 119 270q70 0 168 -98q108 -106 138 -150.5t30 -132.5q0 -57 -4 -98q-57 -855 -57 -1299q0 -52 2 -152t2 -147q146 -32 209 -102q86 -87 86 -221v-82q-17 -112 -17 -271q0 -69 2 -171t2 -123v-25q0 -201 -110 -201q-76 0 -221 90q-197 109 -197 304
q0 4 2 16t2 16q7 30 25.5 142t35.5 161q-85 66 -385 66q-155 0 -253 -4q-251 -10 -479.5 -32t-410.5 -52t-294 -60q-74 -16 -103 -16q-67 0 -113.5 46t-119.5 171q-49 55 -49 115q0 95 98 147q-3 155 -10 381.5t-13 430t-6 393.5q0 356 29 671q17 197 44.5 275t86.5 78
q64 0 217 -103q123 -80 123 -196q0 -25 -8 -107q-45 -325 -45 -1360v-405q51 6 138.5 19.5t175.5 23t169 10.5q0 92 -4 278t-4 275q0 545 29 1089q16 265 41.5 364t85.5 99q33 0 114 -45q168 -98 207 -131t39 -102q0 -27 -10 -117.5t-15 -169.5q-57 -758 -57 -1217
q0 -200 4 -299q21 0 64 2.5t84 2.5q202 0 385 -17q8 83 11 315.5t4.5 632.5t3 547.5t9.5 274.5z" />
    <glyph glyph-name="Uacute" unicode="&#xda;" horiz-adv-x="2159" 
d="M1671 1171q-32 54 -168 54q-89 0 -200 -13q-152 -20 -168 -180q-2 -25 -8 -106.5t-9.5 -155.5t-3.5 -123q0 -106 16 -196q8 -50 58 -50q64 0 165.5 83t202.5 241q144 223 144 340q0 51 -29 106zM717 2163q-205 -18 -362.5 -50t-186.5 -32q-5 0 -22 2t-23 2
q-132 24 -221 291q0 6 -2 20t-2 21q0 58 45 106t110 57q75 11 174 16.5t257.5 12.5t174.5 8q34 0 97 4.5t104 4.5q52 0 98 -13q85 -26 165.5 -96.5t80.5 -136.5v-4q-38 -454 -45 -688q0 -8 -2 -23t-2 -18q0 -78 29 -78q3 0 40 8t66 8h8q188 0 320 -26.5t250 -112.5
q121 -93 190 -243t72 -310v-8q0 -131 -71 -268.5t-216 -317.5q-135 -175 -262.5 -267.5t-220.5 -92.5q-78 0 -131 65q-59 53 -99 53q-22 0 -45 -28q-19 -21 -61 -21q-78 0 -143 58q-67 59 -109 111t-55 73q-70 152 -70 475q15 726 70 1438z" />
    <glyph glyph-name="Uacute" unicode="&#x42a;" horiz-adv-x="2159" 
d="M1671 1171q-32 54 -168 54q-89 0 -200 -13q-152 -20 -168 -180q-2 -25 -8 -106.5t-9.5 -155.5t-3.5 -123q0 -106 16 -196q8 -50 58 -50q64 0 165.5 83t202.5 241q144 223 144 340q0 51 -29 106zM717 2163q-205 -18 -362.5 -50t-186.5 -32q-5 0 -22 2t-23 2
q-132 24 -221 291q0 6 -2 20t-2 21q0 58 45 106t110 57q75 11 174 16.5t257.5 12.5t174.5 8q34 0 97 4.5t104 4.5q52 0 98 -13q85 -26 165.5 -96.5t80.5 -136.5v-4q-38 -454 -45 -688q0 -8 -2 -23t-2 -18q0 -78 29 -78q3 0 40 8t66 8h8q188 0 320 -26.5t250 -112.5
q121 -93 190 -243t72 -310v-8q0 -131 -71 -268.5t-216 -317.5q-135 -175 -262.5 -267.5t-220.5 -92.5q-78 0 -131 65q-59 53 -99 53q-22 0 -45 -28q-19 -21 -61 -21q-78 0 -143 58q-67 59 -109 111t-55 73q-70 152 -70 475q15 726 70 1438z" />
    <glyph glyph-name="Ucircumflex" unicode="&#xdb;" horiz-adv-x="2564" 
d="M2044 20q-96 50 -155 129t-62 138q0 89 -4 252t-4 235q0 325 7 576t20.5 505t26 460t15.5 282q0 78 66 78q69 0 262 -115q139 -109 139 -250v-20q-53 -458 -53 -1028q0 -526 41 -1192v-4q0 -45 -34 -78t-81 -33h-16q-69 12 -168 65zM172 766q3 200 11 444t20 453t29 426
t42 504q0 78 103 78q41 0 106 -21q83 -26 162.5 -96.5t79.5 -136.5v-4q-38 -455 -45 -684q0 -10 -2 -26t-2 -20q0 -77 29 -77q6 0 44 8t66 8l4 4q191 -4 322.5 -31t247.5 -112q119 -91 189 -244t73 -309v-8q0 -130 -70 -267.5t-213 -318.5q-285 -361 -487 -361
q-78 0 -131 66q-53 53 -99 53q-24 0 -45 -28q-19 -21 -61 -21q-71 0 -144 57q-71 65 -110.5 114.5t-52.5 70.5q-66 139 -66 479zM1077 766q144 219 144 336q0 60 -29 106q-35 58 -168 58q-31 0 -197 -17q-156 -20 -168 -176q-24 -234 -24 -385q0 -111 16 -201q6 -49 62 -49
q62 0 162.5 83t201.5 245z" />
    <glyph glyph-name="Ucircumflex" unicode="&#x42b;" horiz-adv-x="2564" 
d="M2044 20q-96 50 -155 129t-62 138q0 89 -4 252t-4 235q0 325 7 576t20.5 505t26 460t15.5 282q0 78 66 78q69 0 262 -115q139 -109 139 -250v-20q-53 -458 -53 -1028q0 -526 41 -1192v-4q0 -45 -34 -78t-81 -33h-16q-69 12 -168 65zM172 766q3 200 11 444t20 453t29 426
t42 504q0 78 103 78q41 0 106 -21q83 -26 162.5 -96.5t79.5 -136.5v-4q-38 -455 -45 -684q0 -10 -2 -26t-2 -20q0 -77 29 -77q6 0 44 8t66 8l4 4q191 -4 322.5 -31t247.5 -112q119 -91 189 -244t73 -309v-8q0 -130 -70 -267.5t-213 -318.5q-285 -361 -487 -361
q-78 0 -131 66q-53 53 -99 53q-24 0 -45 -28q-19 -21 -61 -21q-71 0 -144 57q-71 65 -110.5 114.5t-52.5 70.5q-66 139 -66 479zM1077 766q144 219 144 336q0 60 -29 106q-35 58 -168 58q-31 0 -197 -17q-156 -20 -168 -176q-24 -234 -24 -385q0 -111 16 -201q6 -49 62 -49
q62 0 162.5 83t201.5 245z" />
    <glyph glyph-name="Udieresis" unicode="&#xdc;" horiz-adv-x="1671" 
d="M393 66q-70 63 -110 113t-54 71q-69 150 -69 475q9 502 28 826t74 1005q6 78 107 78q49 0 102 -21q84 -28 165 -98t81 -135v-4q-37 -422 -45 -688q0 -8 -2 -23t-2 -18q0 -78 28 -78q4 0 41 8t66 8h8q188 0 319.5 -26.5t249.5 -112.5q121 -93 190 -243t72 -310v-8
q0 -233 -286 -586q-280 -360 -484 -360q-78 0 -131 65q-59 53 -98 53q-24 0 -45 -28q-19 -21 -61 -21q-79 0 -144 58zM643 451q6 -50 57 -50q65 0 166.5 83t202.5 241q143 224 143 340q0 50 -28 106q-33 54 -168 54q-88 0 -201 -13q-152 -20 -168 -180q0 -10 -6.5 -99
t-10 -163t-3.5 -123q0 -106 16 -196z" />
    <glyph glyph-name="Udieresis" unicode="&#x42c;" horiz-adv-x="1671" 
d="M393 66q-70 63 -110 113t-54 71q-69 150 -69 475q9 502 28 826t74 1005q6 78 107 78q49 0 102 -21q84 -28 165 -98t81 -135v-4q-37 -422 -45 -688q0 -8 -2 -23t-2 -18q0 -78 28 -78q4 0 41 8t66 8h8q188 0 319.5 -26.5t249.5 -112.5q121 -93 190 -243t72 -310v-8
q0 -233 -286 -586q-280 -360 -484 -360q-78 0 -131 65q-59 53 -98 53q-24 0 -45 -28q-19 -21 -61 -21q-79 0 -144 58zM643 451q6 -50 57 -50q65 0 166.5 83t202.5 241q143 224 143 340q0 50 -28 106q-33 54 -168 54q-88 0 -201 -13q-152 -20 -168 -180q0 -10 -6.5 -99
t-10 -163t-3.5 -123q0 -106 16 -196z" />
    <glyph glyph-name="Yacute" unicode="&#xdd;" horiz-adv-x="1585" 
d="M369 1241q-62 131 -62 180q0 90 172 119q47 10 109 16t174.5 16.5t163.5 16.5q4 62 4 189q0 216 -25 307q-37 149 -55 189t-92 40h-8q-60 -4 -130.5 -50.5t-99.5 -125.5q-27 -86 -77 -156.5t-107 -76.5q-3 0 -16 -2t-17 -2q-77 0 -143.5 56.5t-89.5 143.5q-2 13 -7.5 37
t-5.5 41q0 124 123 242q125 105 230 158t245 59h41q146 0 261.5 -78t242.5 -250q81 -132 140 -311.5t65 -347.5h8q61 0 94 -50t33 -118q0 -71 -31 -128.5t-88 -76.5q0 -223 -28 -447q-160 -888 -832 -888q-149 23 -253.5 124.5t-147.5 239.5q-49 145 -49 221q0 217 282 217
h62q90 -14 90 -86q-13 -106 -13 -172q0 -184 70 -184q83 0 209 205q125 233 152 577q-3 66 -14 92.5t-44 26.5q-35 0 -205 -65q-125 -29 -172 -29q-72 0 -100 29.5t-59 101.5z" />
    <glyph glyph-name="Yacute" unicode="&#x42d;" horiz-adv-x="1585" 
d="M369 1241q-62 131 -62 180q0 90 172 119q47 10 109 16t174.5 16.5t163.5 16.5q4 62 4 189q0 216 -25 307q-37 149 -55 189t-92 40h-8q-60 -4 -130.5 -50.5t-99.5 -125.5q-27 -86 -77 -156.5t-107 -76.5q-3 0 -16 -2t-17 -2q-77 0 -143.5 56.5t-89.5 143.5q-2 13 -7.5 37
t-5.5 41q0 124 123 242q125 105 230 158t245 59h41q146 0 261.5 -78t242.5 -250q81 -132 140 -311.5t65 -347.5h8q61 0 94 -50t33 -118q0 -71 -31 -128.5t-88 -76.5q0 -223 -28 -447q-160 -888 -832 -888q-149 23 -253.5 124.5t-147.5 239.5q-49 145 -49 221q0 217 282 217
h62q90 -14 90 -86q-13 -106 -13 -172q0 -184 70 -184q83 0 209 205q125 233 152 577q-3 66 -14 92.5t-44 26.5q-35 0 -205 -65q-125 -29 -172 -29q-72 0 -100 29.5t-59 101.5z" />
    <glyph glyph-name="Thorn" unicode="&#xde;" horiz-adv-x="2728" 
d="M2257 2404q189 -266 299 -606.5t110 -671.5q0 -219 -51.5 -419.5t-163.5 -372t-284 -293.5q-108 -57 -201 -57q-110 0 -291 106q-500 307 -569 971q0 131 -148 131q-49 0 -184 -25q-95 -3 -129.5 -40.5t-34.5 -139.5q0 -33 14.5 -242t14.5 -413v-78q3 -55 7.5 -119
t4.5 -78q0 -57 -28 -57q-211 37 -302.5 80t-130 150.5t-38.5 342.5q0 70 8 234q0 16 2 40t2 34q0 44 -22.5 77.5t-96.5 114.5q-6 40 -68.5 137t-62.5 133q0 54 70 70q109 16 147.5 38.5t50.5 76.5t21.5 250.5t21.5 355.5q8 56 16.5 207.5t29.5 220t77 68.5q36 0 98 -37
q147 -128 198.5 -198t51.5 -134q0 -24 -16 -114t-16 -169q-25 -244 -25 -290q0 -87 28.5 -119.5t98.5 -32.5q-1 0 319 37q48 559 349 950q127 176 192 176q54 0 172 -110q142 -148 176 -148q18 0 62 25q76 33 94 33q56 0 127 -95zM2085 1937q-12 45 -91 133.5t-139 88.5
q-38 0 -61 -45q-108 -185 -166.5 -444.5t-58.5 -514.5q0 -385 119 -623q47 -139 131 -139q54 0 115 67.5t102 174.5q127 360 127 745q0 280 -78 557z" />
    <glyph glyph-name="Thorn" unicode="&#x42e;" horiz-adv-x="2728" 
d="M2257 2404q189 -266 299 -606.5t110 -671.5q0 -219 -51.5 -419.5t-163.5 -372t-284 -293.5q-108 -57 -201 -57q-110 0 -291 106q-500 307 -569 971q0 131 -148 131q-49 0 -184 -25q-95 -3 -129.5 -40.5t-34.5 -139.5q0 -33 14.5 -242t14.5 -413v-78q3 -55 7.5 -119
t4.5 -78q0 -57 -28 -57q-211 37 -302.5 80t-130 150.5t-38.5 342.5q0 70 8 234q0 16 2 40t2 34q0 44 -22.5 77.5t-96.5 114.5q-6 40 -68.5 137t-62.5 133q0 54 70 70q109 16 147.5 38.5t50.5 76.5t21.5 250.5t21.5 355.5q8 56 16.5 207.5t29.5 220t77 68.5q36 0 98 -37
q147 -128 198.5 -198t51.5 -134q0 -24 -16 -114t-16 -169q-25 -244 -25 -290q0 -87 28.5 -119.5t98.5 -32.5q-1 0 319 37q48 559 349 950q127 176 192 176q54 0 172 -110q142 -148 176 -148q18 0 62 25q76 33 94 33q56 0 127 -95zM2085 1937q-12 45 -91 133.5t-139 88.5
q-38 0 -61 -45q-108 -185 -166.5 -444.5t-58.5 -514.5q0 -385 119 -623q47 -139 131 -139q54 0 115 67.5t102 174.5q127 360 127 745q0 280 -78 557z" />
    <glyph glyph-name="germandbls" unicode="&#xdf;" horiz-adv-x="1958" 
d="M1720 2183q-45 -434 -45 -958q0 -712 82 -1119q0 -102 -25.5 -145t-89.5 -43q-7 0 -32 3.5t-36.5 5.5t-25.5 3q-170 42 -263 90.5t-93 151.5l4 8v58q0 48 -6 235t-6 326q0 26 2 87t2 89v98q0 123 -49 123q-43 0 -103 -86q-110 -138 -211 -291.5t-189.5 -321.5
t-143.5 -321q-54 -122 -81 -163.5t-79 -41.5q-61 0 -185 86q-237 139 -237 209q0 23 12 51t36.5 68.5t53.5 89.5q98 192 291 411.5t365 346.5q-196 64 -344 238.5t-148 371.5q0 73 25 139q71 248 258 421t389 231q248 65 508 65q106 0 278 -16q295 -31 295 -189
q0 -28 -4 -45q-19 -100 -68.5 -120.5t-91 -37t-45.5 -108.5zM692 1892q-53 -117 -53 -192q0 -87 61 -148q70 -69 193 -69q146 0 319 78q25 372 37 501.5t41 227.5q-170 0 -282 -66q-84 -49 -178.5 -144.5t-137.5 -187.5z" />
    <glyph glyph-name="germandbls" unicode="&#x42f;" horiz-adv-x="1958" 
d="M1720 2183q-45 -434 -45 -958q0 -712 82 -1119q0 -102 -25.5 -145t-89.5 -43q-7 0 -32 3.5t-36.5 5.5t-25.5 3q-170 42 -263 90.5t-93 151.5l4 8v58q0 48 -6 235t-6 326q0 26 2 87t2 89v98q0 123 -49 123q-43 0 -103 -86q-110 -138 -211 -291.5t-189.5 -321.5
t-143.5 -321q-54 -122 -81 -163.5t-79 -41.5q-61 0 -185 86q-237 139 -237 209q0 23 12 51t36.5 68.5t53.5 89.5q98 192 291 411.5t365 346.5q-196 64 -344 238.5t-148 371.5q0 73 25 139q71 248 258 421t389 231q248 65 508 65q106 0 278 -16q295 -31 295 -189
q0 -28 -4 -45q-19 -100 -68.5 -120.5t-91 -37t-45.5 -108.5zM692 1892q-53 -117 -53 -192q0 -87 61 -148q70 -69 193 -69q146 0 319 78q25 372 37 501.5t41 227.5q-170 0 -282 -66q-84 -49 -178.5 -144.5t-137.5 -187.5z" />
    <glyph glyph-name="agrave" unicode="&#xe0;" horiz-adv-x="1548" 
d="M930 1303v20q0 38 -22.5 66t-55.5 28q-43 0 -74 -20q-152 -98 -223.5 -276t-71.5 -371q0 -145 37 -267q23 -73 107 -73q25 0 98 20q152 84 193 258q0 60 -4.5 151.5t-4.5 143.5q0 161 21 320zM934 131q-123 -135 -291 -135q-161 0 -308.5 121.5t-215.5 320.5
q-86 246 -86 443q0 514 487 852q121 90 193 90q19 0 45 -8q147 -111 180 -111q35 0 49 90q0 4 -2 16t-2 13q0 86 78 86q75 0 176 -78q100 -61 134 -96t34 -88q0 -18 -9 -68t-12 -68q-57 -203 -57 -462q0 -486 135 -865q45 -122 45 -176q0 -69 -65 -69q-332 0 -381 131
q-36 106 -66 106q-24 0 -61 -45z" />
    <glyph glyph-name="agrave" unicode="&#x430;" horiz-adv-x="1548" 
d="M930 1303v20q0 38 -22.5 66t-55.5 28q-43 0 -74 -20q-152 -98 -223.5 -276t-71.5 -371q0 -145 37 -267q23 -73 107 -73q25 0 98 20q152 84 193 258q0 60 -4.5 151.5t-4.5 143.5q0 161 21 320zM934 131q-123 -135 -291 -135q-161 0 -308.5 121.5t-215.5 320.5
q-86 246 -86 443q0 514 487 852q121 90 193 90q19 0 45 -8q147 -111 180 -111q35 0 49 90q0 4 -2 16t-2 13q0 86 78 86q75 0 176 -78q100 -61 134 -96t34 -88q0 -18 -9 -68t-12 -68q-57 -203 -57 -462q0 -486 135 -865q45 -122 45 -176q0 -69 -65 -69q-332 0 -381 131
q-36 106 -66 106q-24 0 -61 -45z" />
    <glyph glyph-name="aacute" unicode="&#xe1;" horiz-adv-x="1303" 
d="M881 553q61 115 61 201q0 92 -61 114q-47 21 -103 21q-116 0 -246 -74q0 -53 -6 -151t-6 -148t8 -188q29 -29 70 -29q64 0 143.5 71t139.5 183zM569 1524q-11 -46 -15.5 -106.5t-6 -137.5t-2.5 -117q165 25 262 25q126 0 197 -33q103 -47 184.5 -175.5t81.5 -295.5
q0 -49 -4 -74q-58 -335 -394 -598q-87 -69 -172 -69q-92 0 -184 98q-2 -10 -14.5 -25.5t-46.5 -15.5q-27 0 -82 20q-37 15 -62.5 36.5t-59.5 58.5t-38 41q-78 72 -78 286q0 267 53 901q5 21 5 58q0 109 -66 131q-107 29 -107 131q0 65 53.5 127.5t131.5 77.5q388 33 573 33
h37q135 -3 198.5 -36.5t112.5 -164.5q13 -36 13 -70q0 -61 -140 -61q-237 0 -327 -17q-98 -13 -103 -28z" />
    <glyph glyph-name="aacute" unicode="&#x431;" horiz-adv-x="1303" 
d="M881 553q61 115 61 201q0 92 -61 114q-47 21 -103 21q-116 0 -246 -74q0 -53 -6 -151t-6 -148t8 -188q29 -29 70 -29q64 0 143.5 71t139.5 183zM569 1524q-11 -46 -15.5 -106.5t-6 -137.5t-2.5 -117q165 25 262 25q126 0 197 -33q103 -47 184.5 -175.5t81.5 -295.5
q0 -49 -4 -74q-58 -335 -394 -598q-87 -69 -172 -69q-92 0 -184 98q-2 -10 -14.5 -25.5t-46.5 -15.5q-27 0 -82 20q-37 15 -62.5 36.5t-59.5 58.5t-38 41q-78 72 -78 286q0 267 53 901q5 21 5 58q0 109 -66 131q-107 29 -107 131q0 65 53.5 127.5t131.5 77.5q388 33 573 33
h37q135 -3 198.5 -36.5t112.5 -164.5q13 -36 13 -70q0 -61 -140 -61q-237 0 -327 -17q-98 -13 -103 -28z" />
    <glyph glyph-name="acircumflex" unicode="&#xe2;" horiz-adv-x="1425" 
d="M623 66q-23 16 -37 16q-17 0 -17 -16l-32 -86h-58q-155 29 -254 126q-18 10 -45.5 36t-27.5 63q0 2 2 6t2 6q15 141 28 358t21 452t8 415v4q0 11 -13 24t-36 13q-98 4 -131 98q-25 48 -25 94q0 49 25 78q75 68 146 105t181 51q116 8 177 8q204 0 352 -62
q183 -73 296 -212t113 -291q0 -210 -188 -369q-2 -1 -8 -5.5t-8 -6.5q0 3 32 -29q109 -73 163 -184.5t54 -237.5q0 -207 -139 -352q-214 -184 -356 -184q-100 0 -225 82zM610 1180v-9q0 -49 41 -49q29 0 54 13q105 55 171 147t66 164q0 37 -4 49q-39 115 -188 115
q-68 0 -172 -37q2 -22 17 -164.5t15 -228.5zM651 831q-41 -5 -41 -40l-32 -402q24 -90 98 -90q88 0 183 112t95 236q0 41 -4 58q-52 131 -233 131q-13 0 -32.5 -2.5t-33.5 -2.5z" />
    <glyph glyph-name="acircumflex" unicode="&#x432;" horiz-adv-x="1425" 
d="M623 66q-23 16 -37 16q-17 0 -17 -16l-32 -86h-58q-155 29 -254 126q-18 10 -45.5 36t-27.5 63q0 2 2 6t2 6q15 141 28 358t21 452t8 415v4q0 11 -13 24t-36 13q-98 4 -131 98q-25 48 -25 94q0 49 25 78q75 68 146 105t181 51q116 8 177 8q204 0 352 -62
q183 -73 296 -212t113 -291q0 -210 -188 -369q-2 -1 -8 -5.5t-8 -6.5q0 3 32 -29q109 -73 163 -184.5t54 -237.5q0 -207 -139 -352q-214 -184 -356 -184q-100 0 -225 82zM610 1180v-9q0 -49 41 -49q29 0 54 13q105 55 171 147t66 164q0 37 -4 49q-39 115 -188 115
q-68 0 -172 -37q2 -22 17 -164.5t15 -228.5zM651 831q-41 -5 -41 -40l-32 -402q24 -90 98 -90q88 0 183 112t95 236q0 41 -4 58q-52 131 -233 131q-13 0 -32.5 -2.5t-33.5 -2.5z" />
    <glyph glyph-name="atilde" unicode="&#xe3;" horiz-adv-x="1102" 
d="M827 1880q139 0 202 -32t114 -169q12 -36 12 -69q0 -62 -139 -62q-182 0 -253.5 -8t-95 -36.5t-28.5 -102.5q0 -42 -14.5 -196t-14.5 -283q0 -14 2 -51t2 -56q-4 -49 -4 -160q0 -259 49 -426q62 -148 62 -209q0 -49 -45 -49q-41 0 -111 25q-186 59 -265.5 111
t-103.5 135.5t-24 257.5v82q0 310 66 749q0 10 2 27t2 22q0 106 -99 131q-110 38 -110 131q0 68 53.5 130.5t134.5 74.5q388 33 574 33h32z" />
    <glyph glyph-name="atilde" unicode="&#x433;" horiz-adv-x="1102" 
d="M827 1880q139 0 202 -32t114 -169q12 -36 12 -69q0 -62 -139 -62q-182 0 -253.5 -8t-95 -36.5t-28.5 -102.5q0 -42 -14.5 -196t-14.5 -283q0 -14 2 -51t2 -56q-4 -49 -4 -160q0 -259 49 -426q62 -148 62 -209q0 -49 -45 -49q-41 0 -111 25q-186 59 -265.5 111
t-103.5 135.5t-24 257.5v82q0 310 66 749q0 10 2 27t2 22q0 106 -99 131q-110 38 -110 131q0 68 53.5 130.5t134.5 74.5q388 33 574 33h32z" />
    <glyph glyph-name="adieresis" unicode="&#xe4;" horiz-adv-x="1343" 
d="M659 1188q-133 -323 -176 -807q45 2 141 7t138 5q20 0 57 -2t49 -2q-40 228 -90 762q-30 172 -45 172q-10 0 -74 -135zM504 1610q19 33 45 43.5t52 20t38 34.5v8q0 15 -14.5 49t-14.5 45q0 13 4 17q43 61 78 61q37 0 176 -57q73 -41 101 -69t51.5 -103.5t60.5 -261.5
q17 -86 53.5 -265t50.5 -247.5t44.5 -237t48.5 -295.5q65 -19 65 -90v-41q-48 -213 -110 -213q-3 0 -5 1.5t-3 2.5q-66 8 -127 8h-25q-246 0 -414 -24q-151 -15 -320 -56.5t-228 -41.5h-29q-104 0 -131 200q-21 97 -21 115q0 70 50 102q16 7 54 19t52 18q38 225 102 460
t146 442.5t170 355.5z" />
    <glyph glyph-name="adieresis" unicode="&#x434;" horiz-adv-x="1343" 
d="M659 1188q-133 -323 -176 -807q45 2 141 7t138 5q20 0 57 -2t49 -2q-40 228 -90 762q-30 172 -45 172q-10 0 -74 -135zM504 1610q19 33 45 43.5t52 20t38 34.5v8q0 15 -14.5 49t-14.5 45q0 13 4 17q43 61 78 61q37 0 176 -57q73 -41 101 -69t51.5 -103.5t60.5 -261.5
q17 -86 53.5 -265t50.5 -247.5t44.5 -237t48.5 -295.5q65 -19 65 -90v-41q-48 -213 -110 -213q-3 0 -5 1.5t-3 2.5q-66 8 -127 8h-25q-246 0 -414 -24q-151 -15 -320 -56.5t-228 -41.5h-29q-104 0 -131 200q-21 97 -21 115q0 70 50 102q16 7 54 19t52 18q38 225 102 460
t146 442.5t170 355.5z" />
    <glyph glyph-name="aring" unicode="&#xe5;" horiz-adv-x="1384" 
d="M1270 385q20 -55 20 -102q0 -155 -171 -229t-328 -74q-155 0 -282.5 64.5t-223 185.5t-158.5 294q-66 192 -66 381q0 174 49 341.5t142 301t223 210.5t287 77q137 0 297 -125.5t207 -259.5q49 -138 49 -250q0 -190 -115.5 -312.5t-255.5 -177.5t-203 -55q-67 0 -172 111
q-59 78 -94 78q-16 0 -16 -33q0 -47 24 -152q53 -282 242 -282q76 0 233 57q163 49 189 49q90 0 123 -98zM807 1081q82 64 98 144q25 102 25 151q-3 60 -45 97.5t-94 37.5q-79 0 -136 -69q-155 -278 -155 -406q0 -86 69 -86q75 0 238 131z" />
    <glyph glyph-name="aring" unicode="&#x435;" horiz-adv-x="1384" 
d="M1270 385q20 -55 20 -102q0 -155 -171 -229t-328 -74q-155 0 -282.5 64.5t-223 185.5t-158.5 294q-66 192 -66 381q0 174 49 341.5t142 301t223 210.5t287 77q137 0 297 -125.5t207 -259.5q49 -138 49 -250q0 -190 -115.5 -312.5t-255.5 -177.5t-203 -55q-67 0 -172 111
q-59 78 -94 78q-16 0 -16 -33q0 -47 24 -152q53 -282 242 -282q76 0 233 57q163 49 189 49q90 0 123 -98zM807 1081q82 64 98 144q25 102 25 151q-3 60 -45 97.5t-94 37.5q-79 0 -136 -69q-155 -278 -155 -406q0 -86 69 -86q75 0 238 131z" />
    <glyph glyph-name="ae" unicode="&#xe6;" horiz-adv-x="2318" 
d="M1413 1212q97 79 166 156t139 185t174 290l90 37q181 -93 181 -348q0 -39 -4.5 -71t-4.5 -27q-46 -144 -87.5 -198.5t-182.5 -170.5q-41 -34 -68 -48t-57.5 -25.5t-40.5 -21t-10 -28.5q0 -1 2 -9t2 -15q57 -102 160 -238.5t219 -269.5t186 -197q111 -111 111 -160
q0 -33 -57 -33q-26 -2 -76 -15.5t-88 -49.5q-20 -25 -86 -25q-56 0 -79.5 12t-64.5 54q-279 298 -532 807q-50 94 -78 94q-20 0 -20 -74q0 -8 1.5 -14.5t2.5 -9.5q4 -66 4 -189q0 -157 -25 -495q0 -156 -106 -156q-60 0 -135 49q-97 59 -136 121t-45 92q84 308 90 508v21
q0 98 -40 98q-52 0 -140 -111q-54 -65 -158.5 -232t-152.5 -276q-4 -7 -31 -68.5t-46.5 -96t-37.5 -39.5q-4 0 -13 -2.5t-11 -2.5q-57 0 -122 51.5t-100 100.5q-90 121 -90 217q0 87 66 176q159 219 272 322t293 194q-160 87 -236.5 166t-189.5 236q-123 170 -123 225
q0 23 41 66q94 73 160 73q86 0 168 -127q228 -373 520 -516q8 70 8 197q0 88 -8 207t-8 145q0 37 8 53q32 62 86 62q49 0 82 -13q188 -111 188 -159v-135q0 -67 9 -308q1 -13 7 -33t21 -20q21 0 33 12z" />
    <glyph glyph-name="ae" unicode="&#x436;" horiz-adv-x="2318" 
d="M1413 1212q97 79 166 156t139 185t174 290l90 37q181 -93 181 -348q0 -39 -4.5 -71t-4.5 -27q-46 -144 -87.5 -198.5t-182.5 -170.5q-41 -34 -68 -48t-57.5 -25.5t-40.5 -21t-10 -28.5q0 -1 2 -9t2 -15q57 -102 160 -238.5t219 -269.5t186 -197q111 -111 111 -160
q0 -33 -57 -33q-26 -2 -76 -15.5t-88 -49.5q-20 -25 -86 -25q-56 0 -79.5 12t-64.5 54q-279 298 -532 807q-50 94 -78 94q-20 0 -20 -74q0 -8 1.5 -14.5t2.5 -9.5q4 -66 4 -189q0 -157 -25 -495q0 -156 -106 -156q-60 0 -135 49q-97 59 -136 121t-45 92q84 308 90 508v21
q0 98 -40 98q-52 0 -140 -111q-54 -65 -158.5 -232t-152.5 -276q-4 -7 -31 -68.5t-46.5 -96t-37.5 -39.5q-4 0 -13 -2.5t-11 -2.5q-57 0 -122 51.5t-100 100.5q-90 121 -90 217q0 87 66 176q159 219 272 322t293 194q-160 87 -236.5 166t-189.5 236q-123 170 -123 225
q0 23 41 66q94 73 160 73q86 0 168 -127q228 -373 520 -516q8 70 8 197q0 88 -8 207t-8 145q0 37 8 53q32 62 86 62q49 0 82 -13q188 -111 188 -159v-135q0 -67 9 -308q1 -13 7 -33t21 -20q21 0 33 12z" />
    <glyph glyph-name="ccedilla" unicode="&#xe7;" horiz-adv-x="1343" 
d="M221 1712q81 87 199 135.5t239 48.5q96 0 152 -20q160 -56 256 -181t96 -278q0 -203 -184 -381q-53 -34 -53 -53q0 -7 10.5 -12.5t44 -17.5t63.5 -23q209 -125 209 -365q0 -210 -155 -409q-149 -189 -385 -189q-89 0 -148 17q-174 49 -262 114q-133 93 -197 181
q-57 63 -57 135q0 89 82 184q72 86 131 86q61 0 90 -82q11 -35 30 -69.5t42 -70t55 -85.5q28 -47 74 -79t90 -32q35 0 66 25q72 45 111.5 136t39.5 191q0 54 -4 74q-51 139 -180 139q-28 0 -70 -8q-5 0 -14 -4t-10 -4q-23 0 -36 15t-40 63t-39 65q-25 44 -25 50
q0 23 23.5 40.5t79 44.5t78.5 42q92 62 144 167.5t52 188.5q0 62 -29 100.5t-73 38.5h-12q-106 -10 -238 -196q-40 -66 -98 -66q-71 0 -127 123q-4 12 -33 62t-29 77q0 47 41 82z" />
    <glyph glyph-name="ccedilla" unicode="&#x437;" horiz-adv-x="1343" 
d="M221 1712q81 87 199 135.5t239 48.5q96 0 152 -20q160 -56 256 -181t96 -278q0 -203 -184 -381q-53 -34 -53 -53q0 -7 10.5 -12.5t44 -17.5t63.5 -23q209 -125 209 -365q0 -210 -155 -409q-149 -189 -385 -189q-89 0 -148 17q-174 49 -262 114q-133 93 -197 181
q-57 63 -57 135q0 89 82 184q72 86 131 86q61 0 90 -82q11 -35 30 -69.5t42 -70t55 -85.5q28 -47 74 -79t90 -32q35 0 66 25q72 45 111.5 136t39.5 191q0 54 -4 74q-51 139 -180 139q-28 0 -70 -8q-5 0 -14 -4t-10 -4q-23 0 -36 15t-40 63t-39 65q-25 44 -25 50
q0 23 23.5 40.5t79 44.5t78.5 42q92 62 144 167.5t52 188.5q0 62 -29 100.5t-73 38.5h-12q-106 -10 -238 -196q-40 -66 -98 -66q-71 0 -127 123q-4 12 -33 62t-29 77q0 47 41 82z" />
    <glyph glyph-name="egrave" unicode="&#xe8;" horiz-adv-x="1667" 
d="M541 803q80 130 210.5 316.5t255 363t177.5 262.5q38 115 102 115q19 0 37 -9q176 -95 197 -262q-13 -189 -13 -467v-221q0 -30 -4 -94t-4 -94q0 -126 11.5 -236.5t26 -198t24.5 -147.5q0 -16 2 -44t2 -38q0 -102 -95 -102q-62 0 -139 33q-91 38 -131.5 70t-59 96.5
t-18.5 193.5q0 119 4 192q50 575 58 725q-191 -266 -619 -1011v-62q0 -164 -82 -164q-43 0 -155 50q-124 75 -162.5 118t-38.5 131q0 10 2 34t2 36q5 77 14 228t19 292q20 380 20 733v123q0 3 -6 25t-6 37q0 86 78 86q46 0 106 -25q127 -51 166 -79.5t60 -108.5v-25
q0 -13 -12.5 -148t-12.5 -286q-1 -24 -8 -147t-9.5 -183t-2.5 -84q0 -7 2 -15t2 -9z" />
    <glyph glyph-name="egrave" unicode="&#x438;" horiz-adv-x="1667" 
d="M541 803q80 130 210.5 316.5t255 363t177.5 262.5q38 115 102 115q19 0 37 -9q176 -95 197 -262q-13 -189 -13 -467v-221q0 -30 -4 -94t-4 -94q0 -126 11.5 -236.5t26 -198t24.5 -147.5q0 -16 2 -44t2 -38q0 -102 -95 -102q-62 0 -139 33q-91 38 -131.5 70t-59 96.5
t-18.5 193.5q0 119 4 192q50 575 58 725q-191 -266 -619 -1011v-62q0 -164 -82 -164q-43 0 -155 50q-124 75 -162.5 118t-38.5 131q0 10 2 34t2 36q5 77 14 228t19 292q20 380 20 733v123q0 3 -6 25t-6 37q0 86 78 86q46 0 106 -25q127 -51 166 -79.5t60 -108.5v-25
q0 -13 -12.5 -148t-12.5 -286q-1 -24 -8 -147t-9.5 -183t-2.5 -84q0 -7 2 -15t2 -9z" />
    <glyph glyph-name="eacute" unicode="&#xe9;" horiz-adv-x="1667" 
d="M557 1241q-1 -24 -8 -147t-9.5 -183t-2.5 -84q0 -7 2 -15t2 -9q80 130 210.5 316.5t255 363t177.5 262.5q38 115 102 115q19 0 37 -9q176 -95 197 -262q-13 -189 -13 -467v-221q0 -30 -4 -94t-4 -94q0 -126 11.5 -236.5t26 -198t24.5 -147.5q8 -58 8 -82q0 -102 -99 -102
q-48 0 -139 33q-91 38 -131.5 70t-59 96.5t-18.5 193.5q0 119 4 192q50 575 58 725q-191 -266 -619 -1011v-62q0 -164 -82 -164q-43 0 -155 50q-124 75 -162.5 118t-38.5 131q0 10 2 34t2 36q5 77 14 228t19 292q20 380 20 733v123q0 3 -6 25t-6 37q0 82 78 82q55 0 106 -21
q127 -51 166 -79.5t60 -108.5v-25q0 -13 -12.5 -148t-12.5 -286zM991 2265q28 33 86 33q53 0 104.5 -27t75.5 -67q13 -25 13 -45q0 -53 -238 -189q-127 -69 -205 -69q-32 0 -90 24q-85 39 -145 116.5t-60 162.5q0 4 2.5 13.5t2.5 14.5q15 41 53.5 63.5t81.5 22.5
q51 0 73 -28q48 -86 123 -86q55 0 123 61z" />
    <glyph glyph-name="eacute" unicode="&#x439;" horiz-adv-x="1667" 
d="M557 1241q-1 -24 -8 -147t-9.5 -183t-2.5 -84q0 -7 2 -15t2 -9q80 130 210.5 316.5t255 363t177.5 262.5q38 115 102 115q19 0 37 -9q176 -95 197 -262q-13 -189 -13 -467v-221q0 -30 -4 -94t-4 -94q0 -126 11.5 -236.5t26 -198t24.5 -147.5q8 -58 8 -82q0 -102 -99 -102
q-48 0 -139 33q-91 38 -131.5 70t-59 96.5t-18.5 193.5q0 119 4 192q50 575 58 725q-191 -266 -619 -1011v-62q0 -164 -82 -164q-43 0 -155 50q-124 75 -162.5 118t-38.5 131q0 10 2 34t2 36q5 77 14 228t19 292q20 380 20 733v123q0 3 -6 25t-6 37q0 82 78 82q55 0 106 -21
q127 -51 166 -79.5t60 -108.5v-25q0 -13 -12.5 -148t-12.5 -286zM991 2265q28 33 86 33q53 0 104.5 -27t75.5 -67q13 -25 13 -45q0 -53 -238 -189q-127 -69 -205 -69q-32 0 -90 24q-85 39 -145 116.5t-60 162.5q0 4 2.5 13.5t2.5 14.5q15 41 53.5 63.5t81.5 22.5
q51 0 73 -28q48 -86 123 -86q55 0 123 61z" />
    <glyph glyph-name="ecircumflex" unicode="&#xea;" horiz-adv-x="1548" 
d="M569 1651q0 -33 -2 -101t-2 -104q0 -57 8 -205q0 -61 25 -61q1 0 41 20q294 233 487 635q17 37 58 37q2 0 10 -2t10 -2q164 -143 164 -271q0 -41 -4 -61q-39 -210 -274 -430q-94 -94 -185 -131q303 -473 611 -787q98 -92 98 -131q0 -27 -62 -57q-136 -64 -249 -82h-17
q-67 0 -127 66q-130 142 -276.5 366t-255.5 441q-45 94 -74 94q-21 0 -21 -70q0 -7 2 -16t3 -13q-25 -463 -25 -684q-11 -102 -82 -102q-50 0 -160 61q-96 63 -135 124t-45 89q1 144 12 273t26 270t19 203q12 203 33 429.5t21 373.5q0 49 73 49q52 0 103 -29
q192 -111 192 -164v-28z" />
    <glyph glyph-name="ecircumflex" unicode="&#x43a;" horiz-adv-x="1548" 
d="M569 1651q0 -33 -2 -101t-2 -104q0 -57 8 -205q0 -61 25 -61q1 0 41 20q294 233 487 635q17 37 58 37q2 0 10 -2t10 -2q164 -143 164 -271q0 -41 -4 -61q-39 -210 -274 -430q-94 -94 -185 -131q303 -473 611 -787q98 -92 98 -131q0 -27 -62 -57q-136 -64 -249 -82h-17
q-67 0 -127 66q-130 142 -276.5 366t-255.5 441q-45 94 -74 94q-21 0 -21 -70q0 -7 2 -16t3 -13q-25 -463 -25 -684q-11 -102 -82 -102q-50 0 -160 61q-96 63 -135 124t-45 89q1 144 12 273t26 270t19 203q12 203 33 429.5t21 373.5q0 49 73 49q52 0 103 -29
q192 -111 192 -164v-28z" />
    <glyph glyph-name="edieresis" unicode="&#xeb;" horiz-adv-x="1384" 
d="M156 82q-136 156 -136 233q0 16 5 44t8 51q107 624 463 1175q10 13 62 18t52 31v4q-2 40 -21.5 87.5t-19.5 56.5q0 12 4 16q45 57 82 57q28 0 185 -65q6 -3 69 -27t92 -51t54 -89t43 -177q30 -194 65 -379t90.5 -454t89.5 -441q25 -117 25 -152q0 -53 -53 -53
q-51 0 -185 53q-129 57 -173 85.5t-66.5 78.5t-34.5 160q-19 146 -41 307.5t-33 258.5t-16 171q-12 140 -66 140q-36 0 -49 -58q-72 -157 -127.5 -405t-122.5 -647q-11 -91 -102 -91q-89 0 -143 62z" />
    <glyph glyph-name="edieresis" unicode="&#x43b;" horiz-adv-x="1384" 
d="M156 82q-136 156 -136 233q0 16 5 44t8 51q107 624 463 1175q10 13 62 18t52 31v4q-2 40 -21.5 87.5t-19.5 56.5q0 12 4 16q45 57 82 57q28 0 185 -65q6 -3 69 -27t92 -51t54 -89t43 -177q30 -194 65 -379t90.5 -454t89.5 -441q25 -117 25 -152q0 -53 -53 -53
q-51 0 -185 53q-129 57 -173 85.5t-66.5 78.5t-34.5 160q-19 146 -41 307.5t-33 258.5t-16 171q-12 140 -66 140q-36 0 -49 -58q-72 -157 -127.5 -405t-122.5 -647q-11 -91 -102 -91q-89 0 -143 62z" />
    <glyph glyph-name="igrave" unicode="&#xec;" horiz-adv-x="2159" 
d="M545 1130q-9 -68 -35 -255.5t-38.5 -320t-12.5 -255.5q0 -13 2 -34t2 -32q0 -136 -32 -188.5t-103 -52.5q-78 0 -185 78q-118 82 -118 237q0 11 4 33t4 33q38 270 143 641t225 657q0 2 2.5 7t2.5 10q0 18 -41 102q-21 66 -21 90q0 66 86 66h12q184 0 274.5 -105.5
t135.5 -271.5q45 -124 97 -313.5t59 -211.5q13 -172 41 -172q30 0 86 160q185 556 401 807q40 53 90 53q66 0 184 -77q152 -79 152 -226q0 -13 -2 -49t-2 -53q0 -545 123 -1315q12 -79 12 -143q0 -103 -70 -103q-62 0 -208 70q-45 27 -110 83.5t-87 121.5q-33 199 -33 430
q0 59 4 221t4 270q0 103 -32 103q-41 0 -78 -103q-112 -283 -166 -473.5t-64 -435.5q0 -45 -24.5 -78t-73.5 -33q-14 0 -65 17q-139 53 -171.5 85t-74.5 148l-205 758q-24 115 -53 115t-41 -95z" />
    <glyph glyph-name="igrave" unicode="&#x43c;" horiz-adv-x="2159" 
d="M545 1130q-9 -68 -35 -255.5t-38.5 -320t-12.5 -255.5q0 -13 2 -34t2 -32q0 -136 -32 -188.5t-103 -52.5q-78 0 -185 78q-118 82 -118 237q0 11 4 33t4 33q38 270 143 641t225 657q0 2 2.5 7t2.5 10q0 18 -41 102q-21 66 -21 90q0 66 86 66h12q184 0 274.5 -105.5
t135.5 -271.5q45 -124 97 -313.5t59 -211.5q13 -172 41 -172q30 0 86 160q185 556 401 807q40 53 90 53q66 0 184 -77q152 -79 152 -226q0 -13 -2 -49t-2 -53q0 -545 123 -1315q12 -79 12 -143q0 -103 -70 -103q-62 0 -208 70q-45 27 -110 83.5t-87 121.5q-33 199 -33 430
q0 59 4 221t4 270q0 103 -32 103q-41 0 -78 -103q-112 -283 -166 -473.5t-64 -435.5q0 -45 -24.5 -78t-73.5 -33q-14 0 -65 17q-139 53 -171.5 85t-74.5 148l-205 758q-24 115 -53 115t-41 -95z" />
    <glyph glyph-name="iacute" unicode="&#xed;" horiz-adv-x="1548" 
d="M586 930q-17 -357 -17 -455q0 -92 13 -242q8 -98 8 -118q0 -115 -74 -115q-37 0 -176 57q-125 77 -161 119.5t-36 130.5q0 11 2 34t2 36q7 86 16.5 258t16.5 262q-127 94 -127 152q0 67 144 122q4 95 4 304v278q0 4 -6.5 25.5t-6.5 36.5q0 81 78 81q51 0 107 -20
q123 -50 163 -79.5t62 -108.5q0 -11 6 -87t6 -143q0 -147 -12 -246q84 13 393 21q0 4 -2 10t-2 10q0 65 10.5 201t10.5 201q0 74 -4 94q0 3 -4.5 13t-4.5 16q0 77 78 77q49 0 86 -16q242 -100 242 -180v-8q-13 -82 -18 -179.5t-11.5 -294.5t-11.5 -284q-8 -156 -8 -221
q0 -243 45 -541q8 -29 8 -82q0 -102 -98 -102q-51 0 -136 33q-132 54 -172.5 115.5t-40.5 244.5q0 28 9 192q4 37 4 148v291q-42 -4 -119.5 -8t-139.5 -11t-126 -22z" />
    <glyph glyph-name="iacute" unicode="&#x43d;" horiz-adv-x="1548" 
d="M586 930q-17 -357 -17 -455q0 -92 13 -242q8 -98 8 -118q0 -115 -74 -115q-37 0 -176 57q-125 77 -161 119.5t-36 130.5q0 11 2 34t2 36q7 86 16.5 258t16.5 262q-127 94 -127 152q0 67 144 122q4 95 4 304v278q0 4 -6.5 25.5t-6.5 36.5q0 81 78 81q51 0 107 -20
q123 -50 163 -79.5t62 -108.5q0 -11 6 -87t6 -143q0 -147 -12 -246q84 13 393 21q0 4 -2 10t-2 10q0 65 10.5 201t10.5 201q0 74 -4 94q0 3 -4.5 13t-4.5 16q0 77 78 77q49 0 86 -16q242 -100 242 -180v-8q-13 -82 -18 -179.5t-11.5 -294.5t-11.5 -284q-8 -156 -8 -221
q0 -243 45 -541q8 -29 8 -82q0 -102 -98 -102q-51 0 -136 33q-132 54 -172.5 115.5t-40.5 244.5q0 28 9 192q4 37 4 148v291q-42 -4 -119.5 -8t-139.5 -11t-126 -22z" />
    <glyph glyph-name="icircumflex" unicode="&#xee;" horiz-adv-x="1466" 
d="M1360 1188q41 -110 41 -279q0 -212 -76 -428.5t-221 -356.5t-338 -140q-79 0 -184.5 58.5t-204.5 158.5q-70 67 -149.5 195t-112.5 239q-54 154 -54 328q0 152 40 305t124 292.5t213 245.5q111 86 172 86q104 0 234 -204q75 -101 102 -122.5t86 -21.5q204 0 328 -356z
M610 1278q-102 -300 -102 -533q0 -158 53 -270q49 -135 135 -135q41 0 82 25q67 36 130 201t63 372q0 214 -62 385q-16 49 -51 96t-80 47q-79 0 -168 -188z" />
    <glyph glyph-name="icircumflex" unicode="&#x43e;" horiz-adv-x="1466" 
d="M1360 1188q41 -110 41 -279q0 -212 -76 -428.5t-221 -356.5t-338 -140q-79 0 -184.5 58.5t-204.5 158.5q-70 67 -149.5 195t-112.5 239q-54 154 -54 328q0 152 40 305t124 292.5t213 245.5q111 86 172 86q104 0 234 -204q75 -101 102 -122.5t86 -21.5q204 0 328 -356z
M610 1278q-102 -300 -102 -533q0 -158 53 -270q49 -135 135 -135q41 0 82 25q67 36 130 201t63 372q0 214 -62 385q-16 49 -51 96t-80 47q-79 0 -168 -188z" />
    <glyph glyph-name="idieresis" unicode="&#xef;" horiz-adv-x="1589" 
d="M623 233q8 -98 8 -118q0 -115 -74 -115q-44 0 -176 57q-125 77 -161 119.5t-36 130.5v70q7 69 20 275.5t27 418.5t23 354l-4 -4q-38 0 -101 -28.5t-83 -28.5l-9 4q-45 6 -71.5 93t-26.5 186q0 107 94 143q28 21 59.5 31t69.5 16t94 12t101 11q635 20 704 20
q168 0 193 -12q53 -20 83 -51t42.5 -65.5t17 -71.5t8.5 -70q-13 -101 -15 -349.5t-9 -367.5q-8 -156 -8 -221q0 -243 45 -541q8 -58 8 -82q0 -102 -94 -102q-69 0 -140 33q-132 54 -172.5 115.5t-40.5 244.5q0 28 9 192q2 27 7.5 260.5t10 454.5t6.5 256l-105 -2.5
t-128.5 -4.5t-155.5 -13q-2 -66 -15.5 -483.5t-13.5 -598.5q0 -52 4.5 -104t4.5 -64z" />
    <glyph glyph-name="idieresis" unicode="&#x43f;" horiz-adv-x="1589" 
d="M623 233q8 -98 8 -118q0 -115 -74 -115q-44 0 -176 57q-125 77 -161 119.5t-36 130.5v70q7 69 20 275.5t27 418.5t23 354l-4 -4q-38 0 -101 -28.5t-83 -28.5l-9 4q-45 6 -71.5 93t-26.5 186q0 107 94 143q28 21 59.5 31t69.5 16t94 12t101 11q635 20 704 20
q168 0 193 -12q53 -20 83 -51t42.5 -65.5t17 -71.5t8.5 -70q-13 -101 -15 -349.5t-9 -367.5q-8 -156 -8 -221q0 -243 45 -541q8 -58 8 -82q0 -102 -94 -102q-69 0 -140 33q-132 54 -172.5 115.5t-40.5 244.5q0 28 9 192q2 27 7.5 260.5t10 454.5t6.5 256l-105 -2.5
t-128.5 -4.5t-155.5 -13q-2 -66 -15.5 -483.5t-13.5 -598.5q0 -52 4.5 -104t4.5 -64z" />
    <glyph glyph-name="eth" unicode="&#xf0;" horiz-adv-x="1507" 
d="M766 455q319 247 319 565q0 103 -32 188q-51 148 -201 148q-116 0 -246 -74q4 -74 4 -217q0 -99 -6 -265t-6 -222v-29q6 -156 45 -156q21 0 123 62zM569 1794q13 -57 49 -57q14 0 50 12t53 12q116 0 232.5 -40t241.5 -172.5t214 -381.5q49 -124 49 -290
q0 -180 -68.5 -349.5t-163 -298t-190.5 -217.5q-98 -86 -159 -86q-45 0 -127 70q-110 115 -152 115q-37 0 -37 -115v-29q-30 -526 -41 -643q-5 -196 -78 -196q-35 0 -94 45q-64 55 -155 114q-90 46 -121 77.5t-31 103.5q0 20 16 126q122 617 181 1430q0 19 2 41t2 29
q0 26 -45 77q-193 237 -193 324q0 69 98 107q51 21 68.5 39t17.5 63q0 40 -28 205q-2 14 -7.5 30t-5.5 23q0 49 54 49q39 0 94 -16q139 -37 180 -53t57.5 -43.5t36.5 -104.5z" />
    <glyph glyph-name="eth" unicode="&#x440;" horiz-adv-x="1507" 
d="M766 455q319 247 319 565q0 103 -32 188q-51 148 -201 148q-116 0 -246 -74q4 -74 4 -217q0 -99 -6 -265t-6 -222v-29q6 -156 45 -156q21 0 123 62zM569 1794q13 -57 49 -57q14 0 50 12t53 12q116 0 232.5 -40t241.5 -172.5t214 -381.5q49 -124 49 -290
q0 -180 -68.5 -349.5t-163 -298t-190.5 -217.5q-98 -86 -159 -86q-45 0 -127 70q-110 115 -152 115q-37 0 -37 -115v-29q-30 -526 -41 -643q-5 -196 -78 -196q-35 0 -94 45q-64 55 -155 114q-90 46 -121 77.5t-31 103.5q0 20 16 126q122 617 181 1430q0 19 2 41t2 29
q0 26 -45 77q-193 237 -193 324q0 69 98 107q51 21 68.5 39t17.5 63q0 40 -28 205q-2 14 -7.5 30t-5.5 23q0 49 54 49q39 0 94 -16q139 -37 180 -53t57.5 -43.5t36.5 -104.5z" />
    <glyph glyph-name="ntilde" unicode="&#xf1;" horiz-adv-x="1303" 
d="M807 1360q-40 98 -82 98q-30 0 -53 -41q-90 -114 -147.5 -301t-57.5 -358t60.5 -276t185.5 -105q126 0 282 98q31 37 78 37q39 0 77.5 -26t49.5 -68q33 -95 33 -139q0 -93 -123 -160q-150 -131 -385 -131q-124 0 -245 49.5t-219 155.5t-155 266q-77 231 -77 438
q0 248 88.5 463.5t231.5 343t298 127.5q127 0 251 -67.5t201 -172.5t77 -211q0 -66 -33 -127q-34 -49 -67.5 -67.5t-92.5 -18.5q-80 0 -113 38.5t-63 154.5z" />
    <glyph glyph-name="ntilde" unicode="&#x441;" horiz-adv-x="1303" 
d="M807 1360q-40 98 -82 98q-30 0 -53 -41q-90 -114 -147.5 -301t-57.5 -358t60.5 -276t185.5 -105q126 0 282 98q31 37 78 37q39 0 77.5 -26t49.5 -68q33 -95 33 -139q0 -93 -123 -160q-150 -131 -385 -131q-124 0 -245 49.5t-219 155.5t-155 266q-77 231 -77 438
q0 248 88.5 463.5t231.5 343t298 127.5q127 0 251 -67.5t201 -172.5t77 -211q0 -66 -33 -127q-34 -49 -67.5 -67.5t-92.5 -18.5q-80 0 -113 38.5t-63 154.5z" />
    <glyph glyph-name="ograve" unicode="&#xf2;" horiz-adv-x="1303" 
d="M1012 1860q107 -3 152.5 -34t138.5 -167q24 -37 24 -66q0 -54 -139 -65q-83 -5 -170.5 -16t-112.5 -13q-37 -1 -47.5 -11t-13.5 -68.5t-4 -71.5q0 -28 -6.5 -98.5t-6.5 -127.5q0 -97 21 -319q0 -13 -2 -39t-2 -39q0 -308 61 -504q53 -146 53 -213q0 -53 -53 -53
q-34 0 -102 20q-184 69 -257.5 128t-92 148t-23.5 314v66q0 372 41 684v24q0 39 -22.5 65t-59.5 26h-20q-41 -6 -164.5 -42t-163.5 -36q-3 0 -5 1.5t-3 2.5q-47 3 -73 52t-26 116q0 109 54 176q46 55 145.5 76.5t308.5 42.5q307 41 541 41h29z" />
    <glyph glyph-name="ograve" unicode="&#x442;" horiz-adv-x="1303" 
d="M1012 1860q107 -3 152.5 -34t138.5 -167q24 -37 24 -66q0 -54 -139 -65q-83 -5 -170.5 -16t-112.5 -13q-37 -1 -47.5 -11t-13.5 -68.5t-4 -71.5q0 -28 -6.5 -98.5t-6.5 -127.5q0 -97 21 -319q0 -13 -2 -39t-2 -39q0 -308 61 -504q53 -146 53 -213q0 -53 -53 -53
q-34 0 -102 20q-184 69 -257.5 128t-92 148t-23.5 314v66q0 372 41 684v24q0 39 -22.5 65t-59.5 26h-20q-41 -6 -164.5 -42t-163.5 -36q-3 0 -5 1.5t-3 2.5q-47 3 -73 52t-26 116q0 109 54 176q46 55 145.5 76.5t308.5 42.5q307 41 541 41h29z" />
    <glyph glyph-name="oacute" unicode="&#xf3;" horiz-adv-x="1425" 
d="M795 508q81 213 121 448.5t104 776.5q6 36 33 63t65 27q60 0 107 -37q67 -53 105 -142.5t38 -173.5v-12q-23 -465 -142 -906.5t-290 -785t-338 -528.5q-37 -53 -119 -53q-45 0 -69 12q-154 92 -217 271q-13 31 -13 36q0 34 111 111q99 70 194 191.5t150 283.5
q3 17 7.5 35t4.5 22q0 37 -78 66q-131 67 -200.5 160.5t-122.5 273.5q-107 370 -176 873q-13 71 -13 114q0 63 30.5 95t113.5 73q138 66 168 66q83 0 94 -172q45 -456 107.5 -796t117.5 -376q37 -49 53 -49q19 0 54 33z" />
    <glyph glyph-name="oacute" unicode="&#x443;" horiz-adv-x="1425" 
d="M795 508q81 213 121 448.5t104 776.5q6 36 33 63t65 27q60 0 107 -37q67 -53 105 -142.5t38 -173.5v-12q-23 -465 -142 -906.5t-290 -785t-338 -528.5q-37 -53 -119 -53q-45 0 -69 12q-154 92 -217 271q-13 31 -13 36q0 34 111 111q99 70 194 191.5t150 283.5
q3 17 7.5 35t4.5 22q0 37 -78 66q-131 67 -200.5 160.5t-122.5 273.5q-107 370 -176 873q-13 71 -13 114q0 63 30.5 95t113.5 73q138 66 168 66q83 0 94 -172q45 -456 107.5 -796t117.5 -376q37 -49 53 -49q19 0 54 33z" />
    <glyph glyph-name="ocircumflex" unicode="&#xf4;" horiz-adv-x="2277" 
d="M893 57v33q0 82 -33 82q-23 0 -41 -25q-110 -102 -237 -102q-259 0 -459 414q-66 138 -66 307q0 187 70 387.5t205.5 369.5t318.5 259q227 73 267 73q62 0 114 -69q41 -75 67 -94.5t89 -32.5q2 0 6 -1.5t6 -2.5q42 0 139 57t123 57q480 0 688 -593q54 -144 54 -291
q0 -259 -133 -490t-289 -375q-106 -86 -164 -86q-53 0 -127 74q-109 111 -156 111q-45 0 -45 -111q0 -6 2 -17t2 -16q14 -382 86 -680v-20q0 -32 -24.5 -55t-61.5 -23h-24q-161 32 -241.5 80t-110 125t-29.5 201q0 21 -2 98t-2 127q0 75 8 229zM1507 463q117 89 191 192
t107.5 205.5t33.5 200.5q0 96 -29 180q-47 139 -180 139q-90 0 -237 -77q-9 -87 -52 -352t-43 -365q7 -172 82 -172q54 0 127 49zM905 713q35 211 90 499q21 81 21 123q0 103 -78 103q-104 0 -238 -140q-112 -108 -168.5 -311t-56.5 -373q0 -58 12 -106q33 -90 82 -90
q94 0 336 295z" />
    <glyph glyph-name="ocircumflex" unicode="&#x444;" horiz-adv-x="2277" 
d="M893 57v33q0 82 -33 82q-23 0 -41 -25q-110 -102 -237 -102q-259 0 -459 414q-66 138 -66 307q0 187 70 387.5t205.5 369.5t318.5 259q227 73 267 73q62 0 114 -69q41 -75 67 -94.5t89 -32.5q2 0 6 -1.5t6 -2.5q42 0 139 57t123 57q480 0 688 -593q54 -144 54 -291
q0 -259 -133 -490t-289 -375q-106 -86 -164 -86q-53 0 -127 74q-109 111 -156 111q-45 0 -45 -111q0 -6 2 -17t2 -16q14 -382 86 -680v-20q0 -32 -24.5 -55t-61.5 -23h-24q-161 32 -241.5 80t-110 125t-29.5 201q0 21 -2 98t-2 127q0 75 8 229zM1507 463q117 89 191 192
t107.5 205.5t33.5 200.5q0 96 -29 180q-47 139 -180 139q-90 0 -237 -77q-9 -87 -52 -352t-43 -365q7 -172 82 -172q54 0 127 49zM905 713q35 211 90 499q21 81 21 123q0 103 -78 103q-104 0 -238 -140q-112 -108 -168.5 -311t-56.5 -373q0 -58 12 -106q33 -90 82 -90
q94 0 336 295z" />
    <glyph glyph-name="otilde" unicode="&#xf5;" horiz-adv-x="1384" 
d="M70 393q128 245 364 578q21 21 21 49q0 43 -90 168q-165 228 -267 344q-98 111 -98 168q0 33 17 55.5t65 75.5q78 78 143 78q62 0 123 -66q94 -99 221 -303q38 -70 62 -114.5t39 -65.5t30 -21q33 0 99 103q160 229 213 319q30 62 69 62q54 0 172 -189q50 -99 50 -143
q0 -29 -37 -74q-28 -38 -295 -368q-29 -36 -29 -66q0 -26 33 -82q56 -94 156 -255.5t162.5 -267t74.5 -136.5q21 -72 21 -90q0 -37 -74 -140q-39 -82 -123 -82q-93 0 -139 119q-35 81 -147.5 274t-139.5 246q-41 82 -66 82q-12 0 -24 -24q-153 -204 -225 -516
q-18 -111 -86 -111q-77 0 -234 139q-86 82 -86 152q0 39 25 102z" />
    <glyph glyph-name="otilde" unicode="&#x445;" horiz-adv-x="1384" 
d="M70 393q128 245 364 578q21 21 21 49q0 43 -90 168q-165 228 -267 344q-98 111 -98 168q0 33 17 55.5t65 75.5q78 78 143 78q62 0 123 -66q94 -99 221 -303q38 -70 62 -114.5t39 -65.5t30 -21q33 0 99 103q160 229 213 319q30 62 69 62q54 0 172 -189q50 -99 50 -143
q0 -29 -37 -74q-28 -38 -295 -368q-29 -36 -29 -66q0 -26 33 -82q56 -94 156 -255.5t162.5 -267t74.5 -136.5q21 -72 21 -90q0 -37 -74 -140q-39 -82 -123 -82q-93 0 -139 119q-35 81 -147.5 274t-139.5 246q-41 82 -66 82q-12 0 -24 -24q-153 -204 -225 -516
q-18 -111 -86 -111q-77 0 -234 139q-86 82 -86 152q0 39 25 102z" />
    <glyph glyph-name="odieresis" unicode="&#xf6;" horiz-adv-x="1630" 
d="M1245 29h-24q-52 0 -139 6t-128 6q-36 0 -110 -8q-200 -10 -273.5 -24.5t-251.5 -61.5h-28q-53 0 -85.5 32.5t-70.5 122.5q-29 82 -29 119q0 100 87 119q0 7 -2.5 18.5t-2.5 14.5q0 83 -8 227t-8 203q0 18 4 49t4 45q1 32 4.5 351t16.5 505q0 1 -4 24t-4 38q0 86 73 86
q37 0 107 -25q140 -56 182.5 -82.5t42.5 -97.5v-8q-20 -258 -20 -746q0 -98 -2.5 -185t-2.5 -114q0 -70 5.5 -149t7.5 -113q186 25 303 25h82v581q0 95 16.5 381t16.5 356v37q0 99 69 99q37 0 86 -21q242 -100 242 -180v-8q-13 -82 -18 -179.5t-11.5 -294.5t-11.5 -284
q-8 -164 -8 -234q0 -114 16 -270q223 -38 229 -225q0 -30 -2 -89t-2 -87q0 -171 17 -299v-66q0 -160 -82 -160q-47 0 -139 45q-156 79 -177 242q0 31 16.5 116.5t16.5 145.5v17z" />
    <glyph glyph-name="odieresis" unicode="&#x446;" horiz-adv-x="1630" 
d="M1245 29h-24q-52 0 -139 6t-128 6q-36 0 -110 -8q-200 -10 -273.5 -24.5t-251.5 -61.5h-28q-53 0 -85.5 32.5t-70.5 122.5q-29 82 -29 119q0 100 87 119q0 7 -2.5 18.5t-2.5 14.5q0 83 -8 227t-8 203q0 18 4 49t4 45q1 32 4.5 351t16.5 505q0 1 -4 24t-4 38q0 86 73 86
q37 0 107 -25q140 -56 182.5 -82.5t42.5 -97.5v-8q-20 -258 -20 -746q0 -98 -2.5 -185t-2.5 -114q0 -70 5.5 -149t7.5 -113q186 25 303 25h82v581q0 95 16.5 381t16.5 356v37q0 99 69 99q37 0 86 -21q242 -100 242 -180v-8q-13 -82 -18 -179.5t-11.5 -294.5t-11.5 -284
q-8 -164 -8 -234q0 -114 16 -270q223 -38 229 -225q0 -30 -2 -89t-2 -87q0 -171 17 -299v-66q0 -160 -82 -160q-47 0 -139 45q-156 79 -177 242q0 31 16.5 116.5t16.5 145.5v17z" />
    <glyph glyph-name="divide" unicode="&#xf7;" horiz-adv-x="1470" 
d="M893 1135q58 583 65 634q8 107 50 107q33 0 131 -57q188 -92 188 -263q0 -31 -4.5 -50.5t-7.5 -26.5q-66 -508 -66 -934q0 -291 29 -545q-4 0 -4 -4q0 -53 -45 -53q-49 0 -139 69q-44 47 -177 99q-83 33 -90 122q0 12 -2 42t-2 44q0 97 29 484q-4 0 -4 8q0 20 -13 20
q-18 0 -96.5 -50t-143.5 -81.5t-132 -31.5q-2 0 -4 2t-4 2q-169 10 -261.5 77t-128.5 242q-8 58 -8 107q0 89 18.5 294.5t18.5 282.5q0 131 10 182.5t52 51.5q28 0 61 -17q118 -51 185.5 -110t72.5 -144v-41q0 -63 -20.5 -221.5t-20.5 -224.5q0 -15 12 -78q18 -78 103 -78
q32 0 61 9q76 23 142 56.5t145 74.5z" />
    <glyph glyph-name="divide" unicode="&#x447;" horiz-adv-x="1470" 
d="M893 1135q58 583 65 634q8 107 50 107q33 0 131 -57q188 -92 188 -263q0 -31 -4.5 -50.5t-7.5 -26.5q-66 -508 -66 -934q0 -291 29 -545q-4 0 -4 -4q0 -53 -45 -53q-49 0 -139 69q-44 47 -177 99q-83 33 -90 122q0 12 -2 42t-2 44q0 97 29 484q-4 0 -4 8q0 20 -13 20
q-18 0 -96.5 -50t-143.5 -81.5t-132 -31.5q-2 0 -4 2t-4 2q-169 10 -261.5 77t-128.5 242q-8 58 -8 107q0 89 18.5 294.5t18.5 282.5q0 131 10 182.5t52 51.5q28 0 61 -17q118 -51 185.5 -110t72.5 -144v-41q0 -63 -20.5 -221.5t-20.5 -224.5q0 -15 12 -78q18 -78 103 -78
q32 0 61 9q76 23 142 56.5t145 74.5z" />
    <glyph glyph-name="oslash" unicode="&#xf8;" horiz-adv-x="2322" 
d="M1753 918v20q0 94 16.5 370t16.5 343v37q0 98 69 98q34 0 87 -21q60 -25 136 -86.5t76 -113.5v-4q-4 -58 -4 -218v-172q0 -217 -8 -327q-8 -172 -8 -234q0 -102 16 -266q86 -30 86 -115q0 -11 -8 -45q-28 -90 -47.5 -123.5t-54.5 -56.5q-37 -24 -90 -24q-57 0 -205 45
q-50 8 -225 8h-160q-69 0 -393 -25.5t-348 -27.5q-107 -12 -231 -39.5t-179 -34.5h-4q-79 0 -176 225q-13 52 -13 57q0 89 82 140q-7 138 -9.5 357.5t-2.5 223.5v103q0 33 -2 133t-2 170q0 158 12 422q0 164 94 164q26 0 70 -21q92 -55 148 -100.5t77 -120.5v-66
q0 -40 -4 -214t-4 -281q0 -28 2 -82t2 -78v-430q0 -22 2 -69t2 -74q66 2 187 21.5t190 19.5h21q0 36 -2 96t-2 88q0 56 2 161t2 154q0 29 -2 99t-2 114q0 173 20 561q0 197 90 197q39 0 90 -29q196 -83 217 -229v-74q0 -59 -6 -300t-6 -363q-20 -335 -20 -385q0 -22 4 -59
t4 -52q17 0 123 2t172 2h110v66q0 53 -4 196t-4 201v66z" />
    <glyph glyph-name="oslash" unicode="&#x448;" horiz-adv-x="2322" 
d="M1753 918v20q0 94 16.5 370t16.5 343v37q0 98 69 98q34 0 87 -21q60 -25 136 -86.5t76 -113.5v-4q-4 -58 -4 -218v-172q0 -217 -8 -327q-8 -172 -8 -234q0 -102 16 -266q86 -30 86 -115q0 -11 -8 -45q-28 -90 -47.5 -123.5t-54.5 -56.5q-37 -24 -90 -24q-57 0 -205 45
q-50 8 -225 8h-160q-69 0 -393 -25.5t-348 -27.5q-107 -12 -231 -39.5t-179 -34.5h-4q-79 0 -176 225q-13 52 -13 57q0 89 82 140q-7 138 -9.5 357.5t-2.5 223.5v103q0 33 -2 133t-2 170q0 158 12 422q0 164 94 164q26 0 70 -21q92 -55 148 -100.5t77 -120.5v-66
q0 -40 -4 -214t-4 -281q0 -28 2 -82t2 -78v-430q0 -22 2 -69t2 -74q66 2 187 21.5t190 19.5h21q0 36 -2 96t-2 88q0 56 2 161t2 154q0 29 -2 99t-2 114q0 173 20 561q0 197 90 197q39 0 90 -29q196 -83 217 -229v-74q0 -59 -6 -300t-6 -363q-20 -335 -20 -385q0 -22 4 -59
t4 -52q17 0 123 2t172 2h110v66q0 53 -4 196t-4 201v66z" />
    <glyph glyph-name="ugrave" unicode="&#xf9;" horiz-adv-x="2404" 
d="M1749 930q0 2 -2 8t-2 8q0 96 16.5 374t16.5 347v37q0 94 73 94q42 0 82 -20q60 -23 136.5 -86t76.5 -115v-4q-8 -124 -8 -217v-176q0 -217 -4 -328q-8 -196 -8 -242q0 -116 12 -233q104 -3 171 -71t67 -171q0 -25 -4.5 -66.5t-4.5 -64.5q0 -101 25 -332v-65
q0 -156 -86 -156q-41 0 -139 45q-72 38 -127.5 106.5t-69.5 139.5q0 43 17.5 130.5t23.5 152.5q-9 0 -25.5 -2.5t-27.5 -2.5q-24 0 -66 2.5t-69 2.5q-49 8 -377 8q-69 0 -374 -24.5t-359 -28.5q-105 -12 -230 -39.5t-180 -34.5h-4q-67 0 -164 237q-16 34 -16 62q0 83 74 123
q-5 120 -7 238t-3.5 195t-2.5 157q8 176 8 831q0 168 78 168q37 0 86 -25q186 -73 221 -217v-82q0 -48 -2 -232t-2 -288v-528q0 -66 9 -176q65 2 179 15t173 13h24q2 115 2 261.5t2 222.5q0 11 -2 41t-2 45q0 87 29 729q0 180 86 180q37 0 94 -29q200 -85 213 -217v-57
q0 -57 -6 -298t-6 -345v-37q-16 -410 -16 -389q0 -41 8 -115q15 0 121 2t170 2h106v66q0 51 -4 195t-4 210q0 11 2 33t2 33z" />
    <glyph glyph-name="ugrave" unicode="&#x449;" horiz-adv-x="2404" 
d="M1749 930q0 2 -2 8t-2 8q0 96 16.5 374t16.5 347v37q0 94 73 94q42 0 82 -20q60 -23 136.5 -86t76.5 -115v-4q-8 -124 -8 -217v-176q0 -217 -4 -328q-8 -196 -8 -242q0 -116 12 -233q104 -3 171 -71t67 -171q0 -25 -4.5 -66.5t-4.5 -64.5q0 -101 25 -332v-65
q0 -156 -86 -156q-41 0 -139 45q-72 38 -127.5 106.5t-69.5 139.5q0 43 17.5 130.5t23.5 152.5q-9 0 -25.5 -2.5t-27.5 -2.5q-24 0 -66 2.5t-69 2.5q-49 8 -377 8q-69 0 -374 -24.5t-359 -28.5q-105 -12 -230 -39.5t-180 -34.5h-4q-67 0 -164 237q-16 34 -16 62q0 83 74 123
q-5 120 -7 238t-3.5 195t-2.5 157q8 176 8 831q0 168 78 168q37 0 86 -25q186 -73 221 -217v-82q0 -48 -2 -232t-2 -288v-528q0 -66 9 -176q65 2 179 15t173 13h24q2 115 2 261.5t2 222.5q0 11 -2 41t-2 45q0 87 29 729q0 180 86 180q37 0 94 -29q200 -85 213 -217v-57
q0 -57 -6 -298t-6 -345v-37q-16 -410 -16 -389q0 -41 8 -115q15 0 121 2t170 2h106v66q0 51 -4 195t-4 210q0 11 2 33t2 33z" />
    <glyph glyph-name="uacute" unicode="&#xfa;" horiz-adv-x="1585" 
d="M860 1548q-33 -303 -33 -352v-33q165 25 263 25q126 0 196 -33q106 -39 190.5 -165t84.5 -294v-73q-35 -181 -147.5 -338.5t-258.5 -272.5q-87 -69 -172 -69q-92 0 -184 98q-25 -12 -62 -12q-30 0 -98 28q-72 38 -168 136q-65 61 -65 303q0 133 3 212.5t9.5 184.5t15 204
t21.5 242q4 40 6 104t6 97h-8q-86 0 -242 -41t-172 -41h-12q-47 24 -84 91t-47 130q-2 17 -7.5 41t-5.5 37q0 67 115 98q74 18 143.5 23.5t182.5 8t178 5.5h33q188 0 237 -49q64 -64 90 -127q0 -5 2 -25t2 -28q0 -53 -12 -115zM1163 868q-45 21 -102 21q-118 0 -246 -74
q0 -53 -8 -148t-8 -147q0 -75 12 -192q31 -25 61 -25q62 0 138.5 72.5t140.5 189.5q70 148 70 209q0 71 -58 94z" />
    <glyph glyph-name="uacute" unicode="&#x44a;" horiz-adv-x="1585" 
d="M860 1548q-33 -303 -33 -352v-33q165 25 263 25q126 0 196 -33q106 -39 190.5 -165t84.5 -294v-73q-35 -181 -147.5 -338.5t-258.5 -272.5q-87 -69 -172 -69q-92 0 -184 98q-25 -12 -62 -12q-30 0 -98 28q-72 38 -168 136q-65 61 -65 303q0 133 3 212.5t9.5 184.5t15 204
t21.5 242q4 40 6 104t6 97h-8q-86 0 -242 -41t-172 -41h-12q-47 24 -84 91t-47 130q-2 17 -7.5 41t-5.5 37q0 67 115 98q74 18 143.5 23.5t182.5 8t178 5.5h33q188 0 237 -49q64 -64 90 -127q0 -5 2 -25t2 -28q0 -53 -12 -115zM1163 868q-45 21 -102 21q-118 0 -246 -74
q0 -53 -8 -148t-8 -147q0 -75 12 -192q31 -25 61 -25q62 0 138.5 72.5t140.5 189.5q70 148 70 209q0 71 -58 94z" />
    <glyph glyph-name="ucircumflex" unicode="&#xfb;" horiz-adv-x="2077" 
d="M532 328q33 -25 62 -25q62 0 140.5 77.5t146.5 201.5q65 128 65 196t-57 90q-47 21 -94 21q-126 0 -258 -86q-21 -163 -21 -254q0 -83 16 -221zM135 483q0 275 7 436t34 420q43 347 70 463q24 103 65 103q14 0 66 -25q94 -41 184 -160q25 -25 25 -127v-45
q-37 -336 -37 -356q0 -3 2 -14t2 -15q158 25 262 25q127 0 193 -33q104 -46 181 -164t77 -278v-78q-34 -180 -141.5 -347.5t-243.5 -275.5q-95 -69 -172 -69q-89 0 -189 98q-31 -41 -78 -41q-25 0 -65 20q-103 43 -168 164q-74 70 -74 299zM1933 1450q-82 -501 -82 -815
q0 -356 107 -643q16 -33 16 -62q0 -28 -37 -28q-12 0 -94 16q-22 6 -122.5 34.5t-129 46t-55.5 58.5q-94 137 -94 508q0 1 2 13t2 16q0 235 41.5 593t81.5 533q25 111 73 111q45 0 148 -70q94 -66 120.5 -98.5t26.5 -122.5q0 -57 -4 -90z" />
    <glyph glyph-name="ucircumflex" unicode="&#x44b;" horiz-adv-x="2077" 
d="M532 328q33 -25 62 -25q62 0 140.5 77.5t146.5 201.5q65 128 65 196t-57 90q-47 21 -94 21q-126 0 -258 -86q-21 -163 -21 -254q0 -83 16 -221zM135 483q0 275 7 436t34 420q43 347 70 463q24 103 65 103q14 0 66 -25q94 -41 184 -160q25 -25 25 -127v-45
q-37 -336 -37 -356q0 -3 2 -14t2 -15q158 25 262 25q127 0 193 -33q104 -46 181 -164t77 -278v-78q-34 -180 -141.5 -347.5t-243.5 -275.5q-95 -69 -172 -69q-89 0 -189 98q-31 -41 -78 -41q-25 0 -65 20q-103 43 -168 164q-74 70 -74 299zM1933 1450q-82 -501 -82 -815
q0 -356 107 -643q16 -33 16 -62q0 -28 -37 -28q-12 0 -94 16q-22 6 -122.5 34.5t-129 46t-55.5 58.5q-94 137 -94 508q0 1 2 13t2 16q0 235 41.5 593t81.5 533q25 111 73 111q45 0 148 -70q94 -66 120.5 -98.5t26.5 -122.5q0 -57 -4 -90z" />
    <glyph glyph-name="udieresis" unicode="&#xfc;" horiz-adv-x="1303" 
d="M516 41q-9 -9 -32 -23t-54 -14q-17 0 -57 16q-118 80 -180 164q-70 98 -70 279q0 136 3 220t9.5 196.5t16 220t20.5 239.5q13 236 66 463q16 90 61 90q12 0 78 -24q118 -65 180 -148q33 -38 33 -98q0 -36 -12 -74q-22 -55 -33 -385q165 25 254 25q122 0 192 -33
q113 -53 204 -173t91 -286q0 -9 -2 -32t-2 -33q-60 -337 -410 -619q-87 -69 -172 -69q-92 0 -184 98zM897 881q-24 24 -86 24q-138 0 -279 -90q-16 -180 -16 -283q0 -106 12 -204q33 -25 58 -25q59 0 132.5 76.5t137.5 198.5q78 129 78 217q0 61 -37 86z" />
    <glyph glyph-name="udieresis" unicode="&#x44c;" horiz-adv-x="1303" 
d="M516 41q-9 -9 -32 -23t-54 -14q-17 0 -57 16q-118 80 -180 164q-70 98 -70 279q0 136 3 220t9.5 196.5t16 220t20.5 239.5q13 236 66 463q16 90 61 90q12 0 78 -24q118 -65 180 -148q33 -38 33 -98q0 -36 -12 -74q-22 -55 -33 -385q165 25 254 25q122 0 192 -33
q113 -53 204 -173t91 -286q0 -9 -2 -32t-2 -33q-60 -337 -410 -619q-87 -69 -172 -69q-92 0 -184 98zM897 881q-24 24 -86 24q-138 0 -279 -90q-16 -180 -16 -283q0 -106 12 -204q33 -25 58 -25q59 0 132.5 76.5t137.5 198.5q78 129 78 217q0 61 -37 86z" />
    <glyph glyph-name="yacute" unicode="&#xfd;" horiz-adv-x="1343" 
d="M868 1114q-25 467 -196 467q-108 0 -307 -164q-77 -49 -132 -49q-62 0 -81 57q-50 148 -50 185q0 101 103 164q189 106 377 106q199 0 362.5 -129.5t255.5 -378.5q74 -211 74 -454q0 -253 -88.5 -471t-231.5 -347t-299 -129q-129 0 -252.5 66.5t-201.5 171.5t-78 213
q0 80 37 135q58 86 168 86q50 0 63.5 -18t22 -86.5t20.5 -112.5q19 -52 72 -85.5t104 -33.5q53 0 78 33q164 223 193 496h-21q-118 0 -303 -41q-1 -1 -4 -2.5t-8 -1.5q-37 0 -66 28q-49 51 -49 148q0 33 16 65q7 21 104.5 76t186.5 55q82 0 131 -49z" />
    <glyph glyph-name="yacute" unicode="&#x44d;" horiz-adv-x="1343" 
d="M868 1114q-25 467 -196 467q-108 0 -307 -164q-77 -49 -132 -49q-62 0 -81 57q-50 148 -50 185q0 101 103 164q189 106 377 106q199 0 362.5 -129.5t255.5 -378.5q74 -211 74 -454q0 -253 -88.5 -471t-231.5 -347t-299 -129q-129 0 -252.5 66.5t-201.5 171.5t-78 213
q0 80 37 135q58 86 168 86q50 0 63.5 -18t22 -86.5t20.5 -112.5q19 -52 72 -85.5t104 -33.5q53 0 78 33q164 223 193 496h-21q-118 0 -303 -41q-1 -1 -4 -2.5t-8 -1.5q-37 0 -66 28q-49 51 -49 148q0 33 16 65q7 21 104.5 76t186.5 55q82 0 131 -49z" />
    <glyph glyph-name="thorn" unicode="&#xfe;" horiz-adv-x="2322" 
d="M557 926q-12 -258 -12 -459q0 -144 8 -242q8 -90 8 -114q0 -119 -74 -119q-27 0 -172 57q-101 66 -133.5 91.5t-49.5 62.5t-17 100q0 6 2 29t2 37q5 76 13 216t20 308q-127 94 -127 151q0 69 143 119q4 99 4 307v275q0 2 -6 25t-6 36q0 86 78 86q44 0 106 -24
q132 -55 167.5 -81.5t57.5 -107.5q0 -11 8.5 -82.5t8.5 -146.5q0 -117 -17 -246q111 21 398 21q75 355 340 577q118 86 176 86q100 0 229 -209q76 -101 103 -122t90 -21q201 0 327 -352q41 -110 41 -279q0 -212 -76 -428t-222.5 -356.5t-340.5 -140.5q-75 0 -182 57.5
t-207 155.5q-69 66 -147 194t-111 240q-51 152 -57 340q-33 -3 -157.5 -12.5t-215.5 -28.5zM1483 1274q-107 -323 -107 -537q0 -160 58 -270q42 -135 131 -135q42 0 86 24q67 36 129.5 200t62.5 374q0 211 -65 385q-14 48 -49.5 95.5t-77.5 47.5q-82 0 -168 -184z" />
    <glyph glyph-name="thorn" unicode="&#x44e;" horiz-adv-x="2322" 
d="M557 926q-12 -258 -12 -459q0 -144 8 -242q8 -90 8 -114q0 -119 -74 -119q-27 0 -172 57q-101 66 -133.5 91.5t-49.5 62.5t-17 100q0 6 2 29t2 37q5 76 13 216t20 308q-127 94 -127 151q0 69 143 119q4 99 4 307v275q0 2 -6 25t-6 36q0 86 78 86q44 0 106 -24
q132 -55 167.5 -81.5t57.5 -107.5q0 -11 8.5 -82.5t8.5 -146.5q0 -117 -17 -246q111 21 398 21q75 355 340 577q118 86 176 86q100 0 229 -209q76 -101 103 -122t90 -21q201 0 327 -352q41 -110 41 -279q0 -212 -76 -428t-222.5 -356.5t-340.5 -140.5q-75 0 -182 57.5
t-207 155.5q-69 66 -147 194t-111 240q-51 152 -57 340q-33 -3 -157.5 -12.5t-215.5 -28.5zM1483 1274q-107 -323 -107 -537q0 -160 58 -270q42 -135 131 -135q42 0 86 24q67 36 129.5 200t62.5 374q0 211 -65 385q-14 48 -49.5 95.5t-77.5 47.5q-82 0 -168 -184z" />
    <glyph glyph-name="ydieresis" unicode="&#xff;" horiz-adv-x="1507" 
d="M983 1212q0 9 -2 30t-2 32q0 55 8 162t8 149q-24 4 -77 4q-120 0 -223 -52.5t-154 -123.5q-45 -70 -45 -131q0 -73 77 -102q142 -25 205 -25q108 0 205 57zM586 926q-9 0 -28 -2t-26 -2q-89 0 -148.5 20t-99 50.5t-83.5 76.5q-86 85 -86 221q0 76 28 148q170 420 725 442
h54q271 0 381 -41q114 -43 114 -131q0 -17 -8 -49q-21 -88 -78 -94q-16 -127 -16 -258v-172q0 -257 27.5 -551t50.5 -453q0 -16 2 -44t2 -38q0 -102 -94 -102q-63 0 -140 33q-130 54 -173.5 122.5t-43.5 257.5q0 45 8 185q0 10 -2 35t-2 34v197q0 53 8 111
q-214 -280 -342.5 -479t-209.5 -386q-24 -57 -87 -57q-67 0 -172 98q-127 121 -127 201q0 48 50 139q51 75 124.5 148.5t163.5 148.5t228 191z" />
    <glyph glyph-name="ydieresis" unicode="&#x44f;" horiz-adv-x="1507" 
d="M983 1212q0 9 -2 30t-2 32q0 55 8 162t8 149q-24 4 -77 4q-120 0 -223 -52.5t-154 -123.5q-45 -70 -45 -131q0 -73 77 -102q142 -25 205 -25q108 0 205 57zM586 926q-9 0 -28 -2t-26 -2q-89 0 -148.5 20t-99 50.5t-83.5 76.5q-86 85 -86 221q0 76 28 148q170 420 725 442
h54q271 0 381 -41q114 -43 114 -131q0 -17 -8 -49q-21 -88 -78 -94q-16 -127 -16 -258v-172q0 -257 27.5 -551t50.5 -453q0 -16 2 -44t2 -38q0 -102 -94 -102q-63 0 -140 33q-130 54 -173.5 122.5t-43.5 257.5q0 45 8 185q0 10 -2 35t-2 34v197q0 53 8 111
q-214 -280 -342.5 -479t-209.5 -386q-24 -57 -87 -57q-67 0 -172 98q-127 121 -127 201q0 48 50 139q51 75 124.5 148.5t163.5 148.5t228 191z" />
    <glyph glyph-name="emdash" unicode="&#x2013;" horiz-adv-x="1954" 
d="M1917 1245q0 -135 -21.5 -192.5t-97.5 -57.5q-661 -9 -852 -20q-125 -7 -357 -38.5t-319 -31.5q-5 0 -14 2t-10 2q-149 0 -185 209q-3 15 -6.5 29.5t-6.5 27t-3 25.5q0 82 78 111q216 82 749 82h33q123 0 327 4t284 4q114 0 163 -4q150 -8 187.5 -43.5t50.5 -108.5z" />
    <glyph glyph-name="endash" unicode="&#x2014;" horiz-adv-x="2560" 
d="M2281 1106h-221q-173 0 -831 -21q-116 -5 -428.5 -37t-440.5 -32q-8 0 -23 2t-22 2q-113 3 -160.5 39.5t-64.5 128.5q-20 60 -20 86q0 78 102 106q168 52 426.5 65t536.5 13h41q156 0 421 6t365 6q147 0 213 -4q190 -8 238 -43.5t65 -107.5q0 -105 -55 -159t-133 -54z
" />
    <glyph glyph-name="quoteleft" unicode="&#x2018;" horiz-adv-x="897" 
d="M172 2154q30 32 99.5 196.5t105.5 217.5q28 45 76.5 84t91.5 39l12 -4h16q99 0 189 -82q8 -8 8 -49q0 -84 -43 -264.5t-92 -317.5q-41 -110 -148 -110q-73 0 -282 78q-94 33 -94 94q0 51 61 118z" />
    <glyph glyph-name="quoteright" unicode="&#x2019;" horiz-adv-x="938" 
d="M504 2019q-21 -34 -43.5 -71.5t-44 -60.5t-47.5 -23h-33q-99 0 -184 82q-13 21 -13 49q0 183 135 581q41 111 144 111q72 0 287 -74q98 -40 98 -127q0 -54 -58 -119q-85 -91 -241 -348z" />
    <glyph glyph-name="quotedblleft" unicode="&#x201c;" horiz-adv-x="1667" 
d="M954 2159q33 37 100.5 198.5t100.5 214.5q29 46 78.5 82.5t89.5 36.5h33q94 0 184 -82q8 -4 8 -49q0 -88 -40.5 -264t-94.5 -318q-41 -110 -147 -110q-70 0 -283 78q-90 32 -90 94q0 58 61 119zM201 2044q-103 31 -103 119q0 55 62 123q86 98 246 352q19 32 40.5 69.5
t43.5 61.5t47 24q2 0 8 -2t8 -2h12q107 0 189 -82q12 -6 12 -53q0 -195 -135 -577q-41 -111 -148 -111q-77 0 -282 78z" />
    <glyph glyph-name="quotedblright" unicode="&#x201d;" horiz-adv-x="1626" 
d="M692 2499q-24 -28 -55.5 -99.5t-75 -172.5t-69.5 -142q-31 -42 -82 -80.5t-86 -38.5h-33q-94 0 -185 82q-12 6 -12 49q0 81 43 262t96 320q41 110 144 110q72 0 282 -73q91 -38 91 -103q0 -51 -58 -114zM1241 2023q-14 -25 -39 -67t-46.5 -65t-45.5 -23h-37
q-98 0 -180 82q-12 12 -12 49q0 86 41 259.5t94 321.5q40 111 143 111q81 0 287 -78q39 -13 66.5 -46.5t27.5 -76.5q0 -55 -57 -118q-74 -92 -242 -349z" />
  </font>
</defs>
</svg>
